<svg xmlns="http://www.w3.org/2000/svg" xmlns:xlink="http://www.w3.org/1999/xlink" width="144" zoomAndPan="magnify" viewBox="0 0 108 48" height="64" preserveAspectRatio="xMidYMid meet" version="1.0"><defs><clipPath id="699d7b1831"><path d="M 1.101562 0 L 106.898438 0 L 106.898438 47.019531 L 1.101562 47.019531 Z M 1.101562 0 " clip-rule="nonzero"/></clipPath><clipPath id="473957c673"><path d="M 3.453125 18.058594 L 104.503906 18.058594 L 104.503906 29.3125 L 3.453125 29.3125 Z M 3.453125 18.058594 " clip-rule="nonzero"/></clipPath></defs><g clip-path="url(#699d7b1831)"><path fill="#ffffff" d="M 1.101562 0 L 106.898438 0 L 106.898438 47.019531 L 1.101562 47.019531 Z M 1.101562 0 " fill-opacity="1" fill-rule="nonzero"/><path fill="#ffffff" d="M 1.101562 0 L 106.898438 0 L 106.898438 47.019531 L 1.101562 47.019531 Z M 1.101562 0 " fill-opacity="1" fill-rule="nonzero"/></g><g clip-path="url(#473957c673)"><path fill="#dc0005" d="M 9.855469 18.140625 L 3.457031 29.21875 L 7.429688 29.21875 L 8.359375 27.574219 L 15.890625 27.574219 L 16.820312 29.21875 L 20.871094 29.21875 L 14.472656 18.140625 Z M 36.203125 18.140625 L 31.523438 18.140625 L 27.410156 22.050781 L 25.535156 22.050781 L 25.535156 18.140625 L 21.941406 18.140625 L 21.941406 29.21875 L 25.535156 29.21875 L 25.535156 25.214844 L 27.867188 25.214844 L 32.292969 29.21875 L 37.195312 29.21875 L 30.578125 23.28125 Z M 51.09375 23.425781 C 51.722656 23.078125 52.417969 22.429688 52.417969 21.097656 C 52.417969 19.277344 51.109375 18.140625 48.933594 18.140625 L 38.171875 18.140625 L 38.171875 29.21875 L 49.296875 29.21875 C 51.503906 29.21875 53.082031 28.175781 53.082031 26.132812 C 53.082031 24.375 51.914062 23.617188 51.09375 23.425781 M 59.855469 18.140625 L 53.457031 29.21875 L 57.425781 29.21875 L 58.359375 27.574219 L 65.890625 27.574219 L 66.820312 29.21875 L 70.871094 29.21875 L 64.472656 18.140625 Z M 83.398438 25.863281 L 77.140625 18.140625 L 71.941406 18.140625 L 71.941406 29.21875 L 75.472656 29.21875 L 75.472656 21.492188 L 81.726562 29.21875 L 86.925781 29.21875 L 86.925781 18.140625 L 83.398438 18.140625 Z M 97.863281 23.285156 L 103.488281 18.140625 L 98.808594 18.140625 L 94.699219 22.050781 L 92.820312 22.050781 L 92.820312 18.140625 L 89.230469 18.140625 L 89.230469 29.21875 L 92.820312 29.21875 L 92.820312 25.214844 L 95.152344 25.214844 L 99.582031 29.21875 L 104.484375 29.21875 L 97.867188 23.28125 Z M 41.703125 20.796875 L 47.800781 20.796875 C 48.460938 20.796875 48.917969 21.035156 48.917969 21.621094 C 48.917969 22.207031 48.460938 22.414062 47.800781 22.414062 L 41.703125 22.414062 Z M 9.855469 24.945312 L 12.125 20.925781 L 14.410156 24.945312 Z M 59.855469 24.945312 L 62.125 20.925781 L 64.410156 24.945312 Z M 48.226562 26.558594 L 41.703125 26.558594 L 41.703125 24.789062 L 48.226562 24.789062 C 48.933594 24.789062 49.457031 25.039062 49.457031 25.671875 C 49.457031 26.304688 48.933594 26.558594 48.226562 26.558594 Z M 48.226562 26.558594 " fill-opacity="1" fill-rule="nonzero"/></g></svg>