<svg xmlns="http://www.w3.org/2000/svg" width="144" height="64" viewBox="0 0 108 48"><defs><clipPath id="a"><path d="M1.102 0h105.796v47.02H1.102Zm0 0"/></clipPath><clipPath id="b"><path d="M3.453 18.059h101.05v11.253H3.454Zm0 0"/></clipPath></defs><g fill="#fff" clip-path="url(#a)"><path d="M1.102 0h105.796v47.02H1.102Zm0 0"/><path d="M1.102 0h105.796v47.02H1.102Zm0 0"/></g><g clip-path="url(#b)"><path fill="#dc0005" d="M9.855 18.14 3.457 29.22H7.43l.93-1.645h7.53l.93 1.645h4.051l-6.398-11.08Zm26.348 0h-4.68l-4.113 3.91h-1.875v-3.91h-3.594v11.08h3.594v-4.004h2.332l4.426 4.004h4.902l-6.617-5.938Zm14.89 5.286c.63-.348 1.325-.996 1.325-2.328 0-1.82-1.309-2.957-3.484-2.957H38.172v11.078h11.125c2.207 0 3.785-1.043 3.785-3.086 0-1.758-1.168-2.516-1.988-2.707m8.761-5.285-6.398 11.078h3.969l.933-1.645h7.532l.93 1.645h4.05L64.473 18.14Zm23.543 7.722-6.257-7.722h-5.2v11.078h3.532v-7.727l6.254 7.727h5.199V18.14h-3.528Zm14.465-2.578 5.625-5.144h-4.68L94.7 22.05h-1.88v-3.91h-3.59v11.078h3.59v-4.004h2.332l4.43 4.004h4.902l-6.617-5.938Zm-56.16-2.488h6.098c.66 0 1.117.238 1.117.824s-.457.793-1.117.793h-6.098ZM9.855 24.945l2.27-4.02 2.285 4.02Zm50 0 2.27-4.02 2.285 4.02ZM48.227 26.56h-6.524v-1.77h6.524c.707 0 1.23.25 1.23.883s-.523.887-1.23.887m0 0"/></g></svg>