<?xml version="1.0" encoding="UTF-8"?>
<svg xmlns="http://www.w3.org/2000/svg" version="1.1" viewBox="0 0 450 124">
  <defs>
    <style>
      .cls-1, .cls-2 {
        fill: #003087;
      }

      .cls-2 {
        fill-rule: evenodd;
      }
    </style>
  </defs>
  <!-- Generator: Adobe Illustrator 28.7.10, SVG Export Plug-In . SVG Version: 1.2.0 Build 236)  -->
  <g>
    <g id="Layer_1">
      <g>
        <path class="cls-2" d="M145.9,59h-14.8c0-2.7.2-4.8.6-6.2.4-1.4,1.1-2.6,2.1-3.7,1.8-1.9,4.6-3.1,8.5-3.6,1.8-.3,4.8-.4,9-.4,7.3,0,12.3.8,15.2,2.3,3.5,1.8,5.5,4.9,6,9,.3,2.2.4,3.9.4,5v29h-14.6l.5-7.3h-.4c-.9,2.6-2.2,4.4-3.8,5.6-1.3.9-2.7,1.5-4.1,1.7-1.6.2-3.5.4-5.6.4-3.2,0-5.7-.3-7.6-.8-1.9-.5-3.5-1.4-4.8-2.6-2.2-2.1-3.3-5.8-3.3-10.9s1.1-7.9,3.2-9.9c2.7-2.5,7-3.7,12.8-3.7s7.7.5,9.6,1.4c1.3.7,2.4,2.1,3.2,4.2h.2v-8.8c0-1.9-.4-3.3-1.2-4.1-1.1-1.1-3-1.7-5.7-1.7s-4.3.6-5,1.8c-.3.6-.5,1.6-.6,3.1M150.8,72c-2.4,0-4.2.4-5.3,1.1-1,.6-1.5,1.8-1.5,3.5s.6,3.5,1.8,4.1c1.1.5,3.2.7,6.3.7s4.1-.4,5-1.1c.8-.7,1.3-2.1,1.3-4s-.3-2.4-.9-2.9c-1.1-.9-3.3-1.4-6.7-1.4"/>
        <path class="cls-1" d="M222.2,58.4h-13.9v-.7c-.5-1.3-1-2.2-1.8-2.5-.8-.4-2.6-.7-5.2-.7s-4.5.2-5.3.7c-.9.5-1.4,1.6-1.4,3.1s.8,3.1,2.3,3.4c.5.1,3.5.3,8.9.6,4.8.2,8.1.6,9.8,1,3.3.8,5.5,2.4,6.8,4.6,1.1,1.9,1.6,4.4,1.6,7.5,0,5.2-1.5,9-4.5,11.5-2,1.6-4.3,2.7-6.8,3.1-3.2.6-6.9.8-11.3.8-6.4,0-11-.5-13.8-1.5-3.9-1.4-6.2-4.1-7-8.1-.2-1.1-.3-2.8-.4-4.9h14.9c0,.4,0,.7,0,.9,0,1.6.4,2.7,1.3,3.2,1,.5,2.9.8,5.8.8s5.5-.4,6.5-1.1c.7-.5,1.1-1.4,1.1-2.7s-.3-2.5-.8-3.1c-.8-.9-2.6-1.3-5.5-1.4-7.6,0-12.7-.6-15.4-1.5-3-1-5-2.7-6.2-5-.9-1.8-1.4-4.4-1.4-7.6,0-5.6,1.6-9.4,4.8-11.3,1.6-.9,3.6-1.6,6.2-2,2.6-.4,6.1-.6,10.7-.6s10.2.4,12.7,1.3c3.6,1.3,5.9,3.6,6.7,7.1.3,1.1.4,2.7.4,4.8"/>
        <path class="cls-2" d="M258.6,75.5h14.2c0,.4,0,.7,0,.9,0,3.9-.9,7-2.6,9.3-1.6,2.2-3.9,3.6-7.1,4.4-2.3.6-5.9.8-10.8.8s-11.4-.7-14.4-2.2c-4.1-1.9-6.6-5.4-7.5-10.4-.4-2.4-.7-6.3-.7-11.4s.6-10.8,1.8-13.5c1.7-3.8,5-6.3,10-7.4,2.5-.6,5.8-.9,10.1-.9s10.1.7,13,2c4,1.8,6.6,5.4,7.6,10.6.4,2,.6,4.7.6,8.1s0,2.6,0,4.7h-28.7c0,.8,0,1.4,0,1.7,0,3.3.5,5.5,1.4,6.6,1.1,1.3,3.1,1.9,6.2,1.9s5.1-.6,6-1.7c.6-.8.9-1.9.9-3.6M258.8,62.5c0-.7,0-1.2,0-1.4,0-2-.4-3.4-1.2-4.2-.7-.7-1.6-1.1-2.7-1.2-.9,0-2.2-.1-3.7-.1s-3.5.2-4.3.6c-1.4.6-2.2,1.9-2.4,3.8,0,.3,0,1.2,0,2.6h14.5Z"/>
        <rect class="cls-1" x="280.7" y="26.5" width="14.6" height="64"/>
        <path class="cls-1" d="M344.8,58.4h-13.9v-.7c-.5-1.3-1-2.2-1.8-2.5-.8-.4-2.6-.7-5.2-.7s-4.5.2-5.3.7c-.9.5-1.4,1.6-1.4,3.1s.8,3.1,2.3,3.4c.5.1,3.5.3,8.9.6,4.8.2,8.1.6,9.8,1,3.3.8,5.5,2.4,6.8,4.6,1.1,1.9,1.6,4.4,1.6,7.5,0,5.2-1.5,9-4.5,11.5-2,1.6-4.3,2.7-6.8,3.1-3.2.6-6.9.8-11.3.8-6.4,0-11-.5-13.8-1.5-3.9-1.4-6.2-4.1-7-8.1-.2-1.1-.3-2.8-.4-4.9h14.9c0,.4,0,.7,0,.9,0,1.6.4,2.7,1.3,3.2,1,.5,2.9.8,5.8.8s5.5-.4,6.5-1.1c.7-.5,1.1-1.4,1.1-2.7s-.3-2.5-.8-3.1c-.8-.9-2.6-1.3-5.5-1.4-7.6,0-12.7-.6-15.4-1.5-3-1-5-2.7-6.2-5-.9-1.8-1.4-4.4-1.4-7.6,0-5.6,1.6-9.4,4.8-11.3,1.6-.9,3.6-1.6,6.2-2,2.6-.4,6.1-.6,10.7-.6s10.2.4,12.7,1.3c3.6,1.3,5.9,3.6,6.7,7.1.3,1.1.4,2.7.4,4.8"/>
        <path class="cls-2" d="M369.3,59h-14.8c0-2.7.2-4.8.6-6.2.4-1.4,1.1-2.6,2.1-3.7,1.8-1.9,4.6-3.1,8.5-3.6,1.8-.3,4.8-.4,9-.4,7.3,0,12.3.8,15.2,2.3,3.5,1.8,5.5,4.9,6,9,.3,2.2.4,3.9.4,5v29h-14.6l.5-7.3h-.4c-.9,2.6-2.2,4.4-3.8,5.6-1.3.9-2.7,1.5-4.1,1.7-1.6.2-3.5.4-5.6.4-3.2,0-5.7-.3-7.6-.8-1.9-.5-3.5-1.4-4.8-2.6-2.2-2.1-3.3-5.8-3.3-10.9s1.1-7.9,3.2-9.9c2.7-2.5,7-3.7,12.8-3.7s7.7.5,9.6,1.4c1.3.7,2.4,2.1,3.2,4.2h.2v-8.8c0-1.9-.4-3.3-1.2-4.1-1.1-1.1-3-1.7-5.7-1.7s-4.3.6-5,1.8c-.3.6-.5,1.6-.6,3.1M374.2,72c-2.4,0-4.2.4-5.3,1.1-1,.6-1.5,1.8-1.5,3.5s.6,3.5,1.8,4.1c1.1.5,3.2.7,6.3.7s4.1-.4,5-1.1c.8-.7,1.3-2.1,1.3-4s-.3-2.4-.9-2.9c-1.1-.9-3.3-1.4-6.7-1.4"/>
        <path class="cls-1" d="M405.8,45.7h14.6l-.6,8.8h.2c1-2.9,2.2-5,3.7-6.4,2.1-1.9,5.2-2.9,9.4-2.9,7,0,11.7,2,13.9,6,1.1,1.9,1.6,4.4,1.6,7.7v31.7h-14.6v-25.6c0-2.9-.2-4.9-.7-5.8-.7-1.6-2.4-2.4-4.9-2.4-5.3,0-8,2.5-8,7.6v26.3h-14.6v-44.8Z"/>
        <path class="cls-1" d="M112.5,86.4c2-2.5,2.7-5.7,2-8.8l-9-39.2c-.7-3.1-2.8-5.7-5.6-7.1l-31.9-15.4,4.8,12.3,23.2,11.2c.4.2.6.5.7.9l9,39.2c0,.4,0,.8-.3,1.2l-8.6,10.7c2.6,1.5,5.1,3.2,7.5,5.1l8.1-10.2Z"/>
        <path class="cls-1" d="M50.4,15.9l-32.1,15.4c-2.9,1.4-4.9,3.9-5.6,7.1L3.8,77.6c-.7,3.1,0,6.3,2,8.8l8.1,10.2c2.4-1.8,4.9-3.5,7.5-5.1l-8.6-10.7c-.3-.3-.4-.7-.3-1.2l9-39.2c0-.4.4-.7.7-.9l23.3-11.2,4.8-12.3Z"/>
        <path class="cls-1" d="M17.7,101.3c3,3.8,8.3,4.9,12.5,2.5,8.6-4.8,18.4-7.6,28.9-7.6s20.4,2.7,28.9,7.6c4.2,2.4,9.5,1.3,12.5-2.5-11.5-8.8-25.9-14.1-41.5-14.1s-30,5.2-41.5,14.1"/>
        <path class="cls-1" d="M51.6,81.6l7.7-43.1,7.7,43.1c8.9.9,15.8,2.7,23.5,6.5L62.1,14.8s0,0,0,0c-1.1-2.6-4.7-2.6-5.8,0,0,0,0,0,0,0l-28.2,73.2c7.7-3.8,14.6-5.5,23.5-6.4"/>
      </g>
    </g>
  </g>
</svg>