<svg xmlns="http://www.w3.org/2000/svg" width="144" height="64" viewBox="0 0 108 48"><defs><clipPath id="a"><path d="M10.73 13h86.692v21H10.73Zm0 0"/></clipPath></defs><g clip-path="url(#a)"><path fill="#231f20" d="M41.73 24.574h-9.82c.453 1.848 1.945 3.242 3.89 3.242 1.095 0 2.173-.468 2.891-1.285l2.375.055c-1.046 1.992-3.039 3.27-5.351 3.27-3.375 0-6.031-2.942-6.031-6.262 0-3.434 2.609-6.246 6.078-6.246 3.36 0 6.039 2.773 6.039 6.12-.008.36-.031.75-.07 1.106m-6-5.195c-1.921 0-3.703 1.52-3.828 3.476h7.657c-.118-1.94-1.891-3.476-3.829-3.476m15.833 10.18v-6.461c0-2.012-.602-3.711-2.961-3.711-2.18 0-3.125 1.691-3.125 3.695v6.484h-2.22V17.668h2.079v1.262h.039c.86-1.137 2.102-1.59 3.469-1.59 1.687 0 3.273.664 4.195 2.125.57.898.75 1.988.75 3.047v7.047Zm14.05 0v-1.696h-.039c-.984 1.38-2.547 1.992-4.195 1.992-3.555 0-6.16-2.656-6.16-6.199 0-3.566 2.566-6.316 6.16-6.316 1.492 0 3.078.57 4.023 1.777h.04v-5.445h2.218v15.887Zm-4.11-10.18c-2.35 0-4.062 1.926-4.062 4.254 0 2.226 1.782 4.191 4.047 4.191 2.313 0 4.125-1.887 4.125-4.191 0-2.383-1.687-4.254-4.11-4.254M74.103 33.53h-2.305l1.726-4.21-4.722-11.653h2.394l3.493 9.23 3.57-9.23h2.398Zm12.878-3.676c-3.488 0-6.394-2.812-6.394-6.332 0-3.503 2.977-6.183 6.394-6.183 3.47 0 6.399 2.703 6.399 6.223 0 3.39-2.805 6.292-6.399 6.292m0-10.476c-2.312 0-4.175 1.887-4.175 4.207s1.855 4.23 4.175 4.23c2.336 0 4.18-1.925 4.18-4.246-.008-2.32-1.875-4.191-4.18-4.191m8.211 10.18V13.672h2.23v15.887Zm-82.257-2.344c.093.375.218.687.359.922.14.238.328.441.539.636.703.618 1.594.934 2.645.934a5.95 5.95 0 0 0 2.914-.754v-2.14c-.922.542-1.805.824-2.633.824-1.125 0-1.707-.692-1.707-2.055v-5.82h3.73v-2.063h-3.707v-3.816h-2.203v3.808h-2.14v2.063h2.046v5.281q.002 1.61.157 2.18M26.39 19.66c.687 0 1.445.375 2.25 1.137l1.207-2.016c-.98-.902-2.168-1.316-2.864-1.316h-.156c-.797 0-2.133 0-3.21 1.762l-.04.07.008-1.598H21.28v11.785h2.305v-6.156c0-.988.273-1.851.828-2.578.555-.723 1.219-1.09 1.977-1.09m0 0"/></g></svg>