<svg xmlns="http://www.w3.org/2000/svg" width="144" height="64" viewBox="0 0 108 48"><defs><clipPath id="a"><path d="M1.102 0h105.796v47.02H1.102Zm0 0"/></clipPath></defs><g fill="#fff" clip-path="url(#a)"><path d="M1.102 0h105.796v47.02H1.102Zm0 0"/><path d="M1.102 0h105.796v47.02H1.102Zm0 0"/></g><path fill="#cedc00" d="m88 14.54-3.645 2.1 1.825 1.051 1.82-1.05Zm0 0-3.645-2.106L88 10.332Zm0 0"/><path fill="#0082ca" d="m88 14.54-3.645 2.1-3.64-2.1 3.64-2.106Zm0 0"/><path fill="#e63323" d="m102.578 10.332-3.644-2.105v4.207Zm0 0"/><path fill="#08bec9" d="m79.09 35.477-7.574-4.372v8.739Zm1.62-16.73 3.645-2.106-3.644-2.102Zm0-8.415v4.207l3.645-2.105ZM88 27.156v-6.308l3.648 2.101v-8.41L88 16.641v-6.309l14.578 8.414Zm0 0"/><path fill="#002855" d="M61.203 32.887V29.32l3.094 1.785Zm14.098-14.14v-4.208l3.648 2.102Zm-59.457.737h1.62v1.274h-1.62Zm-2.64 0h1.62v1.274h-1.62Zm3.608 7.668-.242-.757c-.054.109-.492.863-1.66.863-1.05 0-2.297-.567-2.297-2.371v-3.172h1.633v3.183c0 .809.438 1.168 1.004 1.168.746 0 1.203-.59 1.203-1.378v-2.973h1.602v5.437Zm-4.69-8.406v1.406h-2.118v7.004H8.32v-7.004H6.2v-1.406Zm9.3 2.164-.008.918c.387-.793.977-.98 2.082-.98v1.586h-.203c-1.059 0-1.816.53-1.816 1.875v2.847h-1.622V20.91Zm18.746-2.164v1.406h-2.117v7.004h-1.684v-7.004h-2.12v-1.406Zm26.64 7.293a2.015 2.015 0 1 1 .007-4.03 2.015 2.015 0 0 1-.006 4.03m0-5.562a3.546 3.546 0 0 0-3.543 3.546 3.546 3.546 0 1 0 7.093 0 3.55 3.55 0 0 0-3.55-3.546m5.933.433.266.828c.262-.543 1.02-.949 1.73-.949.73 0 1.43.434 1.719 1.117.313-.613.984-1.117 2.02-1.117 1.285 0 2.234.793 2.234 2.606v3.761H79.09V23.29c0-.637-.254-1.191-1.012-1.191-.8 0-1.152.636-1.152 1.453v3.605h-1.621v-3.953c0-.55-.266-1.105-1-1.105-.805 0-1.168.636-1.168 1.441v3.617h-1.621V20.91Zm-13.64-2.433.003 5.183 2.086-2.75h1.934l-2.477 2.93 2.372 3.316h-1.817l-1.492-2.176-.602.676v1.5h-1.62v-7.77Zm-32.735 0 .004 5.183 2.086-2.75h1.934l-2.477 2.93 2.371 3.316H28.47l-1.492-2.176-.602.676v1.5h-1.621v-7.77Zm27.02 2.312c1.828 0 2.922 1.211 2.922 3.102 0 .347-.036.636-.036.636h-4.425c.07.985.937 1.43 1.816 1.43.574 0 1.332-.156 1.79-.398l.554 1.18c-.672.359-1.625.538-2.38.538-2.128 0-3.487-1.308-3.487-3.218 0-1.926 1.32-3.27 3.246-3.27m1.36 2.656c-.013-.722-.423-1.347-1.267-1.347-.886 0-1.488.445-1.656 1.347Zm-6.278-4.965v6.985c0 .348.203.504.566.504.082 0 .262-.024.383-.051v1.238a6 6 0 0 1-1.105.121c-.758 0-1.465-.285-1.465-1.707v-6.183Zm-5.782 2.31c1.829 0 2.922 1.21 2.922 3.1 0 .348-.039.637-.039.637h-4.422c.07.985.938 1.43 1.817 1.43.574 0 1.332-.156 1.789-.398l.555 1.18c-.676.359-1.625.538-2.383.538-2.125 0-3.485-1.308-3.485-3.218 0-1.926 1.32-3.27 3.246-3.27m1.36 2.656c-.012-.722-.422-1.347-1.266-1.347-.886 0-1.488.445-1.656 1.347Zm0 0"/><path fill="#0082ca" d="M91.645 14.54 88 16.64v4.208l3.645 2.105Zm0 0"/><path fill="#002855" d="M84.355 18.746 88 20.848V16.64Zm0 0"/></svg>