<svg xmlns="http://www.w3.org/2000/svg" xmlns:xlink="http://www.w3.org/1999/xlink" width="144" zoomAndPan="magnify" viewBox="0 0 108 48" height="64" preserveAspectRatio="xMidYMid meet" version="1.0"><defs><clipPath id="71f03237f1"><path d="M 1.101562 0 L 106.898438 0 L 106.898438 47.019531 L 1.101562 47.019531 Z M 1.101562 0 " clip-rule="nonzero"/></clipPath><clipPath id="d4e464ddcd"><path d="M 4.453125 4.394531 L 103.515625 4.394531 L 103.515625 42.578125 L 4.453125 42.578125 Z M 4.453125 4.394531 " clip-rule="nonzero"/></clipPath><clipPath id="08794bfbdb"><path d="M 85.558594 14.398438 L 95.476562 14.398438 L 95.476562 42.578125 L 85.558594 42.578125 Z M 85.558594 14.398438 " clip-rule="nonzero"/></clipPath><clipPath id="65c5457178"><path d="M 74.8125 4.394531 L 103 4.394531 L 103 16.878906 L 74.8125 16.878906 Z M 74.8125 4.394531 " clip-rule="nonzero"/></clipPath><clipPath id="c1c82c3a8c"><path d="M 4.394531 19 L 11 19 L 11 27 L 4.394531 27 Z M 4.394531 19 " clip-rule="nonzero"/></clipPath></defs><g clip-path="url(#71f03237f1)"><path fill="#ffffff" d="M 1.101562 0 L 106.898438 0 L 106.898438 47.019531 L 1.101562 47.019531 Z M 1.101562 0 " fill-opacity="1" fill-rule="nonzero"/><path fill="#ffffff" d="M 1.101562 0 L 106.898438 0 L 106.898438 47.019531 L 1.101562 47.019531 Z M 1.101562 0 " fill-opacity="1" fill-rule="nonzero"/></g><g clip-path="url(#d4e464ddcd)"><path fill="#ffffff" d="M 4.453125 4.394531 L 103.515625 4.394531 L 103.515625 42.578125 L 4.453125 42.578125 Z M 4.453125 4.394531 " fill-opacity="1" fill-rule="nonzero"/></g><g clip-path="url(#08794bfbdb)"><path fill="#ed3435" d="M 86.042969 21.054688 L 95.328125 14.5625 L 91.714844 25.203125 L 90.699219 28.339844 L 89.402344 31.886719 L 85.695312 42.53125 " fill-opacity="1" fill-rule="nonzero"/></g><g clip-path="url(#65c5457178)"><path fill="#294099" d="M 85.410156 16.808594 L 74.828125 13.136719 L 85.539062 9.746094 L 88.640625 8.734375 L 92.253906 7.6875 L 102.992188 4.394531 " fill-opacity="1" fill-rule="nonzero"/></g><g clip-path="url(#c1c82c3a8c)"><path fill="#888d92" d="M 10.265625 19.789062 L 10.046875 21.023438 C 10.03125 21.074219 10.003906 21.117188 9.964844 21.148438 C 9.925781 21.183594 9.878906 21.203125 9.828125 21.210938 L 8.402344 21.210938 L 7.449219 26.535156 C 7.433594 26.585938 7.40625 26.628906 7.367188 26.660156 C 7.328125 26.695312 7.28125 26.71875 7.230469 26.726562 L 5.675781 26.726562 C 5.65625 26.726562 5.632812 26.722656 5.613281 26.714844 C 5.59375 26.707031 5.578125 26.695312 5.5625 26.679688 C 5.546875 26.664062 5.535156 26.648438 5.527344 26.628906 C 5.519531 26.609375 5.515625 26.585938 5.519531 26.566406 L 5.519531 26.535156 L 6.46875 21.210938 L 5.011719 21.210938 C 4.988281 21.214844 4.96875 21.210938 4.949219 21.203125 C 4.929688 21.195312 4.910156 21.183594 4.898438 21.167969 C 4.882812 21.15625 4.871094 21.136719 4.863281 21.117188 C 4.855469 21.097656 4.851562 21.078125 4.851562 21.054688 L 4.851562 21.023438 L 5.074219 19.789062 C 5.089844 19.738281 5.117188 19.695312 5.15625 19.660156 C 5.199219 19.625 5.242188 19.605469 5.296875 19.597656 L 10.113281 19.597656 C 10.132812 19.601562 10.15625 19.605469 10.175781 19.617188 C 10.195312 19.628906 10.214844 19.644531 10.230469 19.660156 C 10.246094 19.679688 10.253906 19.699219 10.261719 19.71875 C 10.269531 19.742188 10.273438 19.765625 10.269531 19.789062 Z M 10.265625 19.789062 " fill-opacity="1" fill-rule="nonzero"/></g><path fill="#888d92" d="M 16.886719 19.789062 L 16.160156 24 C 15.78125 26.21875 14.671875 26.789062 12.769531 26.789062 C 11.660156 26.789062 10.332031 26.15625 10.332031 24.507812 C 10.335938 24.304688 10.359375 24.105469 10.394531 23.90625 L 11.121094 19.789062 C 11.140625 19.734375 11.171875 19.6875 11.21875 19.652344 C 11.265625 19.617188 11.316406 19.601562 11.375 19.597656 L 12.929688 19.597656 C 12.949219 19.597656 12.96875 19.601562 12.992188 19.609375 C 13.011719 19.617188 13.027344 19.628906 13.042969 19.644531 C 13.058594 19.65625 13.070312 19.675781 13.078125 19.695312 C 13.085938 19.714844 13.089844 19.734375 13.085938 19.757812 L 13.085938 19.789062 L 12.359375 24.003906 C 12.332031 24.148438 12.320312 24.296875 12.328125 24.445312 C 12.328125 24.953125 12.582031 25.144531 13.117188 25.144531 C 13.785156 25.144531 14.132812 24.859375 14.289062 24.003906 L 15.019531 19.789062 C 15.035156 19.738281 15.0625 19.695312 15.101562 19.664062 C 15.140625 19.628906 15.1875 19.609375 15.238281 19.601562 L 16.792969 19.601562 C 16.824219 19.601562 16.886719 19.695312 16.886719 19.789062 Z M 13.972656 17.949219 L 13.816406 18.898438 C 13.796875 18.953125 13.761719 18.996094 13.714844 19.03125 C 13.671875 19.0625 13.621094 19.082031 13.5625 19.089844 L 12.457031 19.089844 C 12.433594 19.09375 12.410156 19.089844 12.390625 19.082031 C 12.367188 19.074219 12.347656 19.0625 12.328125 19.050781 C 12.3125 19.035156 12.296875 19.015625 12.285156 18.996094 C 12.273438 18.976562 12.269531 18.953125 12.265625 18.933594 L 12.265625 18.898438 L 12.425781 17.949219 C 12.445312 17.898438 12.480469 17.855469 12.527344 17.820312 C 12.570312 17.789062 12.621094 17.765625 12.679688 17.761719 L 13.785156 17.761719 C 13.8125 17.757812 13.835938 17.761719 13.863281 17.769531 C 13.886719 17.777344 13.910156 17.789062 13.925781 17.808594 C 13.945312 17.828125 13.960938 17.851562 13.96875 17.875 C 13.976562 17.898438 13.980469 17.925781 13.976562 17.949219 Z M 16.222656 17.949219 L 16.066406 18.898438 C 16.042969 18.953125 16.011719 18.996094 15.964844 19.03125 C 15.921875 19.0625 15.871094 19.082031 15.8125 19.089844 L 14.703125 19.089844 C 14.683594 19.089844 14.664062 19.089844 14.644531 19.082031 C 14.621094 19.074219 14.605469 19.0625 14.589844 19.046875 C 14.574219 19.03125 14.5625 19.015625 14.554688 18.992188 C 14.546875 18.972656 14.546875 18.953125 14.546875 18.933594 L 14.546875 18.898438 L 14.703125 17.949219 C 14.726562 17.898438 14.761719 17.855469 14.804688 17.820312 C 14.851562 17.789062 14.902344 17.765625 14.957031 17.761719 L 16.066406 17.761719 C 16.113281 17.765625 16.152344 17.785156 16.183594 17.824219 C 16.214844 17.859375 16.230469 17.902344 16.226562 17.949219 Z M 16.222656 17.949219 " fill-opacity="1" fill-rule="nonzero"/><path fill="#888d92" d="M 21.832031 23.84375 L 22.75 26.4375 L 22.75 26.503906 C 22.753906 26.527344 22.75 26.554688 22.738281 26.578125 C 22.730469 26.601562 22.714844 26.621094 22.699219 26.640625 C 22.679688 26.65625 22.660156 26.671875 22.636719 26.679688 C 22.609375 26.691406 22.585938 26.695312 22.5625 26.691406 L 20.882812 26.691406 C 20.785156 26.691406 20.753906 26.597656 20.722656 26.503906 L 19.929688 24.191406 C 19.71875 24.195312 19.507812 24.183594 19.296875 24.160156 L 18.886719 26.503906 C 18.871094 26.554688 18.84375 26.59375 18.800781 26.628906 C 18.761719 26.664062 18.71875 26.683594 18.664062 26.691406 L 17.113281 26.691406 C 17.089844 26.695312 17.070312 26.691406 17.050781 26.683594 C 17.03125 26.675781 17.011719 26.664062 16.996094 26.648438 C 16.980469 26.632812 16.972656 26.617188 16.964844 26.597656 C 16.957031 26.574219 16.953125 26.554688 16.953125 26.535156 L 16.953125 26.503906 L 18.0625 20.261719 C 18.125 19.820312 18.316406 19.691406 18.726562 19.628906 C 19.390625 19.539062 20.054688 19.496094 20.722656 19.5 C 22.242188 19.5 23.382812 20.039062 23.382812 21.371094 C 23.390625 21.5 23.390625 21.628906 23.378906 21.757812 C 23.367188 21.890625 23.34375 22.015625 23.3125 22.144531 C 23.28125 22.269531 23.238281 22.390625 23.1875 22.511719 C 23.136719 22.632812 23.074219 22.746094 23.003906 22.855469 C 22.9375 22.964844 22.859375 23.070312 22.773438 23.167969 C 22.6875 23.265625 22.59375 23.359375 22.496094 23.441406 C 22.394531 23.523438 22.289062 23.601562 22.179688 23.667969 C 22.066406 23.734375 21.953125 23.792969 21.832031 23.839844 M 20.566406 21.148438 C 20.3125 21.144531 20.058594 21.152344 19.804688 21.183594 L 19.550781 22.703125 L 20.25 22.703125 C 21.007812 22.703125 21.421875 22.417969 21.421875 21.65625 C 21.421875 21.308594 21.167969 21.152344 20.566406 21.152344 " fill-opacity="1" fill-rule="nonzero"/><path fill="#888d92" d="M 30.828125 19.820312 L 28.136719 23.144531 L 29.625 26.503906 C 29.628906 26.527344 29.640625 26.550781 29.65625 26.566406 C 29.652344 26.605469 29.632812 26.636719 29.605469 26.660156 C 29.574219 26.6875 29.539062 26.695312 29.5 26.691406 L 27.597656 26.691406 C 27.472656 26.691406 27.4375 26.628906 27.4375 26.535156 L 26.234375 23.429688 L 25.695312 26.535156 C 25.679688 26.585938 25.652344 26.628906 25.613281 26.660156 C 25.574219 26.695312 25.527344 26.71875 25.476562 26.726562 L 23.921875 26.726562 C 23.902344 26.726562 23.882812 26.722656 23.859375 26.714844 C 23.839844 26.707031 23.824219 26.695312 23.808594 26.679688 C 23.792969 26.664062 23.78125 26.648438 23.773438 26.628906 C 23.765625 26.609375 23.761719 26.585938 23.765625 26.566406 L 23.765625 26.535156 L 24.9375 19.820312 C 24.953125 19.769531 24.980469 19.726562 25.019531 19.691406 C 25.058594 19.65625 25.105469 19.636719 25.15625 19.628906 L 26.710938 19.628906 C 26.730469 19.628906 26.753906 19.632812 26.773438 19.640625 C 26.792969 19.648438 26.808594 19.65625 26.824219 19.671875 C 26.839844 19.6875 26.851562 19.707031 26.859375 19.726562 C 26.867188 19.746094 26.871094 19.765625 26.867188 19.789062 L 26.867188 19.820312 L 26.328125 22.765625 L 28.640625 19.757812 C 28.667969 19.707031 28.699219 19.671875 28.746094 19.640625 C 28.792969 19.613281 28.839844 19.597656 28.894531 19.597656 L 30.796875 19.597656 C 30.859375 19.597656 30.921875 19.628906 30.921875 19.691406 C 30.890625 19.726562 30.859375 19.789062 30.828125 19.820312 " fill-opacity="1" fill-rule="nonzero"/><path fill="#888d92" d="M 37.640625 19.789062 L 36.46875 26.503906 C 36.453125 26.554688 36.425781 26.597656 36.382812 26.628906 C 36.34375 26.664062 36.296875 26.6875 36.246094 26.691406 L 34.695312 26.691406 C 34.671875 26.695312 34.652344 26.691406 34.632812 26.683594 C 34.613281 26.675781 34.59375 26.664062 34.578125 26.648438 C 34.5625 26.632812 34.550781 26.617188 34.542969 26.597656 C 34.539062 26.578125 34.535156 26.554688 34.535156 26.535156 L 34.535156 26.503906 L 34.980469 23.90625 L 32.984375 23.90625 L 32.539062 26.503906 C 32.523438 26.554688 32.496094 26.59375 32.457031 26.628906 C 32.417969 26.664062 32.371094 26.683594 32.320312 26.691406 L 30.765625 26.691406 C 30.746094 26.695312 30.722656 26.691406 30.703125 26.683594 C 30.683594 26.675781 30.664062 26.664062 30.652344 26.648438 C 30.636719 26.632812 30.625 26.617188 30.617188 26.597656 C 30.609375 26.574219 30.605469 26.554688 30.605469 26.535156 L 30.605469 26.503906 L 31.777344 19.785156 C 31.792969 19.738281 31.824219 19.695312 31.863281 19.660156 C 31.902344 19.625 31.949219 19.605469 32 19.597656 L 33.554688 19.597656 C 33.574219 19.597656 33.59375 19.601562 33.613281 19.605469 C 33.636719 19.613281 33.652344 19.625 33.667969 19.640625 C 33.683594 19.65625 33.695312 19.675781 33.703125 19.695312 C 33.710938 19.714844 33.710938 19.734375 33.710938 19.757812 L 33.710938 19.789062 L 33.269531 22.226562 L 35.261719 22.226562 L 35.707031 19.789062 C 35.722656 19.738281 35.75 19.695312 35.789062 19.660156 C 35.828125 19.625 35.875 19.605469 35.929688 19.597656 L 37.480469 19.597656 C 37.578125 19.597656 37.640625 19.660156 37.640625 19.789062 Z M 37.640625 19.789062 " fill-opacity="1" fill-rule="nonzero"/><path fill="#888d92" d="M 43.308594 26.691406 L 41.695312 26.691406 C 41.671875 26.691406 41.652344 26.683594 41.628906 26.671875 C 41.609375 26.660156 41.589844 26.648438 41.578125 26.628906 C 41.5625 26.613281 41.550781 26.59375 41.542969 26.570312 C 41.539062 26.546875 41.535156 26.527344 41.535156 26.503906 L 41.503906 25.171875 L 39.792969 25.171875 L 39.289062 26.503906 C 39.273438 26.554688 39.246094 26.59375 39.203125 26.628906 C 39.164062 26.664062 39.117188 26.683594 39.066406 26.691406 L 37.355469 26.691406 C 37.339844 26.695312 37.320312 26.691406 37.304688 26.6875 C 37.289062 26.679688 37.273438 26.671875 37.261719 26.660156 C 37.25 26.648438 37.242188 26.632812 37.234375 26.617188 C 37.230469 26.601562 37.226562 26.582031 37.230469 26.566406 C 37.230469 26.535156 37.230469 26.503906 37.261719 26.503906 L 39.574219 20.675781 C 39.953125 19.722656 40.710938 19.535156 41.597656 19.535156 C 42.519531 19.535156 43.183594 19.722656 43.246094 20.675781 L 43.5 26.503906 C 43.5 26.527344 43.496094 26.550781 43.488281 26.574219 C 43.480469 26.601562 43.464844 26.621094 43.449219 26.640625 C 43.429688 26.65625 43.410156 26.671875 43.386719 26.679688 C 43.359375 26.6875 43.335938 26.691406 43.3125 26.691406 M 41.441406 21.242188 C 41.441406 21.148438 41.441406 21.117188 41.347656 21.117188 C 41.25 21.117188 41.25 21.179688 41.21875 21.242188 L 40.332031 23.652344 L 41.472656 23.652344 Z M 41.441406 21.242188 " fill-opacity="1" fill-rule="nonzero"/><path fill="#888d92" d="M 51.136719 19.789062 L 48.820312 25.648438 C 48.441406 26.597656 47.683594 26.789062 46.761719 26.789062 C 45.84375 26.789062 45.179688 26.597656 45.148438 25.648438 L 44.894531 19.820312 C 44.898438 19.769531 44.917969 19.726562 44.953125 19.6875 C 44.988281 19.652344 45.03125 19.632812 45.082031 19.628906 L 46.699219 19.628906 C 46.722656 19.632812 46.742188 19.636719 46.765625 19.648438 C 46.785156 19.660156 46.800781 19.675781 46.816406 19.691406 C 46.832031 19.710938 46.84375 19.730469 46.847656 19.75 C 46.855469 19.773438 46.859375 19.796875 46.859375 19.820312 L 46.921875 25.078125 C 46.921875 25.171875 46.921875 25.203125 47.015625 25.203125 C 47.078125 25.203125 47.109375 25.140625 47.140625 25.078125 L 49.074219 19.820312 C 49.089844 19.769531 49.117188 19.726562 49.15625 19.691406 C 49.199219 19.65625 49.246094 19.636719 49.296875 19.628906 L 51.007812 19.628906 C 51.070312 19.628906 51.132812 19.660156 51.132812 19.722656 L 51.132812 19.789062 " fill-opacity="1" fill-rule="nonzero"/><path fill="#888d92" d="M 56.234375 26.691406 L 54.621094 26.691406 C 54.597656 26.691406 54.574219 26.683594 54.554688 26.671875 C 54.535156 26.660156 54.515625 26.648438 54.5 26.628906 C 54.488281 26.613281 54.476562 26.59375 54.46875 26.570312 C 54.460938 26.546875 54.460938 26.527344 54.460938 26.503906 L 54.429688 25.171875 L 52.71875 25.171875 L 52.210938 26.503906 C 52.195312 26.554688 52.167969 26.59375 52.128906 26.628906 C 52.089844 26.664062 52.042969 26.683594 51.992188 26.691406 L 50.3125 26.691406 C 50.292969 26.695312 50.277344 26.691406 50.261719 26.6875 C 50.246094 26.679688 50.230469 26.671875 50.21875 26.660156 C 50.203125 26.648438 50.195312 26.632812 50.191406 26.617188 C 50.183594 26.601562 50.183594 26.582031 50.183594 26.566406 C 50.183594 26.535156 50.183594 26.503906 50.214844 26.503906 L 52.527344 20.675781 C 52.910156 19.722656 53.667969 19.535156 54.554688 19.535156 C 55.476562 19.535156 56.140625 19.722656 56.203125 20.675781 L 56.457031 26.503906 C 56.394531 26.597656 56.332031 26.691406 56.234375 26.691406 M 54.367188 21.242188 C 54.367188 21.148438 54.367188 21.117188 54.269531 21.117188 C 54.175781 21.117188 54.175781 21.179688 54.144531 21.242188 L 53.257812 23.652344 L 54.398438 23.652344 Z M 54.367188 21.242188 " fill-opacity="1" fill-rule="nonzero"/><path fill="#888d92" d="M 62.699219 19.914062 L 62.476562 21.148438 C 62.445312 21.277344 62.382812 21.339844 62.285156 21.339844 L 62.253906 21.339844 C 61.875 21.308594 61.460938 21.242188 60.921875 21.242188 C 60.417969 21.242188 59.910156 21.433594 59.6875 22.667969 L 59.5 23.652344 C 59.464844 23.839844 59.445312 24.03125 59.4375 24.21875 C 59.4375 24.949219 59.816406 25.074219 60.226562 25.074219 C 60.765625 25.074219 61.175781 25.011719 61.589844 24.980469 L 61.621094 24.980469 C 61.714844 24.980469 61.78125 25.011719 61.78125 25.105469 L 61.78125 25.171875 L 61.558594 26.40625 C 61.527344 26.53125 61.496094 26.5625 61.304688 26.628906 C 60.859375 26.75 60.402344 26.800781 59.941406 26.785156 C 58.515625 26.785156 57.441406 25.992188 57.441406 24.410156 C 57.445312 24.15625 57.464844 23.902344 57.503906 23.648438 L 57.691406 22.667969 C 58.136719 20.261719 59.371094 19.53125 61.175781 19.53125 C 61.632812 19.523438 62.074219 19.585938 62.507812 19.722656 C 62.601562 19.753906 62.699219 19.785156 62.699219 19.882812 Z M 62.699219 19.914062 " fill-opacity="1" fill-rule="nonzero"/><path fill="#888d92" d="M 65.671875 19.789062 L 64.5 26.503906 C 64.492188 26.554688 64.464844 26.601562 64.421875 26.636719 C 64.382812 26.671875 64.335938 26.691406 64.28125 26.691406 L 62.695312 26.691406 C 62.570312 26.691406 62.539062 26.597656 62.539062 26.503906 L 63.710938 19.789062 C 63.726562 19.738281 63.753906 19.695312 63.792969 19.660156 C 63.832031 19.625 63.878906 19.605469 63.929688 19.597656 L 65.515625 19.597656 C 65.609375 19.597656 65.671875 19.660156 65.671875 19.789062 " fill-opacity="1" fill-rule="nonzero"/><path fill="#888d92" d="M 70.078125 25.296875 L 69.855469 26.46875 C 69.824219 26.59375 69.761719 26.628906 69.636719 26.660156 C 69.132812 26.738281 68.625 26.78125 68.113281 26.785156 C 67.035156 26.785156 65.960938 26.4375 65.960938 25.136719 C 65.960938 24.980469 65.992188 24.820312 65.992188 24.632812 L 66.847656 19.785156 C 66.863281 19.730469 66.898438 19.6875 66.945312 19.652344 C 66.988281 19.617188 67.042969 19.597656 67.101562 19.597656 L 68.652344 19.597656 C 68.675781 19.597656 68.695312 19.601562 68.714844 19.605469 C 68.734375 19.613281 68.753906 19.625 68.769531 19.640625 C 68.78125 19.65625 68.792969 19.675781 68.800781 19.695312 C 68.808594 19.714844 68.8125 19.734375 68.8125 19.757812 L 68.8125 19.789062 L 67.957031 24.632812 C 67.957031 24.695312 67.925781 24.757812 67.925781 24.824219 C 67.925781 25.042969 68.050781 25.105469 68.304688 25.105469 L 69.855469 25.105469 C 70.015625 25.105469 70.078125 25.203125 70.078125 25.296875 Z M 70.078125 25.296875 " fill-opacity="1" fill-rule="nonzero"/><path fill="#888d92" d="M 73.878906 19.789062 L 72.707031 26.503906 C 72.695312 26.554688 72.667969 26.601562 72.628906 26.636719 C 72.585938 26.671875 72.539062 26.691406 72.484375 26.691406 L 70.902344 26.691406 C 70.773438 26.691406 70.742188 26.597656 70.742188 26.503906 L 71.914062 19.789062 C 71.929688 19.738281 71.957031 19.695312 71.996094 19.660156 C 72.039062 19.625 72.082031 19.605469 72.136719 19.597656 L 73.71875 19.597656 C 73.816406 19.597656 73.878906 19.660156 73.878906 19.789062 " fill-opacity="1" fill-rule="nonzero"/><path fill="#888d92" d="M 81.039062 19.820312 L 78.347656 23.144531 L 79.835938 26.503906 C 79.839844 26.527344 79.847656 26.546875 79.867188 26.566406 C 79.863281 26.605469 79.84375 26.636719 79.8125 26.660156 C 79.78125 26.6875 79.746094 26.695312 79.707031 26.691406 L 77.839844 26.691406 C 77.714844 26.691406 77.679688 26.628906 77.679688 26.535156 L 76.476562 23.429688 L 75.9375 26.535156 C 75.921875 26.585938 75.894531 26.628906 75.855469 26.660156 C 75.816406 26.695312 75.769531 26.714844 75.714844 26.722656 L 74.164062 26.722656 C 74.144531 26.726562 74.121094 26.722656 74.101562 26.714844 C 74.082031 26.707031 74.066406 26.695312 74.050781 26.679688 C 74.035156 26.664062 74.023438 26.648438 74.015625 26.628906 C 74.007812 26.609375 74.003906 26.585938 74.007812 26.566406 L 74.007812 26.535156 L 75.179688 19.820312 C 75.195312 19.769531 75.222656 19.726562 75.261719 19.691406 C 75.300781 19.65625 75.347656 19.636719 75.398438 19.628906 L 76.953125 19.628906 C 76.972656 19.628906 76.992188 19.628906 77.015625 19.636719 C 77.035156 19.644531 77.050781 19.65625 77.066406 19.671875 C 77.082031 19.6875 77.09375 19.703125 77.101562 19.726562 C 77.109375 19.746094 77.113281 19.765625 77.109375 19.785156 L 77.109375 19.820312 L 76.570312 22.796875 L 78.882812 19.789062 C 78.90625 19.738281 78.941406 19.699219 78.988281 19.671875 C 79.035156 19.644531 79.082031 19.628906 79.136719 19.628906 L 81.039062 19.628906 C 81.101562 19.628906 81.164062 19.660156 81.164062 19.722656 C 81.101562 19.722656 81.070312 19.789062 81.039062 19.820312 " fill-opacity="1" fill-rule="nonzero"/><path fill="#888d92" d="M 25.507812 30.082031 C 25.632812 30.082031 25.664062 30.144531 25.664062 30.273438 L 24.90625 34.546875 C 24.523438 36.667969 23.417969 37.238281 21.832031 37.238281 C 20.46875 37.238281 19.582031 36.605469 19.582031 35.242188 C 19.574219 35.007812 19.59375 34.777344 19.648438 34.546875 L 20.40625 30.273438 C 20.421875 30.222656 20.449219 30.179688 20.488281 30.144531 C 20.53125 30.109375 20.578125 30.089844 20.628906 30.082031 L 21.578125 30.082031 C 21.703125 30.082031 21.769531 30.144531 21.738281 30.273438 L 20.945312 34.546875 C 20.894531 34.789062 20.875 35.03125 20.882812 35.273438 C 20.882812 35.910156 21.167969 36.160156 21.988281 36.160156 C 23.035156 36.160156 23.351562 35.6875 23.574219 34.546875 L 24.335938 30.273438 C 24.367188 30.175781 24.398438 30.082031 24.554688 30.082031 Z M 25.507812 30.082031 " fill-opacity="1" fill-rule="nonzero"/><path fill="#888d92" d="M 27.027344 31.222656 C 26.902344 31.222656 26.867188 31.160156 26.867188 31.0625 L 27.027344 30.273438 C 27.039062 30.21875 27.0625 30.175781 27.105469 30.136719 C 27.148438 30.101562 27.195312 30.085938 27.25 30.082031 L 31.082031 30.082031 C 31.398438 30.082031 31.558594 30.207031 31.527344 30.429688 L 31.429688 30.96875 C 31.398438 31.113281 31.335938 31.238281 31.242188 31.347656 L 27.503906 35.816406 C 27.46875 35.851562 27.449219 35.894531 27.4375 35.941406 C 27.441406 35.957031 27.445312 35.972656 27.460938 35.984375 C 27.472656 35.996094 27.484375 36.003906 27.503906 36.003906 L 30.417969 36.003906 C 30.4375 36.003906 30.460938 36.007812 30.480469 36.015625 C 30.5 36.023438 30.515625 36.035156 30.53125 36.046875 C 30.546875 36.0625 30.558594 36.082031 30.566406 36.101562 C 30.574219 36.121094 30.578125 36.140625 30.574219 36.164062 L 30.449219 36.957031 C 30.417969 37.082031 30.386719 37.144531 30.230469 37.144531 L 26.011719 37.144531 C 25.695312 37.144531 25.570312 37.050781 25.601562 36.796875 L 25.699219 36.257812 C 25.722656 36.121094 25.785156 36.003906 25.886719 35.910156 L 29.6875 31.382812 C 29.714844 31.355469 29.726562 31.324219 29.71875 31.285156 C 29.71875 31.253906 29.6875 31.222656 29.625 31.222656 Z M 27.027344 31.222656 " fill-opacity="1" fill-rule="nonzero"/><path fill="#888d92" d="M 36.65625 37.175781 L 35.675781 37.175781 C 35.550781 37.175781 35.515625 37.113281 35.515625 37.019531 L 35.390625 35.214844 L 33.203125 35.214844 L 32.445312 37.019531 C 32.429688 37.070312 32.402344 37.109375 32.363281 37.140625 C 32.320312 37.167969 32.273438 37.183594 32.222656 37.175781 L 31.175781 37.175781 C 31.136719 37.179688 31.101562 37.171875 31.070312 37.148438 C 31.042969 37.121094 31.023438 37.089844 31.019531 37.050781 C 31.015625 37.015625 31.023438 36.984375 31.050781 36.957031 L 33.679688 30.972656 C 33.707031 30.894531 33.738281 30.820312 33.773438 30.75 C 33.8125 30.679688 33.855469 30.609375 33.902344 30.546875 C 33.953125 30.484375 34.003906 30.425781 34.0625 30.367188 C 34.121094 30.3125 34.1875 30.265625 34.253906 30.21875 C 34.320312 30.175781 34.390625 30.136719 34.464844 30.105469 C 34.539062 30.070312 34.613281 30.046875 34.691406 30.027344 C 34.769531 30.007812 34.847656 29.992188 34.929688 29.988281 C 35.007812 29.980469 35.089844 29.980469 35.167969 29.988281 C 35.238281 29.976562 35.3125 29.976562 35.382812 29.984375 C 35.453125 29.988281 35.523438 30.003906 35.59375 30.023438 C 35.660156 30.042969 35.726562 30.070312 35.789062 30.105469 C 35.855469 30.136719 35.914062 30.179688 35.96875 30.222656 C 36.023438 30.269531 36.074219 30.320312 36.117188 30.378906 C 36.160156 30.433594 36.199219 30.492188 36.230469 30.558594 C 36.265625 30.621094 36.289062 30.6875 36.308594 30.757812 C 36.324219 30.828125 36.335938 30.898438 36.339844 30.96875 L 36.847656 36.953125 L 36.847656 36.984375 C 36.851562 37.011719 36.847656 37.039062 36.839844 37.0625 C 36.832031 37.089844 36.820312 37.109375 36.800781 37.128906 C 36.78125 37.148438 36.757812 37.160156 36.734375 37.167969 C 36.710938 37.175781 36.683594 37.179688 36.65625 37.175781 M 35.167969 31.285156 C 35.167969 31.160156 35.136719 31.128906 35.042969 31.128906 C 34.945312 31.128906 34.914062 31.160156 34.851562 31.285156 L 33.679688 34.105469 L 35.359375 34.105469 Z M 35.167969 31.285156 " fill-opacity="1" fill-rule="nonzero"/><path fill="#888d92" d="M 43.152344 30.304688 L 41.09375 33.597656 C 40.9375 33.914062 40.703125 34.15625 40.394531 34.324219 L 39.921875 36.988281 C 39.90625 37.039062 39.878906 37.078125 39.835938 37.113281 C 39.796875 37.148438 39.75 37.167969 39.699219 37.175781 L 38.75 37.175781 C 38.652344 37.175781 38.589844 37.113281 38.589844 36.988281 L 39.066406 34.324219 C 38.875 34.230469 38.71875 34.042969 38.589844 33.597656 L 37.734375 30.304688 C 37.722656 30.277344 37.71875 30.25 37.722656 30.222656 C 37.726562 30.195312 37.738281 30.171875 37.753906 30.148438 C 37.769531 30.125 37.789062 30.109375 37.8125 30.097656 C 37.839844 30.085938 37.867188 30.078125 37.894531 30.082031 L 38.90625 30.082031 C 39.003906 30.082031 39.066406 30.113281 39.066406 30.242188 L 39.730469 33.089844 C 39.761719 33.25 39.792969 33.25 39.855469 33.25 C 39.953125 33.25 39.984375 33.25 40.078125 33.089844 L 41.726562 30.242188 C 41.746094 30.191406 41.78125 30.148438 41.828125 30.121094 C 41.875 30.09375 41.925781 30.078125 41.980469 30.082031 L 43.058594 30.082031 C 43.074219 30.078125 43.089844 30.082031 43.109375 30.085938 C 43.125 30.09375 43.140625 30.101562 43.152344 30.113281 C 43.164062 30.128906 43.171875 30.140625 43.179688 30.15625 C 43.183594 30.175781 43.1875 30.191406 43.183594 30.207031 C 43.15625 30.234375 43.148438 30.265625 43.152344 30.304688 " fill-opacity="1" fill-rule="nonzero"/><path fill="#888d92" d="M 47.964844 30.175781 C 48.0625 30.210938 48.125 30.242188 48.125 30.367188 L 48 31.0625 C 47.964844 31.191406 47.964844 31.253906 47.777344 31.222656 C 47.15625 31.15625 46.53125 31.125 45.90625 31.128906 C 45.371094 31.128906 44.769531 31.285156 44.769531 31.855469 C 44.769531 32.203125 44.925781 32.363281 45.402344 32.679688 L 46.445312 33.3125 C 46.605469 33.390625 46.746094 33.492188 46.875 33.613281 C 47.003906 33.734375 47.113281 33.867188 47.203125 34.019531 C 47.292969 34.171875 47.359375 34.332031 47.402344 34.503906 C 47.445312 34.671875 47.464844 34.847656 47.460938 35.023438 C 47.460938 36.605469 46.128906 37.238281 44.578125 37.238281 C 44.011719 37.25 43.453125 37.195312 42.898438 37.082031 C 42.804688 37.050781 42.742188 37.019531 42.742188 36.890625 L 42.867188 36.195312 C 42.898438 36.097656 42.929688 36.003906 43.089844 36.003906 C 43.644531 36.066406 44.207031 36.097656 44.769531 36.101562 C 45.433594 36.101562 46.035156 35.878906 46.035156 35.214844 C 46.035156 34.863281 45.875 34.644531 45.371094 34.292969 L 44.230469 33.535156 C 44.09375 33.449219 43.972656 33.34375 43.867188 33.226562 C 43.757812 33.109375 43.664062 32.980469 43.589844 32.839844 C 43.515625 32.695312 43.460938 32.546875 43.421875 32.390625 C 43.386719 32.238281 43.371094 32.078125 43.375 31.917969 C 43.375 30.398438 44.738281 29.988281 46.097656 29.988281 C 46.726562 30.015625 47.347656 30.078125 47.96875 30.175781 " fill-opacity="1" fill-rule="nonzero"/><path fill="#888d92" d="M 53.226562 37.175781 L 52.242188 37.175781 C 52.117188 37.175781 52.085938 37.113281 52.085938 37.019531 L 51.988281 35.183594 L 49.773438 35.183594 L 49.011719 36.988281 C 49 37.039062 48.972656 37.078125 48.929688 37.105469 C 48.886719 37.136719 48.839844 37.148438 48.789062 37.144531 L 47.746094 37.144531 C 47.703125 37.148438 47.667969 37.140625 47.640625 37.113281 C 47.609375 37.089844 47.589844 37.058594 47.585938 37.019531 C 47.582031 36.980469 47.589844 36.949219 47.617188 36.925781 L 50.246094 30.941406 C 50.273438 30.863281 50.304688 30.789062 50.339844 30.71875 C 50.378906 30.648438 50.421875 30.578125 50.46875 30.515625 C 50.519531 30.453125 50.574219 30.390625 50.632812 30.339844 C 50.691406 30.285156 50.753906 30.234375 50.820312 30.1875 C 50.886719 30.144531 50.957031 30.105469 51.03125 30.074219 C 51.105469 30.042969 51.179688 30.015625 51.257812 29.996094 C 51.335938 29.976562 51.414062 29.964844 51.496094 29.957031 C 51.574219 29.949219 51.65625 29.949219 51.734375 29.957031 C 51.808594 29.949219 51.878906 29.949219 51.949219 29.953125 C 52.019531 29.960938 52.089844 29.972656 52.160156 29.992188 C 52.230469 30.011719 52.292969 30.039062 52.359375 30.074219 C 52.421875 30.109375 52.480469 30.148438 52.535156 30.195312 C 52.589844 30.238281 52.640625 30.292969 52.683594 30.347656 C 52.730469 30.402344 52.765625 30.464844 52.800781 30.527344 C 52.832031 30.59375 52.855469 30.660156 52.875 30.726562 C 52.894531 30.796875 52.902344 30.867188 52.90625 30.941406 L 53.414062 36.925781 L 53.414062 36.957031 C 53.414062 37.082031 53.382812 37.175781 53.222656 37.175781 M 51.734375 31.285156 C 51.734375 31.160156 51.703125 31.128906 51.609375 31.128906 C 51.515625 31.128906 51.484375 31.160156 51.417969 31.285156 L 50.246094 34.105469 L 51.925781 34.105469 Z M 51.734375 31.285156 " fill-opacity="1" fill-rule="nonzero"/><path fill="#888d92" d="M 60.765625 30.082031 C 60.859375 30.082031 60.953125 30.113281 60.921875 30.273438 L 59.75 36.796875 C 59.742188 36.851562 59.722656 36.898438 59.695312 36.945312 C 59.667969 36.992188 59.636719 37.03125 59.597656 37.066406 C 59.554688 37.097656 59.511719 37.125 59.460938 37.144531 C 59.410156 37.164062 59.359375 37.175781 59.308594 37.175781 L 58.421875 37.175781 C 58.199219 37.175781 57.976562 37.175781 57.882812 36.828125 L 56.519531 32.171875 C 56.488281 32.109375 56.488281 32.109375 56.457031 32.109375 C 56.441406 32.109375 56.425781 32.117188 56.414062 32.128906 C 56.402344 32.140625 56.394531 32.15625 56.394531 32.171875 L 55.539062 36.957031 C 55.507812 37.050781 55.507812 37.144531 55.316406 37.144531 L 54.492188 37.144531 C 54.46875 37.148438 54.445312 37.144531 54.421875 37.136719 C 54.398438 37.128906 54.378906 37.113281 54.363281 37.09375 C 54.347656 37.074219 54.335938 37.054688 54.332031 37.027344 C 54.324219 37.003906 54.328125 36.980469 54.335938 36.957031 L 55.476562 30.429688 C 55.484375 30.378906 55.503906 30.328125 55.53125 30.285156 C 55.554688 30.238281 55.589844 30.199219 55.628906 30.164062 C 55.671875 30.128906 55.714844 30.101562 55.765625 30.082031 C 55.8125 30.0625 55.863281 30.050781 55.917969 30.050781 L 56.867188 30.050781 C 57.058594 30.050781 57.152344 30.113281 57.214844 30.367188 L 58.640625 35.277344 C 58.640625 35.339844 58.671875 35.339844 58.703125 35.339844 C 58.734375 35.339844 58.769531 35.308594 58.769531 35.246094 L 59.65625 30.242188 C 59.6875 30.144531 59.71875 30.050781 59.875 30.050781 L 60.761719 30.050781 Z M 60.765625 30.082031 " fill-opacity="1" fill-rule="nonzero"/><path fill="#888d92" d="M 66.214844 37.175781 L 65.230469 37.175781 C 65.105469 37.175781 65.074219 37.113281 65.074219 37.019531 L 64.976562 35.183594 L 62.792969 35.183594 L 62.03125 36.988281 C 62.019531 37.039062 61.992188 37.078125 61.949219 37.105469 C 61.90625 37.136719 61.859375 37.148438 61.808594 37.144531 L 60.765625 37.144531 C 60.722656 37.148438 60.691406 37.140625 60.660156 37.113281 C 60.628906 37.089844 60.609375 37.058594 60.605469 37.019531 C 60.601562 36.980469 60.613281 36.949219 60.636719 36.925781 L 63.265625 30.941406 C 63.292969 30.863281 63.324219 30.789062 63.359375 30.71875 C 63.398438 30.648438 63.441406 30.578125 63.488281 30.515625 C 63.539062 30.449219 63.59375 30.390625 63.652344 30.335938 C 63.710938 30.28125 63.773438 30.230469 63.839844 30.1875 C 63.90625 30.144531 63.976562 30.105469 64.050781 30.074219 C 64.125 30.039062 64.199219 30.015625 64.277344 29.992188 C 64.355469 29.972656 64.433594 29.960938 64.515625 29.953125 C 64.597656 29.949219 64.675781 29.949219 64.753906 29.957031 C 64.828125 29.945312 64.898438 29.945312 64.96875 29.953125 C 65.042969 29.957031 65.109375 29.96875 65.179688 29.992188 C 65.25 30.011719 65.3125 30.039062 65.378906 30.070312 C 65.441406 30.105469 65.5 30.144531 65.554688 30.191406 C 65.609375 30.238281 65.660156 30.289062 65.703125 30.34375 C 65.75 30.402344 65.785156 30.460938 65.820312 30.527344 C 65.851562 30.589844 65.875 30.65625 65.894531 30.726562 C 65.914062 30.796875 65.925781 30.867188 65.929688 30.9375 L 66.433594 36.921875 L 66.433594 36.953125 C 66.433594 37.082031 66.402344 37.175781 66.210938 37.175781 M 64.722656 31.285156 C 64.722656 31.15625 64.691406 31.125 64.597656 31.125 C 64.503906 31.125 64.46875 31.15625 64.40625 31.285156 L 63.234375 34.101562 L 64.914062 34.101562 Z M 64.722656 31.285156 " fill-opacity="1" fill-rule="nonzero"/><path fill="#888d92" d="M 72.707031 30.304688 L 70.679688 33.597656 C 70.523438 33.914062 70.289062 34.15625 69.984375 34.324219 L 69.507812 36.988281 C 69.492188 37.039062 69.464844 37.078125 69.425781 37.113281 C 69.382812 37.148438 69.339844 37.167969 69.285156 37.175781 L 68.335938 37.175781 C 68.242188 37.175781 68.175781 37.113281 68.175781 36.988281 L 68.652344 34.324219 C 68.464844 34.230469 68.304688 34.042969 68.175781 33.597656 L 67.324219 30.304688 C 67.3125 30.277344 67.308594 30.25 67.3125 30.222656 C 67.3125 30.195312 67.324219 30.171875 67.339844 30.148438 C 67.355469 30.125 67.375 30.109375 67.402344 30.097656 C 67.425781 30.085938 67.453125 30.078125 67.480469 30.082031 L 68.496094 30.082031 C 68.589844 30.082031 68.652344 30.113281 68.652344 30.242188 L 69.316406 33.089844 C 69.347656 33.25 69.382812 33.25 69.445312 33.25 C 69.539062 33.25 69.570312 33.25 69.664062 33.089844 L 71.3125 30.242188 C 71.335938 30.191406 71.367188 30.148438 71.414062 30.121094 C 71.460938 30.09375 71.511719 30.078125 71.566406 30.082031 L 72.644531 30.082031 C 72.660156 30.078125 72.679688 30.082031 72.695312 30.085938 C 72.710938 30.09375 72.726562 30.101562 72.738281 30.113281 C 72.75 30.128906 72.757812 30.140625 72.765625 30.15625 C 72.769531 30.175781 72.773438 30.191406 72.769531 30.207031 C 72.738281 30.242188 72.738281 30.273438 72.707031 30.304688 " fill-opacity="1" fill-rule="nonzero"/><path fill="#888d92" d="M 74.863281 30.082031 C 74.988281 30.082031 75.050781 30.144531 75.019531 30.273438 L 73.847656 36.988281 C 73.816406 37.082031 73.816406 37.175781 73.625 37.175781 L 72.675781 37.175781 C 72.519531 37.175781 72.519531 37.082031 72.519531 36.988281 L 73.691406 30.273438 C 73.722656 30.175781 73.753906 30.082031 73.910156 30.082031 Z M 75.304688 28.308594 L 75.148438 29.226562 C 75.132812 29.277344 75.105469 29.320312 75.0625 29.355469 C 75.023438 29.390625 74.976562 29.410156 74.925781 29.417969 L 74.070312 29.417969 C 74.046875 29.417969 74.027344 29.414062 74.007812 29.40625 C 73.988281 29.402344 73.96875 29.390625 73.953125 29.375 C 73.941406 29.359375 73.929688 29.339844 73.921875 29.320312 C 73.914062 29.300781 73.910156 29.28125 73.910156 29.257812 L 73.910156 29.226562 L 74.070312 28.308594 C 74.085938 28.257812 74.113281 28.214844 74.152344 28.179688 C 74.191406 28.148438 74.238281 28.125 74.292969 28.117188 L 75.148438 28.117188 C 75.242188 28.117188 75.304688 28.183594 75.304688 28.308594 Z M 75.304688 28.308594 " fill-opacity="1" fill-rule="nonzero"/><path fill="#888d92" d="M 77.617188 30.082031 C 77.742188 30.082031 77.808594 30.144531 77.777344 30.273438 L 76.605469 36.988281 C 76.570312 37.082031 76.570312 37.175781 76.382812 37.175781 L 75.433594 37.175781 C 75.273438 37.175781 75.273438 37.082031 75.273438 36.988281 L 76.445312 30.273438 C 76.476562 30.175781 76.507812 30.082031 76.667969 30.082031 Z M 78.09375 28.308594 L 77.933594 29.226562 C 77.917969 29.277344 77.890625 29.320312 77.851562 29.355469 C 77.8125 29.390625 77.765625 29.410156 77.714844 29.417969 L 76.859375 29.417969 C 76.835938 29.417969 76.816406 29.417969 76.796875 29.410156 C 76.773438 29.402344 76.757812 29.390625 76.742188 29.375 C 76.726562 29.359375 76.714844 29.339844 76.707031 29.320312 C 76.699219 29.300781 76.695312 29.28125 76.699219 29.257812 L 76.699219 29.226562 L 76.855469 28.308594 C 76.871094 28.257812 76.898438 28.214844 76.941406 28.179688 C 76.980469 28.148438 77.027344 28.125 77.078125 28.117188 L 77.933594 28.117188 C 78.027344 28.117188 78.09375 28.179688 78.09375 28.308594 Z M 78.09375 28.308594 " fill-opacity="1" fill-rule="nonzero"/></svg>