<svg xmlns="http://www.w3.org/2000/svg" width="144" height="64" viewBox="0 0 108 48"><defs><clipPath id="a"><path d="M1.102 0h105.796v47.02H1.102Zm0 0"/></clipPath><clipPath id="b"><path d="M4.453 4.395h99.063v38.183H4.453Zm0 0"/></clipPath><clipPath id="c"><path d="M85.559 14.398h9.918v28.18h-9.918Zm0 0"/></clipPath><clipPath id="d"><path d="M74.813 4.395H103v12.484H74.813Zm0 0"/></clipPath><clipPath id="e"><path d="M4.395 19H11v8H4.395Zm0 0"/></clipPath></defs><g fill="#fff" clip-path="url(#a)"><path d="M1.102 0h105.796v47.02H1.102Zm0 0"/><path d="M1.102 0h105.796v47.02H1.102Zm0 0"/></g><g clip-path="url(#b)"><path fill="#fff" d="M4.453 4.395h99.063v38.183H4.453Zm0 0"/></g><g clip-path="url(#c)"><path fill="#ed3435" d="m86.043 21.055 9.285-6.492-3.613 10.64-1.016 3.137-1.297 3.547-3.707 10.644"/></g><g clip-path="url(#d)"><path fill="#294099" d="m85.41 16.809-10.582-3.672 10.711-3.39 3.102-1.013 3.613-1.046 10.738-3.293"/></g><g clip-path="url(#e)"><path fill="#888d92" d="m10.266 19.79-.22 1.233a.25.25 0 0 1-.081.125.26.26 0 0 1-.137.063H8.402l-.953 5.324a.25.25 0 0 1-.082.125.27.27 0 0 1-.137.067H5.676a.15.15 0 0 1-.113-.047.2.2 0 0 1-.036-.051.1.1 0 0 1-.007-.063v-.03l.949-5.325H5.012a.1.1 0 0 1-.063-.008.1.1 0 0 1-.05-.035.1.1 0 0 1-.036-.05.2.2 0 0 1-.011-.063v-.032l.222-1.234a.3.3 0 0 1 .082-.129.27.27 0 0 1 .14-.062h4.817c.02.004.043.007.063.02.02.01.039.027.054.042q.022.03.032.059.012.035.008.07Zm0 0"/></g><path fill="#888d92" d="M16.887 19.79 16.16 24c-.379 2.219-1.488 2.79-3.39 2.79-1.11 0-2.438-.634-2.438-2.282q.007-.304.063-.602l.726-4.117a.3.3 0 0 1 .098-.137.3.3 0 0 1 .156-.054h1.555q.029 0 .062.011.028.012.051.036a.1.1 0 0 1 .035.05q.013.03.008.063v.031l-.727 4.215q-.042.217-.03.441c0 .508.253.7.788.7.668 0 1.016-.286 1.172-1.141l.73-4.215a.25.25 0 0 1 .083-.125.26.26 0 0 1 .136-.062h1.555c.031 0 .094.093.094.187m-2.914-1.84-.157.948a.3.3 0 0 1-.101.133.3.3 0 0 1-.152.059h-1.106a.13.13 0 0 1-.066-.008.3.3 0 0 1-.063-.031.3.3 0 0 1-.043-.055c-.012-.02-.015-.043-.02-.062v-.036l.16-.949a.3.3 0 0 1 .102-.129.3.3 0 0 1 .153-.058h1.105c.027-.004.05 0 .078.008q.037.01.063.039.03.03.043.066t.008.074Zm2.25 0-.157.948a.3.3 0 0 1-.101.133.3.3 0 0 1-.152.059h-1.11q-.03.002-.058-.008a.13.13 0 0 1-.055-.035.13.13 0 0 1-.035-.055q-.01-.03-.008-.058v-.036l.156-.949a.4.4 0 0 1 .102-.129.3.3 0 0 1 .152-.058h1.11a.16.16 0 0 1 .117.062.16.16 0 0 1 .043.125Zm5.609 5.895.918 2.593v.067q.006.036-.012.074a.2.2 0 0 1-.039.063.2.2 0 0 1-.062.039.13.13 0 0 1-.075.011h-1.68c-.097 0-.128-.093-.16-.187l-.792-2.313a5 5 0 0 1-.633-.03l-.41 2.343a.25.25 0 0 1-.086.125.25.25 0 0 1-.137.062h-1.55a.1.1 0 0 1-.063-.007.14.14 0 0 1-.086-.086.2.2 0 0 1-.012-.063v-.031l1.11-6.242c.062-.442.253-.57.664-.633q.995-.135 1.996-.129c1.52 0 2.66.54 2.66 1.871q.013.194-.004.387a2.5 2.5 0 0 1-.191.754 2 2 0 0 1-.184.343 2 2 0 0 1-.23.313q-.13.148-.278.273a2.4 2.4 0 0 1-.664.398m-1.266-2.69a5.5 5.5 0 0 0-.761.035l-.254 1.52h.699c.758 0 1.172-.286 1.172-1.048 0-.347-.254-.504-.856-.504m10.262-1.332-2.691 3.325 1.488 3.359a.12.12 0 0 0 .031.062.14.14 0 0 1-.05.094.13.13 0 0 1-.106.031h-1.902c-.125 0-.16-.062-.16-.156l-1.204-3.105-.539 3.105a.25.25 0 0 1-.082.125.27.27 0 0 1-.136.067h-1.555a.2.2 0 0 1-.063-.012.2.2 0 0 1-.05-.035.2.2 0 0 1-.036-.051.1.1 0 0 1-.007-.063v-.03l1.172-6.716a.3.3 0 0 1 .082-.129.26.26 0 0 1 .136-.062h1.555q.032 0 .062.012a.14.14 0 0 1 .086.086q.013.029.008.062v.031l-.539 2.946 2.313-3.008a.28.28 0 0 1 .254-.16h1.902c.062 0 .125.03.125.093-.031.036-.063.098-.094.13m6.812-.031-1.171 6.714a.24.24 0 0 1-.086.125.23.23 0 0 1-.137.062h-1.55a.1.1 0 0 1-.063-.007.16.16 0 0 1-.09-.086.3.3 0 0 1-.008-.063v-.031l.445-2.598h-1.996l-.445 2.598a.27.27 0 0 1-.219.187h-1.554a.1.1 0 0 1-.063-.007.1.1 0 0 1-.05-.036.2.2 0 0 1-.036-.05.2.2 0 0 1-.012-.063v-.031l1.172-6.719a.3.3 0 0 1 .086-.125.26.26 0 0 1 .137-.062h1.555q.03.001.058.007.034.012.055.036a.2.2 0 0 1 .035.054q.01.03.008.063v.031l-.441 2.438h1.992l.445-2.438a.3.3 0 0 1 .082-.129.26.26 0 0 1 .14-.062h1.551c.098 0 .16.062.16.191m5.669 6.902h-1.614a.14.14 0 0 1-.066-.02.1.1 0 0 1-.05-.042.15.15 0 0 1-.036-.059q-.007-.033-.008-.066l-.031-1.332h-1.711l-.504 1.332a.25.25 0 0 1-.086.125.26.26 0 0 1-.137.062h-1.71a.1.1 0 0 1-.051-.003.2.2 0 0 1-.043-.028q-.017-.019-.028-.043a.1.1 0 0 1-.004-.05c0-.032 0-.063.032-.063l2.312-5.828c.38-.953 1.137-1.14 2.024-1.14.922 0 1.586.187 1.648 1.14l.254 5.828a.2.2 0 0 1-.012.07.2.2 0 0 1-.039.067.2.2 0 0 1-.062.039.3.3 0 0 1-.075.011m-1.87-5.449c0-.094 0-.125-.094-.125-.098 0-.098.063-.13.125l-.886 2.41h1.14Zm9.695-1.452-2.317 5.858c-.379.95-1.136 1.141-2.058 1.141-.918 0-1.582-.191-1.614-1.14l-.253-5.829a.22.22 0 0 1 .058-.133.2.2 0 0 1 .129-.058h1.617a.2.2 0 0 1 .067.02q.029.018.05.042.025.03.032.059a.2.2 0 0 1 .011.07l.063 5.258c0 .094 0 .125.094.125.062 0 .093-.062.125-.125l1.933-5.258a.3.3 0 0 1 .082-.129.3.3 0 0 1 .14-.062h1.712c.062 0 .125.031.125.094v.066m5.101 6.902h-1.613a.13.13 0 0 1-.066-.02q-.031-.014-.055-.042a.2.2 0 0 1-.031-.059q-.01-.033-.008-.066l-.031-1.332h-1.711l-.508 1.332a.27.27 0 0 1-.219.187h-1.68c-.019.004-.035 0-.05-.003a.2.2 0 0 1-.043-.028.07.07 0 0 1-.028-.043c-.007-.015-.007-.035-.007-.05 0-.032 0-.063.03-.063l2.313-5.828c.383-.953 1.141-1.14 2.028-1.14.922 0 1.586.187 1.648 1.14l.254 5.828c-.062.094-.125.187-.223.187m-1.867-5.449c0-.094 0-.125-.097-.125-.094 0-.094.063-.125.125l-.887 2.41h1.14Zm8.333-1.328-.223 1.234q-.047.194-.192.192h-.031c-.379-.031-.793-.098-1.332-.098-.504 0-1.012.192-1.234 1.426l-.188.984a4 4 0 0 0-.062.567c0 .73.378.855.789.855.539 0 .949-.062 1.363-.094h.031c.094 0 .16.032.16.125v.067l-.222 1.234c-.032.125-.063.157-.254.223a4.6 4.6 0 0 1-1.364.156c-1.425 0-2.5-.793-2.5-2.375q.005-.381.063-.762l.187-.98c.446-2.406 1.68-3.137 3.485-3.137a4.2 4.2 0 0 1 1.332.192c.094.03.191.062.191.16Zm2.972-.124L64.5 26.503a.2.2 0 0 1-.078.133.2.2 0 0 1-.14.054h-1.587c-.125 0-.156-.093-.156-.187l1.172-6.715a.3.3 0 0 1 .082-.129.26.26 0 0 1 .137-.062h1.586c.093 0 .156.062.156.191m4.406 5.509-.223 1.172c-.03.125-.093.16-.218.191q-.756.118-1.524.125c-1.078 0-2.152-.348-2.152-1.648 0-.157.031-.317.031-.504l.856-4.848a.25.25 0 0 1 .097-.133.25.25 0 0 1 .157-.054h1.55q.035.001.063.007.03.012.055.036a.3.3 0 0 1 .03.054q.013.03.013.063v.031l-.856 4.844c0 .062-.031.125-.031.191 0 .219.125.281.379.281h1.55c.16 0 .223.098.223.192m3.801-5.507-1.172 6.714a.26.26 0 0 1-.078.133.22.22 0 0 1-.145.054h-1.582c-.129 0-.16-.093-.16-.187l1.172-6.715a.3.3 0 0 1 .082-.129.27.27 0 0 1 .14-.062h1.583c.097 0 .16.062.16.191m7.161.031-2.692 3.325 1.488 3.359a.1.1 0 0 0 .031.062.13.13 0 0 1-.055.094.13.13 0 0 1-.105.031H77.84c-.125 0-.16-.062-.16-.156l-1.203-3.105-.54 3.105a.25.25 0 0 1-.082.125.26.26 0 0 1-.14.063h-1.55a.1.1 0 0 1-.063-.008.2.2 0 0 1-.051-.035.2.2 0 0 1-.035-.051.1.1 0 0 1-.008-.063v-.03l1.172-6.716a.3.3 0 0 1 .082-.129.26.26 0 0 1 .136-.062h1.555q.03-.002.063.008.029.012.05.035a.13.13 0 0 1 .036.055q.012.03.007.058v.035l-.539 2.977 2.313-3.008a.28.28 0 0 1 .254-.16h1.902c.063 0 .125.031.125.094-.062 0-.094.066-.125.097M25.508 30.082c.125 0 .156.063.156.191l-.758 4.274c-.383 2.121-1.488 2.691-3.074 2.691-1.363 0-2.25-.633-2.25-1.996a2.6 2.6 0 0 1 .066-.695l.758-4.274a.3.3 0 0 1 .082-.128.3.3 0 0 1 .14-.063h.95c.125 0 .192.063.16.191l-.793 4.274q-.075.363-.062.726c0 .637.285.887 1.105.887 1.047 0 1.364-.472 1.586-1.613l.762-4.274c.031-.097.062-.191.219-.191Zm1.519 1.141c-.125 0-.16-.063-.16-.16l.16-.79a.24.24 0 0 1 .078-.136.25.25 0 0 1 .145-.055h3.832c.316 0 .477.125.445.348l-.097.539a.85.85 0 0 1-.188.379l-3.738 4.468a.26.26 0 0 0-.067.125c.004.016.008.032.024.043.012.012.023.02.043.02h2.914q.032 0 .062.012c.02.007.036.02.051.03a.2.2 0 0 1 .035.056q.013.029.008.062l-.125.793c-.031.125-.062.188-.219.188h-4.218c-.317 0-.442-.094-.41-.348l.097-.54a.6.6 0 0 1 .188-.347l3.8-4.527a.1.1 0 0 0 .032-.098c0-.031-.032-.062-.094-.062Zm9.629 5.953h-.98c-.125 0-.16-.063-.16-.156l-.125-1.805h-2.188l-.758 1.805a.24.24 0 0 1-.082.12.2.2 0 0 1-.14.036h-1.047a.14.14 0 0 1-.106-.028.16.16 0 0 1-.05-.097.1.1 0 0 1 .03-.094l2.63-5.984q.04-.117.093-.223.059-.107.13-.203c.05-.063.1-.121.16-.18.058-.055.124-.101.19-.148q.1-.065.212-.114c.074-.035.148-.058.226-.078q.117-.032.239-.039.119-.012.238 0a.8.8 0 0 1 .215-.004 1 1 0 0 1 .406.121.95.95 0 0 1 .328.274 1 1 0 0 1 .113.18 1 1 0 0 1 .079.199q.024.105.03.21l.509 5.985v.031a.2.2 0 0 1-.008.078.14.14 0 0 1-.04.067.2.2 0 0 1-.066.039q-.035.013-.078.008m-1.488-5.89c0-.126-.031-.157-.125-.157-.098 0-.129.031-.191.156l-1.172 2.82h1.68Zm7.984-.981-2.058 3.293q-.235.474-.7.726l-.472 2.664a.25.25 0 0 1-.086.125.26.26 0 0 1-.137.063h-.949c-.098 0-.16-.063-.16-.188l.476-2.664c-.191-.094-.347-.281-.476-.726l-.856-3.293q-.017-.042-.011-.082a.18.18 0 0 1 .09-.125.15.15 0 0 1 .082-.016h1.011c.098 0 .16.031.16.16l.664 2.848c.032.16.063.16.125.16.098 0 .13 0 .223-.16l1.649-2.848a.24.24 0 0 1 .101-.12.26.26 0 0 1 .152-.04h1.079q.021-.004.05.004a.2.2 0 0 1 .043.027q.017.022.028.043c.004.02.008.035.004.051q-.04.04-.032.098m4.813-.129c.097.035.16.066.16.191l-.125.695c-.035.13-.035.192-.223.16a17 17 0 0 0-1.87-.093c-.536 0-1.137.156-1.137.726 0 .348.156.508.632.825l1.043.633q.238.118.43.3a1.83 1.83 0 0 1 .527.89q.065.255.059.52c0 1.582-1.332 2.215-2.883 2.215a7.6 7.6 0 0 1-1.68-.156c-.093-.031-.156-.062-.156-.191l.125-.696c.031-.097.063-.191.223-.191q.834.093 1.68.098c.664 0 1.265-.223 1.265-.887 0-.352-.16-.57-.664-.922l-1.14-.758a1.7 1.7 0 0 1-.364-.308 1.8 1.8 0 0 1-.445-.836 2 2 0 0 1-.047-.473c0-1.52 1.363-1.93 2.723-1.93q.942.041 1.87.188m5.259 7h-.985c-.125 0-.156-.063-.156-.156l-.098-1.836h-2.215l-.761 1.804a.18.18 0 0 1-.082.117.2.2 0 0 1-.14.04h-1.044c-.043.003-.078-.004-.105-.032a.13.13 0 0 1-.055-.093q-.008-.059.031-.094l2.63-5.985q.04-.117.093-.222.059-.107.129-.203a1.8 1.8 0 0 1 .352-.328q.099-.066.21-.114.11-.047.227-.078.116-.028.238-.039.119-.012.238 0 .111-.011.215-.004.105.011.211.04a1 1 0 0 1 .375.202 1.1 1.1 0 0 1 .266.332q.045.1.074.2c.02.07.027.14.031.214l.508 5.985v.031c0 .125-.031.219-.191.219m-1.489-5.89c0-.126-.03-.157-.125-.157-.093 0-.125.031-.191.156l-1.172 2.82h1.68Zm9.032-1.204c.093 0 .187.031.156.191l-1.172 6.524a.5.5 0 0 1-.152.27.6.6 0 0 1-.137.078.4.4 0 0 1-.152.03h-.887c-.223 0-.445 0-.54-.347l-1.362-4.656c-.032-.063-.032-.063-.063-.063a.06.06 0 0 0-.043.02.06.06 0 0 0-.02.043l-.855 4.785c-.031.094-.031.188-.223.188h-.824a.14.14 0 0 1-.07-.008.13.13 0 0 1-.059-.043.13.13 0 0 1-.031-.067.1.1 0 0 1 .004-.07l1.14-6.527a.4.4 0 0 1 .055-.145.4.4 0 0 1 .098-.12.5.5 0 0 1 .289-.114h.95c.19 0 .284.062.347.316l1.426 4.91c0 .063.03.063.062.063.031 0 .067-.031.067-.094l.886-5.004c.032-.097.063-.191.219-.191h.887Zm5.449 7.094h-.985c-.125 0-.156-.063-.156-.156l-.097-1.836h-2.184l-.762 1.804a.18.18 0 0 1-.082.117.2.2 0 0 1-.14.04h-1.043a.13.13 0 0 1-.106-.032.13.13 0 0 1-.055-.093.11.11 0 0 1 .032-.094l2.629-5.985q.04-.117.093-.222.059-.107.13-.203a1.45 1.45 0 0 1 .562-.442 2 2 0 0 1 .226-.082q.117-.028.239-.039.122-.007.238.004a.8.8 0 0 1 .215-.004.8.8 0 0 1 .21.04c.071.019.133.046.2.077a1.1 1.1 0 0 1 .441.457 1.1 1.1 0 0 1 .11.41l.504 5.985v.031c0 .129-.032.223-.223.223m-1.488-5.89c0-.13-.032-.161-.125-.161-.094 0-.13.031-.192.16l-1.172 2.817h1.68Zm7.984-.981-2.027 3.293q-.236.474-.696.726l-.476 2.664a.27.27 0 0 1-.223.188h-.95c-.093 0-.16-.063-.16-.188l.477-2.664c-.187-.094-.347-.281-.476-.726l-.852-3.293q-.017-.042-.011-.082.001-.04.027-.075a.13.13 0 0 1 .062-.05.14.14 0 0 1 .078-.016h1.016c.094 0 .156.031.156.16l.664 2.848c.032.16.067.16.13.16.093 0 .124 0 .218-.16l1.648-2.848a.26.26 0 0 1 .254-.16h1.079a.1.1 0 0 1 .05.004.2.2 0 0 1 .043.027q.017.022.028.043.007.029.004.051c-.032.035-.032.066-.063.098m2.156-.223c.125 0 .188.063.157.191l-1.172 6.715c-.032.094-.032.188-.223.188h-.95c-.155 0-.155-.094-.155-.188l1.171-6.715c.032-.097.063-.191.22-.191Zm.442-1.773-.157.918a.26.26 0 0 1-.085.128.26.26 0 0 1-.137.063h-.856a.2.2 0 0 1-.062-.012.1.1 0 0 1-.055-.031.3.3 0 0 1-.031-.055.2.2 0 0 1-.012-.062v-.031l.16-.918a.3.3 0 0 1 .082-.13.3.3 0 0 1 .141-.062h.855c.094 0 .157.067.157.192m2.312 1.773c.125 0 .192.063.16.191l-1.172 6.715c-.035.094-.035.188-.222.188h-.95c-.16 0-.16-.094-.16-.188l1.172-6.715c.032-.097.063-.191.223-.191Zm.477-1.773-.16.918a.3.3 0 0 1-.082.128.26.26 0 0 1-.137.063h-.856q-.034.002-.062-.008a.13.13 0 0 1-.055-.035.2.2 0 0 1-.035-.055q-.013-.029-.008-.062v-.031l.156-.918a.26.26 0 0 1 .086-.13.3.3 0 0 1 .137-.062h.856c.093 0 .16.063.16.192m0 0"/></svg>