<svg xmlns="http://www.w3.org/2000/svg" width="144" height="64" viewBox="0 0 108 48"><defs><clipPath id="a"><path d="M1.102 0h105.796v47.02H1.102Zm0 0"/></clipPath></defs><g fill="#fff" clip-path="url(#a)"><path d="M1.102 0h105.796v47.02H1.102Zm0 0"/><path d="M1.102 0h105.796v47.02H1.102Zm0 0"/></g><path fill="#fa0050" fill-rule="evenodd" d="M75.738 24.664c0-.559-.187-1.117-.808-1.117a.8.8 0 0 0-.618.246c-.496.496-.808 1.18-.93 1.863l-.374 2.106c.125.125.312.187.433.25.125.062.25.062.375.062 1.114 0 1.922-1.984 1.922-3.41m2.977-.25c0 2.977-1.86 5.89-4.778 5.89-.308 0-.617-.058-.93-.12a3 3 0 0 1-.433-.188h-.062l-.434 2.418c-.187.809-.371.867-.992.93-.496.062-1.055-.063-1.55-.246-.31-.125-.497-.313-.372-.871l1.984-10.356c.063-.433.247-.621.559-.68h.742c.375.059.684.122.992.309.25.184.375.496.313.742l-.063.188c.246-.371.559-.684.993-.867.433-.25.93-.372 1.425-.372 1.86 0 2.606 1.489 2.606 3.223m-17.367-.992c.312-.246.5-.559.62-.93.126-.433.126-.683-.558-1.055q-1.112-.463-2.418-.37c-2.293.062-3.844 1.363-3.719 3.222.063 1.055.993 1.8 1.985 2.297.742.371.992.621 1.054.93 0 .308-.25.62-.808.62a5.7 5.7 0 0 1-1.797-.312c-.434-.183-.559-.062-.746.125-.246.309-.434.684-.434 1.055-.062.433.063.683.559.93a4.94 4.94 0 0 0 2.297.37c2.418-.058 4.027-1.238 3.906-3.222-.062-1.117-1.117-1.8-2.172-2.36-.62-.308-.93-.495-.93-.804 0-.434.372-.621.93-.68.496 0 .93.059 1.426.184l.125.062c.496.125.496.063.68-.062m31.132 4.59c-.062-.25-.37-.434-.617-.371-.187 0-.558.12-.683 0-.125-.125-.25-.25-.25-.434.062-.312.062-.621.125-.934l.558-2.789h1.242a.66.66 0 0 0 .56-.558c.12-.496.12-.742.183-.992 0-.188-.063-.372-.184-.434a.7.7 0 0 0-.5-.187h-.93s.313-1.426.313-1.489a.38.38 0 0 0-.063-.433.64.64 0 0 0-.37-.309c-.434-.187-.934-.312-1.43-.25-.555 0-.805.125-.993.93l-.308 1.55h-.496a.6.6 0 0 0-.559.434q-.093.373-.187.934c-.059.246-.121.68.558.742h.375l-.62 3.226a6 6 0 0 0-.188 1.489c.062 1.175.808 1.984 2.359 1.984.496 0 1.055-.125 1.488-.375.617-.308.68-.433.742-.93 0-.246 0-.558-.125-.804m4.407-6.574c-.434-.188-.934-.31-1.367-.31-.743 0-.93.184-.993.743l-1.054 7.258c-.059.183 0 .371.062.496.063.121.25.246.375.309.496.187.992.312 1.547.25.559-.063.809-.188.934-.934l.992-6.82c.058-.434-.125-.805-.496-.992m-77.77-2.356c.188-.312.246-.684 0-.992-.308-.496-.683-.93-1.18-1.18-.68-.37-1.175-.308-1.609.434q-.743 1.305-1.492 2.605l-1.426 2.418c-.12-.246-.617-2.605-.867-3.781a1.5 1.5 0 0 0-.434-.809c-.496-.496-1.117-.804-1.796-.804-.872 0-1.055.25-.997.992 0 .25.063.496.125.742.313 1.492.746 2.977 1.368 4.406.246.559.554 1.114.93 1.61.12.125.12.375.058.5-.434.992-.93 1.984-1.363 2.976-.371.93-.618 1.922-.559 2.914 0 .371.188.742.5.992.434.372 1.05.497 1.61.372.558-.063.992-.434 1.117-.93.683-3.102 1.921-6.14 3.66-8.805.804-1.367 1.55-2.484 2.355-3.66m77.149-1.363c-.371 0-.746.183-1.055.496q-.373.463-.371 1.113c0 .375.12.684.37.93.247.25.56.375.93.312.434 0 .805-.187 1.055-.496.246-.312.434-.746.371-1.117 0-.371-.183-.684-.433-.93-.125-.187-.496-.308-.867-.308M35.8 21.129c-1.117 0-2.11.555-2.73 1.488-.126-.933-.993-1.55-1.923-1.488-1.117 0-2.171.555-2.73 1.488 0 0 .062-.312.062-.375a.81.81 0 0 0-.308-.805c-.371-.187-.809-.308-1.242-.246-.434 0-.805.059-.93.68l-1.363 7.07c-.063.434-.063.622.183.805.375.25.871.438 1.305.5.559.059 1.117-.062 1.18-.437l.68-3.594c.312-1.676.992-2.606 1.613-2.606.37 0 .558.309.558.805 0 .371-.062.684-.125 1.055l-.68 3.597c-.124.309 0 .622.247.805.37.25.867.434 1.3.434.747.062 1.055-.121 1.18-.805l.621-3.285c.309-1.676.93-2.606 1.551-2.606.434 0 .617.309.617.743 0 .37-.058.746-.12 1.117l-.684 3.41c-.126.312 0 .621.187.808.434.247.867.434 1.363.434.621.063 1.055-.125 1.18-.808l.867-4.34c.063-.559.125-1.055.184-1.614 0-1.363-.617-2.23-2.043-2.23m46.57 3.594c1.613.062 2.297-.184 2.36-.805 0-.371-.25-.621-.684-.621-.867 0-1.613.621-1.676 1.426m3.973 4.406c0 .246 0 .433-.434.617-.933.313-1.984.5-2.98.438-2.48-.063-3.657-1.489-3.594-3.786.059-2.668 1.922-5.394 5.082-5.27 1.8.063 2.977 1.177 2.918 2.79-.063 2.297-2.047 3.102-5.336 2.914 0 .25.125.434.313.621.37.309.867.496 1.425.496a6 6 0 0 0 1.489-.187c.433-.121.558 0 .804.312.125.309.25.68.313 1.055m-66.485-4.406c1.614.062 2.297-.184 2.36-.805 0-.371-.25-.621-.684-.621-.867 0-1.613.621-1.676 1.426m3.973 4.406c0 .246 0 .433-.437.617-.93.313-1.985.5-2.977.438-2.48-.063-3.656-1.489-3.598-3.786.063-2.668 1.926-5.394 5.086-5.27 1.801.063 2.977 1.177 2.914 2.79-.058 2.297-2.043 3.102-5.332 2.914 0 .25.125.434.313.621.37.309.93.496 1.426.496a6 6 0 0 0 1.488-.187c.433-.121.558 0 .805.312.125.309.25.68.312 1.055m17.488-4.406c1.61.062 2.293-.184 2.356-.805 0-.371-.25-.621-.684-.621-.867 0-1.55.621-1.672 1.426m3.97 4.406c0 .246 0 .433-.435.617-.933.313-1.988.5-2.976.438-2.484-.063-3.66-1.489-3.66-3.786.062-2.668 1.922-5.394 5.086-5.27 1.797.063 2.976 1.177 2.914 2.79-.063 2.297-2.047 3.102-5.336 2.914 0 .25.125.434.312.621.371.309.867.496 1.426.496a6 6 0 0 0 1.488-.187c.434-.121.559 0 .805.312.25.309.375.68.375 1.055m19.718-4.406c1.613.062 2.297-.184 2.36-.805a.7.7 0 0 0-.188-.496.7.7 0 0 0-.496-.184c-.868.059-1.551.68-1.676 1.485m3.969 4.406c0 .246 0 .433-.434.617-.93.313-1.984.5-2.977.438-2.48-.063-3.66-1.489-3.597-3.786.062-2.668 1.922-5.394 5.086-5.27 1.8.063 2.976 1.177 2.914 2.79-.063 2.297-2.043 3.102-5.332 2.914 0 .25.125.434.308.621.375.309.934.496 1.426.496a6 6 0 0 0 1.492-.187c.434-.121.555 0 .805.312.125.309.246.68.309 1.055m-16.93-3.848s1.426 3.29 1.676 3.785c.183.434 0 .68-.496.868a4.3 4.3 0 0 1-1.801.187c-.246-.062-.496-.187-.559-.433l-.988-2.731-.559.496-.375 1.797c-.12.746-.433.809-.992.871-.496.063-.992-.062-1.488-.25-.371-.183-.559-.371-.371-.992l2.047-10.727c.125-.62.246-.93 1.18-.93.495 0 .992.122 1.425.372.246.183.371.558.309.867-.246 1.363-1.117 5.644-1.117 5.644l2.421-2.421q.556-.556.93-.555c.496 0 .992.183 1.426.433.496.372.558.868.187 1.18Zm0 0"/></svg>