<svg xmlns="http://www.w3.org/2000/svg" viewBox="55 232 490 145"><defs><clipPath id="a"><path d="M170.195 248.102h9V351.89h-9Zm0 0"/></clipPath><clipPath id="b"><path d="M0 0h31v44H0z"/></clipPath><clipPath id="c"><path d="M0 0h80v128H0z"/></clipPath><clipPath id="d"><path d="M0 0h328v58H0z"/></clipPath><clipPath id="f"><path d="M86 9h12v16.922H86Zm0 0"/></clipPath><clipPath id="e"><path d="M0 0h338v26H0z"/></clipPath></defs><g clip-path="url(#a)"><path fill="none" stroke="#000" stroke-width="3" d="M170.195 248.102h9.282V351.89h-9.282Zm0 0"/></g><g clip-path="url(#b)" transform="translate(84 282)"><path d="M2.406 22.005q-.001-2.73 1-5.11a13.1 13.1 0 0 1 2.813-4.187 13.1 13.1 0 0 1 4.172-2.812Q12.746 8.88 15.5 8.88q2.73.001 5.11 1.016a12.8 12.8 0 0 1 4.187 2.812 13.2 13.2 0 0 1 2.812 4.188q1.015 2.379 1.016 5.109-.001 2.754-1.016 5.11a13.5 13.5 0 0 1-2.812 4.171 13.1 13.1 0 0 1-4.188 2.813q-2.379.998-5.109 1-2.754-.002-5.11-1a13.3 13.3 0 0 1-4.171-2.813 13.3 13.3 0 0 1-2.813-4.172q-1.001-2.355-1-5.109m3.75 0c0 1.73.414 3.297 1.25 4.703a9.7 9.7 0 0 0 3.375 3.375Q12.89 31.35 15.5 31.35q2.59 0 4.719-1.266a9.7 9.7 0 0 0 3.39-3.375q1.266-2.108 1.266-4.703 0-2.59-1.266-4.719a9.65 9.65 0 0 0-3.39-3.39Q18.09 12.63 15.5 12.63q-2.612 0-4.719 1.266a9.7 9.7 0 0 0-3.375 3.39c-.836 1.418-1.25 2.992-1.25 4.719m0 0"/></g><g clip-path="url(#c)" transform="translate(60 240)"><path d="M71.828 48.295a28.7 28.7 0 0 0-3.094-5.64 44 44 0 0 0-3.937-4.798c-3.063-3.195-6.672-5.703-10.828-7.515q-6.237-2.72-13.375-2.72-7.032 0-13.266 2.72c-4.156 1.812-7.797 4.32-10.922 7.515q-4.58 4.689-7.297 11.14-2.718 6.441-2.718 14.33 0 7.875 2.718 14.108 2.718 6.237 7.297 10.938 4.688 4.782 10.922 7.562 6.234 2.766 13.266 2.766 7.138 0 13.375-2.766c4.156-1.851 7.765-4.375 10.828-7.562a38 38 0 0 0 3.937-4.688 29 29 0 0 0 3.094-5.656h2.547q-2.876 6.815-7.984 12.047-4.909 5.11-11.516 8.047-6.61 2.923-14.281 2.922-7.564 0-14.172-2.922a37.5 37.5 0 0 1-11.61-8.047A41.4 41.4 0 0 1 6.97 78.514q-2.923-6.452-2.922-15.188 0-8.42 2.922-15.187c1.957-4.508 4.57-8.47 7.843-11.875a37.2 37.2 0 0 1 11.61-8.047q6.608-2.937 14.172-2.938 7.67 0 14.281 2.938 6.607 2.924 11.516 8.047a43 43 0 0 1 4.53 5.593 34 34 0 0 1 3.454 6.438Zm0 0"/></g><g clip-path="url(#d)" transform="translate(196 256)"><path d="M2.856 28.674q0-3.467 1.265-6.5c.852-2.02 1.985-3.785 3.39-5.297q2.156-2.203 5.22-3.61a15 15 0 0 1 6.39-1.421q3.762.001 6.89 1.531a15.4 15.4 0 0 1 5.313 4.281q2.186 2.752 3.125 6.454h-4.703q-1.313-3.704-4.156-5.625-2.848-1.937-6.469-1.938c-1.562 0-3.086.34-4.562 1.016q-2.203 1.002-3.75 2.656c-1.043 1.062-1.86 2.32-2.453 3.766q-.891 2.156-.891 4.687-.001 2.454.86 4.61a12.1 12.1 0 0 0 2.437 3.812q1.545 1.593 3.781 2.531 2.233.938 4.578.938 3.762 0 6.703-2.063 2.937-2.061 4.204-5.781h4.656c-.625 2.48-1.68 4.668-3.156 6.562a15.4 15.4 0 0 1-5.375 4.422q-3.176 1.564-7.032 1.563-3.327 0-6.328-1.281-2.986-1.295-5.14-3.563-2.112-2.248-3.454-5.281c-.898-2.02-1.343-4.176-1.343-6.469M49.86 16.22v24.392h6.11v4.421H39.001v-4.421h6.11V16.22H39v-4.375h16.97v4.375Zm32.796 8.985v-13.36h4.797v33.188h-4.797v-15.14H68.734v15.14H64V11.846h4.734v13.36Zm17.47 11.515-3.188 8.313h-5.125l13.203-33.328h3.485l13.203 33.328h-5.078l-3.141-8.312Zm11.609-4.468-4.922-12.969-4.937 12.97Zm14.575-20.125h3.655L145.997 35.3V12.127h4.703v32.906h-3.766l-15.89-22.984v22.984h-4.735Zm41.764 16.453q0-3.562 1.312-6.656c.883-2.07 2.11-3.89 3.672-5.453a17.1 17.1 0 0 1 5.438-3.672q3.076-1.326 6.64-1.328c2.383 0 4.61.445 6.672 1.328 2.07.875 3.89 2.102 5.453 3.672a16.9 16.9 0 0 1 3.672 5.453q1.313 3.094 1.313 6.656 0 3.58-1.313 6.657a17.1 17.1 0 0 1-9.125 9.093c-2.062.875-4.289 1.313-6.672 1.313q-3.564 0-6.64-1.313a17.2 17.2 0 0 1-5.438-3.656 17.4 17.4 0 0 1-3.672-5.437q-1.312-3.077-1.312-6.657m4.89 0q0 3.393 1.641 6.14a12.55 12.55 0 0 0 4.406 4.392q2.749 1.64 6.125 1.64c2.258 0 4.313-.547 6.156-1.64a12.4 12.4 0 0 0 4.422-4.391q1.641-2.748 1.641-6.14 0-3.376-1.64-6.141a12.36 12.36 0 0 0-4.423-4.422c-1.843-1.102-3.898-1.656-6.156-1.656q-3.376.002-6.125 1.656a12.5 12.5 0 0 0-4.406 4.422q-1.64 2.765-1.64 6.14m38.623 12.22h18.563v4.233h-24.063v-3.906l18.235-25.094h-18.235V11.8h23.828v3.719Zm43.147-15.595v-13.36h4.796v33.188h-4.796v-15.14h-13.922v15.14h-4.735V11.846h4.735v13.36Zm17.469 11.515-3.188 8.313h-5.125l13.203-33.328h3.485l13.203 33.328h-5.078l-3.14-8.312Zm11.61-4.468-4.923-12.969-4.937 12.97Zm14.573-20.125h3.657l16.03 23.172V12.127h4.704v32.906h-3.766l-15.89-22.984v22.984h-4.735Zm0 0"/></g><g clip-path="url(#e)" transform="translate(202 312)"><path d="M8.863 6.124q1.185.001 2.063.547a3.8 3.8 0 0 1 1.344 1.406q.468.862.468 1.829c0 .523-.117 1.03-.343 1.53q-.344.75-1.094 1.313 1.23.517 1.734 1.532c.344.68.516 1.359.516 2.046a4.74 4.74 0 0 1-.484 2.079 4.1 4.1 0 0 1-1.391 1.625c-.617.43-1.387.64-2.313.64h-6.5V6.124Zm-.046 5.89c.57 0 1.007-.21 1.312-.64q.452-.64.453-1.39 0-.716-.422-1.297-.422-.593-1.297-.594H4.926v3.922Zm.546 6.642c.47 0 .852-.114 1.157-.344q.469-.341.703-.875a2.48 2.48 0 0 0 0-2.172 2.17 2.17 0 0 0-.703-.86q-.456-.341-1.157-.343H4.926v4.594Zm16.735.546c-.406.606-.914 1.032-1.516 1.282a5.4 5.4 0 0 1-2 .359q-1.687 0-2.765-.656-1.065-.668-1.563-1.875-.502-1.2-.5-2.781V9.437h2.016v6.094q0 1.03.234 1.828.233.797.875 1.25.638.438 1.844.437 1.594.001 2.438-1 .843-.998.843-2.453V9.437h2.016V20.67h-1.922Zm6.963-12.531q0-.562.39-.844.405-.294.892-.296.468 0 .843.28.389.27.39.86-.001.58-.39.89a1.41 1.41 0 0 1-1.734 0q-.392-.31-.39-.89m.25 2.75v11.25h2.016V9.421Zm7.304 11.25V6.265h2.016V20.67ZM58.695 6.265V20.67h-2.016v-1.5a3.28 3.28 0 0 1-1.64 1.297 6.4 6.4 0 0 1-2.078.39q-1.94.002-3.266-.765a4.95 4.95 0 0 1-2-2.078q-.656-1.311-.656-2.969c0-1.062.226-2.02.687-2.875a5 5 0 0 1 2.016-2.047q1.326-.764 3.203-.765 1.031 0 2.016.312.997.317 1.718 1.313v-4.72Zm-2.016 8.828q0-1.342-.547-2.203a3.47 3.47 0 0 0-1.39-1.313 3.8 3.8 0 0 0-1.797-.453c-.824 0-1.527.196-2.11.578a4 4 0 0 0-1.328 1.485 4.2 4.2 0 0 0-.453 1.906q-.002 1.143.453 2.047.45.89 1.329 1.406.872.516 2.078.516.95 0 1.812-.422a3.4 3.4 0 0 0 1.406-1.313q.546-.888.547-2.234m7.068-8.422q0-.562.39-.844.405-.294.891-.296.47 0 .844.28.388.27.39.86-.002.58-.39.89a1.41 1.41 0 0 1-1.734 0q-.391-.31-.39-.89m.25 2.75v11.25h2.016V9.421Zm9.463 1.5c.407-.601.899-1.008 1.485-1.219a5.4 5.4 0 0 1 1.922-.328q1.716 0 2.765.657 1.06.656 1.563 1.859.516 1.19.515 2.797v5.984h-2v-5.969q0-1.044-.234-1.843-.234-.81-.89-1.25c-.43-.29-1.047-.438-1.86-.438q-1.05 0-1.781.469-.722.456-1.11 1.234a4 4 0 0 0-.375 1.75v6.047h-2.015V9.546h2.015Zm0 0"/><g clip-path="url(#f)"><path d="M97.976 20.265q-.001 1.295-.5 2.203a4.2 4.2 0 0 1-1.328 1.484 6 6 0 0 1-1.86.829q-1.018.28-2.047.28-1.394-.002-2.625-.39-1.236-.377-2.015-1.187-.767-.814-.766-2.078h2c0 .468.172.835.516 1.109.351.27.781.46 1.281.578a7 7 0 0 0 1.5.172 5.6 5.6 0 0 0 1.781-.297 3.3 3.3 0 0 0 1.469-.969q.576-.656.578-1.734v-1.172q-.738.938-1.734 1.25a6.5 6.5 0 0 1-2.016.313q-1.877 0-3.203-.75-1.312-.749-2.016-2a5.7 5.7 0 0 1-.687-2.766q0-1.53.656-2.844c.445-.875 1.11-1.582 1.985-2.125q1.324-.81 3.265-.812 1.03 0 2.078.375c.707.25 1.27.68 1.688 1.28V9.547h2Zm-5.781-1.39q1.247 0 2.078-.579a3.7 3.7 0 0 0 1.265-1.515 4.6 4.6 0 0 0 .422-1.954q0-1.014-.422-1.859a3.14 3.14 0 0 0-1.25-1.344q-.831-.499-2.062-.5-1.236.001-2.11.594a3.9 3.9 0 0 0-1.343 1.5 4.2 4.2 0 0 0-.453 1.922q.011.973.468 1.828.452.863 1.313 1.39.874.516 2.094.516m0 0"/></g><path d="M117.724 9.984a1.94 1.94 0 0 0-.594-1.032 2.8 2.8 0 0 0-1.062-.593 3.9 3.9 0 0 0-1.22-.203q-.75.001-1.483.265a2.5 2.5 0 0 0-1.188.828 1.7 1.7 0 0 0-.281.532 2.2 2.2 0 0 0-.078.593c0 .555.16.969.484 1.25.32.274.734.453 1.234.547q.75.14 1.563.235.731.08 1.516.25c.52.117 1.015.28 1.484.5.476.218.89.515 1.234.89q.529.55.735 1.422c.07.344.109.656.109.938q0 1.065-.469 1.875-.456.813-1.234 1.375a5.7 5.7 0 0 1-1.734.859 6.7 6.7 0 0 1-1.907.281 6.3 6.3 0 0 1-1.703-.25 5.9 5.9 0 0 1-1.625-.734q-.75-.481-1.265-1.203-.503-.732-.594-1.703l-.031-.391 2.109-.047.016.313v-.079q.075.657.562 1.125c.32.305.719.532 1.188.688q.702.22 1.359.219c.52 0 1.023-.086 1.516-.266q.749-.28 1.234-.812a1.82 1.82 0 0 0 .484-1.266q-.002-.218-.062-.5a1.26 1.26 0 0 0-.61-.828q-.486-.281-1.171-.39-.676-.124-1.391-.188a20 20 0 0 1-1.719-.266 6 6 0 0 1-1.61-.562 3.4 3.4 0 0 1-1.218-1.079q-.487-.685-.562-1.828v.032q-.002-.105-.016-.188v-.172q0-1.325.797-2.39.715-.937 1.906-1.422c.8-.32 1.617-.485 2.453-.485q1.124.001 2.172.407a4.36 4.36 0 0 1 1.797 1.234q.75.83.937 2.14Zm17.783 4.64q.013.08.015.172v.172a3.2 3.2 0 0 1-.062.625h-9.422q-.001 1.095.578 1.875a3.95 3.95 0 0 0 1.469 1.203q.872.422 1.703.422c.688 0 1.328-.148 1.922-.453q.89-.451 1.39-1.406h2.079c-.274.812-.688 1.492-1.25 2.03q-.846.816-1.938 1.22c-.719.257-1.46.39-2.219.39a6.4 6.4 0 0 1-2.109-.36 5.6 5.6 0 0 1-1.86-1.077 5.1 5.1 0 0 1-1.296-1.797q-.486-1.079-.485-2.531-.001-1.435.485-2.5a5.2 5.2 0 0 1 1.297-1.797 5.7 5.7 0 0 1 1.86-1.078 6.5 6.5 0 0 1 2.14-.36q1.389.002 2.656.594a5.3 5.3 0 0 1 2.11 1.75q.843 1.16.937 2.906m-2.125-.703q-.175-1.012-.719-1.61a3.3 3.3 0 0 0-1.297-.89 4.4 4.4 0 0 0-1.562-.281q-.799 0-1.578.281a3.3 3.3 0 0 0-1.329.906q-.564.61-.765 1.594Zm17.73 2.516c-.18.992-.559 1.812-1.14 2.469a5.4 5.4 0 0 1-2.063 1.453 6.4 6.4 0 0 1-4.562.125 5.8 5.8 0 0 1-1.86-1.094 5.15 5.15 0 0 1-1.297-1.781c-.324-.72-.484-1.555-.484-2.516q-.001-1.437.484-2.516a4.9 4.9 0 0 1 1.313-1.78 5.9 5.9 0 0 1 1.859-1.079 6.44 6.44 0 0 1 4.578.125 5.44 5.44 0 0 1 2.031 1.469q.872.985 1.14 2.469h-2.077c-.25-.895-.711-1.555-1.375-1.985a3.84 3.84 0 0 0-2.14-.656q-.94.002-1.813.437a3.6 3.6 0 0 0-1.438 1.313q-.549.86-.547 2.203-.002 1.345.547 2.234a3.56 3.56 0 0 0 1.438 1.313 4.15 4.15 0 0 0 1.828.422q1.156 0 2.14-.656.985-.657 1.36-1.97Zm12.485 2.765c-.406.606-.914 1.032-1.515 1.282a5.4 5.4 0 0 1-2 .359q-1.687 0-2.766-.656-1.065-.668-1.563-1.875-.501-1.2-.5-2.781V9.437h2.016v6.094q0 1.03.234 1.828c.157.53.446.949.875 1.25q.638.438 1.844.437 1.594.001 2.438-1 .843-.998.843-2.453V9.437h2.016V20.67h-1.922Zm9.088-8.281q.593-.843 1.407-1.219a4 4 0 0 1 1.734-.39q.329 0 .656.047.33.032.657.125v1.765a3.7 3.7 0 0 0-1.032-.14 3.24 3.24 0 0 0-1.703.468 3.4 3.4 0 0 0-1.25 1.25c-.312.524-.469 1.125-.469 1.813v6.031h-2V9.561h2Zm19.275 3.703c.007.055.015.11.015.172v.172a3.2 3.2 0 0 1-.062.625h-9.422q-.001 1.095.578 1.875a3.95 3.95 0 0 0 1.469 1.203q.872.422 1.703.422c.687 0 1.328-.148 1.922-.453q.888-.451 1.39-1.406h2.078c-.273.812-.687 1.492-1.25 2.03q-.845.816-1.937 1.22a6.6 6.6 0 0 1-2.219.39 6.4 6.4 0 0 1-2.11-.36 5.6 5.6 0 0 1-1.859-1.077 5.1 5.1 0 0 1-1.297-1.797q-.485-1.079-.484-2.531-.001-1.435.484-2.5a5.2 5.2 0 0 1 1.297-1.797 5.7 5.7 0 0 1 1.86-1.078 6.5 6.5 0 0 1 2.14-.36q1.39.002 2.657.594a5.3 5.3 0 0 1 2.109 1.75q.844 1.16.937 2.906m-2.126-.703q-.174-1.012-.718-1.61a3.3 3.3 0 0 0-1.297-.89 4.4 4.4 0 0 0-1.563-.281q-.796 0-1.578.281a3.3 3.3 0 0 0-1.328.906q-.565.61-.766 1.594Zm16.003 3.109-1.406 3.641h-2.235l5.782-14.594h1.515l5.781 14.594h-2.218l-1.375-3.64Zm5.078-1.953-2.156-5.687-2.156 5.687Zm12.961-7.015v10.672h2.687v1.937h-7.437v-1.937h2.672V8.062h-2.672V6.14h7.437v1.922Zm22.601 1.922a1.94 1.94 0 0 0-.593-1.032 2.8 2.8 0 0 0-1.063-.593 3.9 3.9 0 0 0-1.219-.203q-.751.001-1.484.265a2.5 2.5 0 0 0-1.188.828 1.7 1.7 0 0 0-.28.532 2.2 2.2 0 0 0-.079.593c0 .555.16.969.484 1.25.32.274.735.453 1.235.547q.75.14 1.562.235.732.08 1.516.25c.52.117 1.016.28 1.484.5q.716.327 1.235.89.527.55.734 1.422c.07.344.11.656.11.938q0 1.065-.47 1.875-.455.813-1.234 1.375a5.7 5.7 0 0 1-1.734.859 6.7 6.7 0 0 1-1.906.281 6.3 6.3 0 0 1-1.703-.25 5.9 5.9 0 0 1-1.625-.734q-.75-.481-1.266-1.203c-.336-.489-.531-1.055-.594-1.703l-.031-.391 2.11-.047.015.313v-.079q.076.657.562 1.125c.32.305.72.532 1.188.688q.703.22 1.36.219c.519 0 1.023-.086 1.515-.266q.749-.28 1.234-.812c.32-.352.485-.774.485-1.266 0-.145-.024-.313-.063-.5a1.26 1.26 0 0 0-.61-.828q-.485-.281-1.171-.39-.675-.124-1.39-.188a20 20 0 0 1-1.72-.266 6 6 0 0 1-1.609-.562 3.4 3.4 0 0 1-1.219-1.079q-.486-.685-.562-1.828v.032c0-.07-.008-.133-.016-.188v-.172q0-1.325.797-2.39.716-.937 1.906-1.422a6.6 6.6 0 0 1 2.454-.485q1.124.001 2.171.407a4.36 4.36 0 0 1 1.797 1.234q.75.83.938 2.14Zm14.037-.61h2.14L256.81 24.11h-2.14l1.562-4.016-4.344-10.719h2.14l2.016 4.938 1.266 3.64 1.297-3.625Zm7.51 3.376q-.001.516.25.812.263.282.672.406.42.128.86.156.45.036.812.047.78.064 1.578.235a5.5 5.5 0 0 1 1.453.53q.655.363 1.047 1 .406.627.406 1.563 0 .971-.422 1.625a3.16 3.16 0 0 1-1.11 1.032c-.46.25-.964.43-1.515.53a7.8 7.8 0 0 1-1.593.173 6.8 6.8 0 0 1-2.172-.344 3.83 3.83 0 0 1-1.688-1.14q-.657-.797-.734-2.126h2.015q.06.938.829 1.407.761.454 1.78.453c.345 0 .712-.04 1.11-.125a2.5 2.5 0 0 0 1.047-.5q.437-.359.438-1.016 0-.48-.282-.75a1.8 1.8 0 0 0-.703-.437 5 5 0 0 0-.89-.22q-.457-.059-.813-.077a11 11 0 0 1-1.516-.203 5.2 5.2 0 0 1-1.421-.5 2.7 2.7 0 0 1-1.032-.954q-.39-.607-.39-1.53 0-1.296.656-2.063a3.63 3.63 0 0 1 1.687-1.094 6.9 6.9 0 0 1 2.094-.328q1.108 0 2.047.328.951.33 1.563 1.047.622.72.687 1.89h-1.984q-.096-.731-.782-1.093-.69-.36-1.593-.36a3.5 3.5 0 0 0-1.657.39c-.492.25-.734.665-.734 1.235m13.994-3.203h2.454v1.594h-2.454v6.281q-.002.984.454 1.313.45.314 1.218.312h.407a4 4 0 0 0 .437-.047v1.688q-.251.03-.484.031-.222.014-.438.016-1.096 0-1.906-.297a2.42 2.42 0 0 1-1.266-1.016q-.438-.714-.437-2.015V11.14h-1.656V9.546h1.656V7.452l2.015-.39Zm17.415 5.078c.007.055.015.11.015.172v.172a3.2 3.2 0 0 1-.062.625h-9.422q-.001 1.095.578 1.875a3.95 3.95 0 0 0 1.469 1.203q.872.422 1.703.422c.687 0 1.328-.148 1.922-.453q.888-.451 1.39-1.406h2.078c-.273.812-.687 1.492-1.25 2.03q-.845.816-1.937 1.22a6.6 6.6 0 0 1-2.219.39 6.4 6.4 0 0 1-2.11-.36 5.6 5.6 0 0 1-1.859-1.077 5.1 5.1 0 0 1-1.296-1.797q-.486-1.079-.485-2.531-.001-1.435.485-2.5a5.2 5.2 0 0 1 1.296-1.797 5.7 5.7 0 0 1 1.86-1.078 6.5 6.5 0 0 1 2.14-.36q1.39.002 2.657.594a5.3 5.3 0 0 1 2.11 1.75q.843 1.16.937 2.906m-2.125-.703q-.175-1.012-.72-1.61a3.3 3.3 0 0 0-1.296-.89 4.4 4.4 0 0 0-1.563-.281q-.796 0-1.578.281a3.3 3.3 0 0 0-1.328.906c-.375.407-.633.938-.765 1.594Zm9.105-3c.382-.562.836-.96 1.359-1.203a4.3 4.3 0 0 1 1.766-.36q1.17 0 2.171.376 1 .375 1.61 1.547 1.06-1.887 3.562-1.922 1.546 0 2.516.656a3.85 3.85 0 0 1 1.422 1.781q.469 1.113.469 2.531v6.344h-2.016V14.36q-.001-.78-.172-1.5-.174-.732-.687-1.188-.503-.451-1.47-.453c-.991 0-1.73.305-2.218.906-.492.606-.734 1.36-.734 2.266v6.281h-2.016v-6.25q0-.779-.234-1.515a2.5 2.5 0 0 0-.766-1.204q-.533-.482-1.453-.484-1.314.001-2.219.875-.89.88-.89 2.531v6.047h-2.016V9.36h2.016Zm21.418 1.829q-.001.516.25.812.263.282.672.406.421.128.86.156.45.036.812.047.78.064 1.578.235a5.5 5.5 0 0 1 1.453.53q.655.363 1.047 1 .406.627.406 1.563c0 .649-.14 1.188-.421 1.625a3.16 3.16 0 0 1-1.11 1.032c-.46.25-.965.43-1.515.53a7.8 7.8 0 0 1-1.594.173 6.8 6.8 0 0 1-2.172-.344 3.83 3.83 0 0 1-1.688-1.14q-.657-.797-.734-2.126h2.016q.06.938.828 1.407.761.454 1.781.453c.344 0 .711-.04 1.11-.125a2.5 2.5 0 0 0 1.046-.5q.437-.359.438-1.016 0-.48-.281-.75a1.8 1.8 0 0 0-.704-.437 5 5 0 0 0-.89-.22q-.456-.059-.813-.077a11 11 0 0 1-1.515-.203 5.2 5.2 0 0 1-1.422-.5 2.7 2.7 0 0 1-1.031-.954q-.392-.607-.391-1.53 0-1.296.656-2.063a3.63 3.63 0 0 1 1.688-1.094 6.9 6.9 0 0 1 2.093-.328q1.109 0 2.047.328c.633.219 1.157.57 1.563 1.047q.622.72.687 1.89h-1.984q-.095-.731-.781-1.093-.692-.36-1.594-.36a3.5 3.5 0 0 0-1.656.39c-.493.25-.735.665-.735 1.235m0 0"/></g></svg>