<svg xmlns="http://www.w3.org/2000/svg" xmlns:xlink="http://www.w3.org/1999/xlink" viewBox="55 232 490 145" preserveAspectRatio="xMidYMid meet" version="1.0"><defs><g/><clipPath id="5357a186df"><path d="M 170.195312 248.101562 L 179.195312 248.101562 L 179.195312 351.890625 L 170.195312 351.890625 Z M 170.195312 248.101562 " clip-rule="nonzero"/></clipPath><clipPath id="5bcfdb5911"><rect x="0" width="31" y="0" height="44"/></clipPath><clipPath id="9929876102"><rect x="0" width="80" y="0" height="128"/></clipPath><clipPath id="534ccd54f7"><rect x="0" width="328" y="0" height="58"/></clipPath><clipPath id="19cf570a82"><path d="M 86 9 L 98 9 L 98 25.921875 L 86 25.921875 Z M 86 9 " clip-rule="nonzero"/></clipPath><clipPath id="9102049b1c"><rect x="0" width="338" y="0" height="26"/></clipPath></defs><g clip-path="url(#5357a186df)"><path stroke-linecap="butt" transform="matrix(0.75, 0, 0, 0.75, 170.19468, 248.047656)" fill="none" stroke-linejoin="miter" d="M 0.000843016 0.0718756 L 12.375844 0.0718756 L 12.375844 138.457298 L 0.000843016 138.457298 Z M 0.000843016 0.0718756 " stroke="#000000" stroke-width="4" stroke-opacity="1" stroke-miterlimit="4"/></g><g transform="matrix(1, 0, 0, 1, 84, 282)"><g clip-path="url(#5bcfdb5911)"><g fill="#000000" fill-opacity="1"><g transform="translate(1.140583, 34.629955)"><g><path d="M 1.265625 -12.625 C 1.265625 -14.445312 1.597656 -16.148438 2.265625 -17.734375 C 2.941406 -19.328125 3.878906 -20.722656 5.078125 -21.921875 C 6.285156 -23.128906 7.675781 -24.066406 9.25 -24.734375 C 10.820312 -25.410156 12.523438 -25.75 14.359375 -25.75 C 16.179688 -25.75 17.882812 -25.410156 19.46875 -24.734375 C 21.0625 -24.066406 22.457031 -23.128906 23.65625 -21.921875 C 24.851562 -20.722656 25.789062 -19.328125 26.46875 -17.734375 C 27.144531 -16.148438 27.484375 -14.445312 27.484375 -12.625 C 27.484375 -10.789062 27.144531 -9.085938 26.46875 -7.515625 C 25.789062 -5.941406 24.851562 -4.550781 23.65625 -3.34375 C 22.457031 -2.144531 21.0625 -1.207031 19.46875 -0.53125 C 17.882812 0.132812 16.179688 0.46875 14.359375 0.46875 C 12.523438 0.46875 10.820312 0.132812 9.25 -0.53125 C 7.675781 -1.207031 6.285156 -2.144531 5.078125 -3.34375 C 3.878906 -4.550781 2.941406 -5.941406 2.265625 -7.515625 C 1.597656 -9.085938 1.265625 -10.789062 1.265625 -12.625 Z M 5.015625 -12.625 C 5.015625 -10.894531 5.429688 -9.328125 6.265625 -7.921875 C 7.109375 -6.515625 8.234375 -5.390625 9.640625 -4.546875 C 11.046875 -3.703125 12.617188 -3.28125 14.359375 -3.28125 C 16.085938 -3.28125 17.660156 -3.703125 19.078125 -4.546875 C 20.492188 -5.390625 21.625 -6.515625 22.46875 -7.921875 C 23.3125 -9.328125 23.734375 -10.894531 23.734375 -12.625 C 23.734375 -14.351562 23.3125 -15.925781 22.46875 -17.34375 C 21.625 -18.757812 20.492188 -19.890625 19.078125 -20.734375 C 17.660156 -21.578125 16.085938 -22 14.359375 -22 C 12.617188 -22 11.046875 -21.578125 9.640625 -20.734375 C 8.234375 -19.890625 7.109375 -18.757812 6.265625 -17.34375 C 5.429688 -15.925781 5.015625 -14.351562 5.015625 -12.625 Z M 5.015625 -12.625 "/></g></g></g></g></g><g transform="matrix(1, 0, 0, 1, 60, 240)"><g clip-path="url(#9929876102)"><g fill="#000000" fill-opacity="1"><g transform="translate(-0.00000226, 100.51356)"><g><path d="M 71.828125 -52.21875 C 70.972656 -54.28125 69.941406 -56.160156 68.734375 -57.859375 C 67.523438 -59.566406 66.210938 -61.164062 64.796875 -62.65625 C 61.734375 -65.851562 58.125 -68.359375 53.96875 -70.171875 C 49.8125 -71.984375 45.351562 -72.890625 40.59375 -72.890625 C 35.90625 -72.890625 31.484375 -71.984375 27.328125 -70.171875 C 23.171875 -68.359375 19.53125 -65.851562 16.40625 -62.65625 C 13.351562 -59.53125 10.921875 -55.816406 9.109375 -51.515625 C 7.296875 -47.222656 6.390625 -42.445312 6.390625 -37.1875 C 6.390625 -31.9375 7.296875 -27.234375 9.109375 -23.078125 C 10.921875 -18.921875 13.351562 -15.273438 16.40625 -12.140625 C 19.53125 -8.953125 23.171875 -6.429688 27.328125 -4.578125 C 31.484375 -2.734375 35.90625 -1.8125 40.59375 -1.8125 C 45.351562 -1.8125 49.8125 -2.734375 53.96875 -4.578125 C 58.125 -6.429688 61.734375 -8.953125 64.796875 -12.140625 C 66.210938 -13.566406 67.523438 -15.128906 68.734375 -16.828125 C 69.941406 -18.535156 70.972656 -20.421875 71.828125 -22.484375 L 74.375 -22.484375 C 72.457031 -17.941406 69.796875 -13.925781 66.390625 -10.4375 C 63.117188 -7.03125 59.28125 -4.347656 54.875 -2.390625 C 50.46875 -0.441406 45.707031 0.53125 40.59375 0.53125 C 35.550781 0.53125 30.828125 -0.441406 26.421875 -2.390625 C 22.023438 -4.347656 18.15625 -7.03125 14.8125 -10.4375 C 11.539062 -13.851562 8.925781 -17.707031 6.96875 -22 C 5.019531 -26.300781 4.046875 -31.363281 4.046875 -37.1875 C 4.046875 -42.800781 5.019531 -47.863281 6.96875 -52.375 C 8.925781 -56.882812 11.539062 -60.84375 14.8125 -64.25 C 18.15625 -67.664062 22.023438 -70.347656 26.421875 -72.296875 C 30.828125 -74.253906 35.550781 -75.234375 40.59375 -75.234375 C 45.707031 -75.234375 50.46875 -74.253906 54.875 -72.296875 C 59.28125 -70.347656 63.117188 -67.664062 66.390625 -64.25 C 68.023438 -62.550781 69.535156 -60.6875 70.921875 -58.65625 C 72.304688 -56.632812 73.457031 -54.488281 74.375 -52.21875 Z M 71.828125 -52.21875 "/></g></g></g></g></g><g transform="matrix(1, 0, 0, 1, 196, 256)"><g clip-path="url(#534ccd54f7)"><g fill="#000000" fill-opacity="1"><g transform="translate(1.027541, 45.033425)"><g><path d="M 1.828125 -16.359375 C 1.828125 -18.671875 2.25 -20.835938 3.09375 -22.859375 C 3.945312 -24.878906 5.078125 -26.644531 6.484375 -28.15625 C 7.921875 -29.625 9.660156 -30.828125 11.703125 -31.765625 C 13.742188 -32.710938 15.875 -33.1875 18.09375 -33.1875 C 20.601562 -33.1875 22.898438 -32.675781 24.984375 -31.65625 C 27.066406 -30.632812 28.835938 -29.207031 30.296875 -27.375 C 31.753906 -25.539062 32.796875 -23.390625 33.421875 -20.921875 L 28.71875 -20.921875 C 27.84375 -23.390625 26.457031 -25.265625 24.5625 -26.546875 C 22.664062 -27.835938 20.507812 -28.484375 18.09375 -28.484375 C 16.53125 -28.484375 15.007812 -28.144531 13.53125 -27.46875 C 12.0625 -26.800781 10.8125 -25.914062 9.78125 -24.8125 C 8.738281 -23.75 7.921875 -22.492188 7.328125 -21.046875 C 6.734375 -19.609375 6.4375 -18.046875 6.4375 -16.359375 C 6.4375 -14.722656 6.722656 -13.1875 7.296875 -11.75 C 7.878906 -10.3125 8.691406 -9.039062 9.734375 -7.9375 C 10.765625 -6.875 12.023438 -6.03125 13.515625 -5.40625 C 15.003906 -4.78125 16.53125 -4.46875 18.09375 -4.46875 C 20.601562 -4.46875 22.835938 -5.15625 24.796875 -6.53125 C 26.753906 -7.90625 28.15625 -9.832031 29 -12.3125 L 33.65625 -12.3125 C 33.03125 -9.832031 31.976562 -7.644531 30.5 -5.75 C 29.03125 -3.851562 27.238281 -2.378906 25.125 -1.328125 C 23.007812 -0.285156 20.664062 0.234375 18.09375 0.234375 C 15.875 0.234375 13.765625 -0.191406 11.765625 -1.046875 C 9.773438 -1.910156 8.0625 -3.097656 6.625 -4.609375 C 5.21875 -6.109375 4.066406 -7.867188 3.171875 -9.890625 C 2.273438 -11.910156 1.828125 -14.066406 1.828125 -16.359375 Z M 1.828125 -16.359375 "/></g></g></g><g fill="#000000" fill-opacity="1"><g transform="translate(34.954347, 45.033425)"><g><path d="M 14.90625 -28.8125 L 14.90625 -4.421875 L 21.015625 -4.421875 L 21.015625 0 L 4.046875 0 L 4.046875 -4.421875 L 10.15625 -4.421875 L 10.15625 -28.8125 L 4.046875 -28.8125 L 4.046875 -33.1875 L 21.015625 -33.1875 L 21.015625 -28.8125 Z M 14.90625 -28.8125 "/></g></g></g><g fill="#000000" fill-opacity="1"><g transform="translate(59.953144, 45.033425)"><g><path d="M 22.703125 -19.828125 L 22.703125 -33.1875 L 27.5 -33.1875 L 27.5 0 L 22.703125 0 L 22.703125 -15.140625 L 8.78125 -15.140625 L 8.78125 0 L 4.046875 0 L 4.046875 -33.1875 L 8.78125 -33.1875 L 8.78125 -19.828125 Z M 22.703125 -19.828125 "/></g></g></g><g fill="#000000" fill-opacity="1"><g transform="translate(92.000517, 45.033425)"><g><path d="M 8.125 -8.3125 L 4.9375 0 L -0.1875 0 L 13.015625 -33.328125 L 16.5 -33.328125 L 29.703125 0 L 24.625 0 L 21.484375 -8.3125 Z M 19.734375 -12.78125 L 14.8125 -25.75 L 9.875 -12.78125 Z M 19.734375 -12.78125 "/></g></g></g><g fill="#000000" fill-opacity="1"><g transform="translate(122.262269, 45.033425)"><g><path d="M 4.046875 -32.90625 L 7.703125 -32.90625 L 23.734375 -9.734375 L 23.734375 -32.90625 L 28.4375 -32.90625 L 28.4375 0 L 24.671875 0 L 8.78125 -22.984375 L 8.78125 0 L 4.046875 0 Z M 4.046875 -32.90625 "/></g></g></g><g fill="#000000" fill-opacity="1"><g transform="translate(154.732513, 45.033425)"><g/></g></g><g fill="#000000" fill-opacity="1"><g transform="translate(166.433079, 45.033425)"><g><path d="M 1.640625 -16.453125 C 1.640625 -18.828125 2.078125 -21.046875 2.953125 -23.109375 C 3.835938 -25.179688 5.0625 -27 6.625 -28.5625 C 8.195312 -30.132812 10.007812 -31.359375 12.0625 -32.234375 C 14.113281 -33.117188 16.328125 -33.5625 18.703125 -33.5625 C 21.085938 -33.5625 23.3125 -33.117188 25.375 -32.234375 C 27.445312 -31.359375 29.265625 -30.132812 30.828125 -28.5625 C 32.398438 -27 33.625 -25.179688 34.5 -23.109375 C 35.375 -21.046875 35.8125 -18.828125 35.8125 -16.453125 C 35.8125 -14.066406 35.375 -11.847656 34.5 -9.796875 C 33.625 -7.742188 32.398438 -5.929688 30.828125 -4.359375 C 29.265625 -2.796875 27.445312 -1.578125 25.375 -0.703125 C 23.3125 0.171875 21.085938 0.609375 18.703125 0.609375 C 16.328125 0.609375 14.113281 0.171875 12.0625 -0.703125 C 10.007812 -1.578125 8.195312 -2.796875 6.625 -4.359375 C 5.0625 -5.929688 3.835938 -7.742188 2.953125 -9.796875 C 2.078125 -11.847656 1.640625 -14.066406 1.640625 -16.453125 Z M 6.53125 -16.453125 C 6.53125 -14.191406 7.078125 -12.144531 8.171875 -10.3125 C 9.273438 -8.476562 10.742188 -7.015625 12.578125 -5.921875 C 14.410156 -4.828125 16.453125 -4.28125 18.703125 -4.28125 C 20.960938 -4.28125 23.015625 -4.828125 24.859375 -5.921875 C 26.710938 -7.015625 28.1875 -8.476562 29.28125 -10.3125 C 30.375 -12.144531 30.921875 -14.191406 30.921875 -16.453125 C 30.921875 -18.703125 30.375 -20.75 29.28125 -22.59375 C 28.1875 -24.445312 26.710938 -25.921875 24.859375 -27.015625 C 23.015625 -28.117188 20.960938 -28.671875 18.703125 -28.671875 C 16.453125 -28.671875 14.410156 -28.117188 12.578125 -27.015625 C 10.742188 -25.921875 9.273438 -24.445312 8.171875 -22.59375 C 7.078125 -20.75 6.53125 -18.703125 6.53125 -16.453125 Z M 6.53125 -16.453125 "/></g></g></g><g fill="#000000" fill-opacity="1"><g transform="translate(204.213222, 45.033425)"><g><path d="M 7.375 -4.234375 L 25.9375 -4.234375 L 25.9375 0 L 1.875 0 L 1.875 -3.90625 L 20.109375 -29 L 1.875 -29 L 1.875 -33.234375 L 25.703125 -33.234375 L 25.703125 -29.515625 Z M 7.375 -4.234375 "/></g></g></g><g fill="#000000" fill-opacity="1"><g transform="translate(232.031429, 45.033425)"><g><path d="M 22.703125 -19.828125 L 22.703125 -33.1875 L 27.5 -33.1875 L 27.5 0 L 22.703125 0 L 22.703125 -15.140625 L 8.78125 -15.140625 L 8.78125 0 L 4.046875 0 L 4.046875 -33.1875 L 8.78125 -33.1875 L 8.78125 -19.828125 Z M 22.703125 -19.828125 "/></g></g></g><g fill="#000000" fill-opacity="1"><g transform="translate(264.078807, 45.033425)"><g><path d="M 8.125 -8.3125 L 4.9375 0 L -0.1875 0 L 13.015625 -33.328125 L 16.5 -33.328125 L 29.703125 0 L 24.625 0 L 21.484375 -8.3125 Z M 19.734375 -12.78125 L 14.8125 -25.75 L 9.875 -12.78125 Z M 19.734375 -12.78125 "/></g></g></g><g fill="#000000" fill-opacity="1"><g transform="translate(294.340559, 45.033425)"><g><path d="M 4.046875 -32.90625 L 7.703125 -32.90625 L 23.734375 -9.734375 L 23.734375 -32.90625 L 28.4375 -32.90625 L 28.4375 0 L 24.671875 0 L 8.78125 -22.984375 L 8.78125 0 L 4.046875 0 Z M 4.046875 -32.90625 "/></g></g></g></g></g><g transform="matrix(1, 0, 0, 1, 202, 312)"><g clip-path="url(#9102049b1c)"><g fill="#000000" fill-opacity="1"><g transform="translate(1.097819, 20.671143)"><g><path d="M 7.765625 -14.546875 C 8.554688 -14.546875 9.242188 -14.363281 9.828125 -14 C 10.410156 -13.632812 10.859375 -13.164062 11.171875 -12.59375 C 11.484375 -12.019531 11.640625 -11.410156 11.640625 -10.765625 C 11.640625 -10.242188 11.523438 -9.734375 11.296875 -9.234375 C 11.066406 -8.734375 10.703125 -8.296875 10.203125 -7.921875 C 11.023438 -7.578125 11.601562 -7.066406 11.9375 -6.390625 C 12.28125 -5.710938 12.453125 -5.03125 12.453125 -4.34375 C 12.453125 -3.625 12.289062 -2.929688 11.96875 -2.265625 C 11.65625 -1.609375 11.191406 -1.066406 10.578125 -0.640625 C 9.960938 -0.210938 9.191406 0 8.265625 0 L 1.765625 0 L 1.765625 -14.546875 Z M 7.71875 -8.65625 C 8.289062 -8.65625 8.726562 -8.867188 9.03125 -9.296875 C 9.332031 -9.722656 9.484375 -10.1875 9.484375 -10.6875 C 9.484375 -11.164062 9.34375 -11.597656 9.0625 -11.984375 C 8.78125 -12.378906 8.347656 -12.578125 7.765625 -12.578125 L 3.828125 -12.578125 L 3.828125 -8.65625 Z M 8.265625 -2.015625 C 8.734375 -2.015625 9.117188 -2.128906 9.421875 -2.359375 C 9.734375 -2.585938 9.96875 -2.878906 10.125 -3.234375 C 10.289062 -3.585938 10.375 -3.953125 10.375 -4.328125 C 10.375 -4.703125 10.289062 -5.0625 10.125 -5.40625 C 9.96875 -5.75 9.734375 -6.035156 9.421875 -6.265625 C 9.117188 -6.492188 8.734375 -6.609375 8.265625 -6.609375 L 3.828125 -6.609375 L 3.828125 -2.015625 Z M 8.265625 -2.015625 "/></g></g></g><g fill="#000000" fill-opacity="1"><g transform="translate(16.348041, 20.671143)"><g><path d="M 9.75 -1.46875 C 9.34375 -0.863281 8.835938 -0.4375 8.234375 -0.1875 C 7.628906 0.0507812 6.960938 0.171875 6.234375 0.171875 C 5.109375 0.171875 4.1875 -0.046875 3.46875 -0.484375 C 2.757812 -0.929688 2.238281 -1.554688 1.90625 -2.359375 C 1.570312 -3.160156 1.40625 -4.085938 1.40625 -5.140625 L 1.40625 -11.234375 L 3.421875 -11.234375 L 3.421875 -5.140625 C 3.421875 -4.453125 3.5 -3.84375 3.65625 -3.3125 C 3.8125 -2.78125 4.101562 -2.363281 4.53125 -2.0625 C 4.957031 -1.769531 5.570312 -1.625 6.375 -1.625 C 7.4375 -1.625 8.25 -1.957031 8.8125 -2.625 C 9.375 -3.289062 9.65625 -4.109375 9.65625 -5.078125 L 9.65625 -11.234375 L 11.671875 -11.234375 L 11.671875 0 L 9.75 0 Z M 9.75 -1.46875 "/></g></g></g><g fill="#000000" fill-opacity="1"><g transform="translate(31.63942, 20.671143)"><g><path d="M 1.421875 -14 C 1.421875 -14.375 1.550781 -14.65625 1.8125 -14.84375 C 2.082031 -15.039062 2.378906 -15.140625 2.703125 -15.140625 C 3.015625 -15.140625 3.296875 -15.046875 3.546875 -14.859375 C 3.804688 -14.679688 3.9375 -14.394531 3.9375 -14 C 3.9375 -13.613281 3.804688 -13.316406 3.546875 -13.109375 C 3.285156 -12.910156 2.992188 -12.8125 2.671875 -12.8125 C 2.367188 -12.8125 2.082031 -12.910156 1.8125 -13.109375 C 1.550781 -13.316406 1.421875 -13.613281 1.421875 -14 Z M 1.671875 -11.25 L 1.671875 0 L 3.6875 0 L 3.6875 -11.25 Z M 1.671875 -11.25 "/></g></g></g><g fill="#000000" fill-opacity="1"><g transform="translate(39.069077, 20.671143)"><g><path d="M 1.546875 0 L 1.546875 -14.40625 L 3.5625 -14.40625 L 3.5625 0 Z M 1.546875 0 "/></g></g></g><g fill="#000000" fill-opacity="1"><g transform="translate(46.210612, 20.671143)"><g><path d="M 12.484375 -14.40625 L 12.484375 0 L 10.46875 0 L 10.46875 -1.5 C 10.070312 -0.894531 9.523438 -0.460938 8.828125 -0.203125 C 8.140625 0.046875 7.445312 0.175781 6.75 0.1875 C 5.457031 0.1875 4.367188 -0.0664062 3.484375 -0.578125 C 2.597656 -1.085938 1.929688 -1.78125 1.484375 -2.65625 C 1.046875 -3.53125 0.828125 -4.519531 0.828125 -5.625 C 0.828125 -6.6875 1.054688 -7.644531 1.515625 -8.5 C 1.972656 -9.363281 2.644531 -10.046875 3.53125 -10.546875 C 4.414062 -11.054688 5.484375 -11.3125 6.734375 -11.3125 C 7.421875 -11.3125 8.09375 -11.207031 8.75 -11 C 9.414062 -10.789062 9.988281 -10.351562 10.46875 -9.6875 L 10.46875 -14.40625 Z M 10.46875 -5.578125 C 10.46875 -6.472656 10.285156 -7.207031 9.921875 -7.78125 C 9.566406 -8.363281 9.101562 -8.800781 8.53125 -9.09375 C 7.957031 -9.394531 7.359375 -9.546875 6.734375 -9.546875 C 5.910156 -9.546875 5.207031 -9.351562 4.625 -8.96875 C 4.050781 -8.582031 3.609375 -8.085938 3.296875 -7.484375 C 2.992188 -6.878906 2.84375 -6.242188 2.84375 -5.578125 C 2.84375 -4.816406 2.992188 -4.132812 3.296875 -3.53125 C 3.597656 -2.9375 4.039062 -2.46875 4.625 -2.125 C 5.207031 -1.78125 5.898438 -1.609375 6.703125 -1.609375 C 7.335938 -1.609375 7.941406 -1.75 8.515625 -2.03125 C 9.097656 -2.320312 9.566406 -2.757812 9.921875 -3.34375 C 10.285156 -3.9375 10.46875 -4.679688 10.46875 -5.578125 Z M 10.46875 -5.578125 "/></g></g></g><g fill="#000000" fill-opacity="1"><g transform="translate(62.325211, 20.671143)"><g><path d="M 1.421875 -14 C 1.421875 -14.375 1.550781 -14.65625 1.8125 -14.84375 C 2.082031 -15.039062 2.378906 -15.140625 2.703125 -15.140625 C 3.015625 -15.140625 3.296875 -15.046875 3.546875 -14.859375 C 3.804688 -14.679688 3.9375 -14.394531 3.9375 -14 C 3.9375 -13.613281 3.804688 -13.316406 3.546875 -13.109375 C 3.285156 -12.910156 2.992188 -12.8125 2.671875 -12.8125 C 2.367188 -12.8125 2.082031 -12.910156 1.8125 -13.109375 C 1.550781 -13.316406 1.421875 -13.613281 1.421875 -14 Z M 1.671875 -11.25 L 1.671875 0 L 3.6875 0 L 3.6875 -11.25 Z M 1.671875 -11.25 "/></g></g></g><g fill="#000000" fill-opacity="1"><g transform="translate(69.898935, 20.671143)"><g><path d="M 3.5625 -9.75 C 3.96875 -10.351562 4.460938 -10.757812 5.046875 -10.96875 C 5.628906 -11.1875 6.269531 -11.296875 6.96875 -11.296875 C 8.113281 -11.296875 9.035156 -11.078125 9.734375 -10.640625 C 10.441406 -10.203125 10.960938 -9.582031 11.296875 -8.78125 C 11.640625 -7.988281 11.8125 -7.054688 11.8125 -5.984375 L 11.8125 0 L 9.8125 0 L 9.8125 -5.96875 C 9.8125 -6.664062 9.734375 -7.28125 9.578125 -7.8125 C 9.421875 -8.351562 9.125 -8.769531 8.6875 -9.0625 C 8.257812 -9.351562 7.640625 -9.5 6.828125 -9.5 C 6.128906 -9.5 5.535156 -9.34375 5.046875 -9.03125 C 4.566406 -8.726562 4.195312 -8.316406 3.9375 -7.796875 C 3.6875 -7.273438 3.5625 -6.691406 3.5625 -6.046875 L 3.5625 0 L 1.546875 0 L 1.546875 -11.125 L 3.5625 -11.125 Z M 3.5625 -9.75 "/></g></g></g><g clip-path="url(#19cf570a82)"><g fill="#000000" fill-opacity="1"><g transform="translate(85.272634, 20.671143)"><g><path d="M 12.703125 -0.40625 C 12.703125 0.457031 12.535156 1.191406 12.203125 1.796875 C 11.867188 2.410156 11.425781 2.90625 10.875 3.28125 C 10.320312 3.65625 9.703125 3.929688 9.015625 4.109375 C 8.335938 4.296875 7.65625 4.390625 6.96875 4.390625 C 6.039062 4.390625 5.164062 4.257812 4.34375 4 C 3.519531 3.75 2.847656 3.351562 2.328125 2.8125 C 1.816406 2.269531 1.5625 1.578125 1.5625 0.734375 L 3.5625 0.734375 C 3.5625 1.203125 3.734375 1.570312 4.078125 1.84375 C 4.429688 2.113281 4.859375 2.304688 5.359375 2.421875 C 5.867188 2.535156 6.367188 2.59375 6.859375 2.59375 C 7.460938 2.59375 8.054688 2.492188 8.640625 2.296875 C 9.234375 2.097656 9.722656 1.773438 10.109375 1.328125 C 10.492188 0.890625 10.6875 0.3125 10.6875 -0.40625 L 10.6875 -1.578125 C 10.195312 -0.953125 9.617188 -0.535156 8.953125 -0.328125 C 8.296875 -0.117188 7.625 -0.015625 6.9375 -0.015625 C 5.6875 -0.015625 4.617188 -0.265625 3.734375 -0.765625 C 2.859375 -1.265625 2.1875 -1.929688 1.71875 -2.765625 C 1.257812 -3.609375 1.03125 -4.53125 1.03125 -5.53125 C 1.03125 -6.550781 1.25 -7.5 1.6875 -8.375 C 2.132812 -9.25 2.796875 -9.957031 3.671875 -10.5 C 4.554688 -11.039062 5.644531 -11.3125 6.9375 -11.3125 C 7.625 -11.3125 8.316406 -11.1875 9.015625 -10.9375 C 9.722656 -10.6875 10.285156 -10.257812 10.703125 -9.65625 L 10.703125 -11.125 L 12.703125 -11.125 Z M 6.921875 -1.796875 C 7.753906 -1.796875 8.445312 -1.988281 9 -2.375 C 9.5625 -2.769531 9.984375 -3.273438 10.265625 -3.890625 C 10.546875 -4.503906 10.6875 -5.15625 10.6875 -5.84375 C 10.6875 -6.519531 10.546875 -7.140625 10.265625 -7.703125 C 9.992188 -8.265625 9.578125 -8.710938 9.015625 -9.046875 C 8.460938 -9.378906 7.773438 -9.546875 6.953125 -9.546875 C 6.128906 -9.546875 5.425781 -9.347656 4.84375 -8.953125 C 4.257812 -8.566406 3.8125 -8.066406 3.5 -7.453125 C 3.195312 -6.847656 3.046875 -6.207031 3.046875 -5.53125 C 3.054688 -4.882812 3.210938 -4.273438 3.515625 -3.703125 C 3.816406 -3.128906 4.253906 -2.664062 4.828125 -2.3125 C 5.410156 -1.96875 6.109375 -1.796875 6.921875 -1.796875 Z M 6.921875 -1.796875 "/></g></g></g></g><g fill="#000000" fill-opacity="1"><g transform="translate(101.593039, 20.671143)"><g/></g></g><g fill="#000000" fill-opacity="1"><g transform="translate(108.755151, 20.671143)"><g><path d="M 8.96875 -10.6875 C 8.875 -11.101562 8.675781 -11.445312 8.375 -11.71875 C 8.070312 -11.988281 7.71875 -12.1875 7.3125 -12.3125 C 6.90625 -12.445312 6.5 -12.515625 6.09375 -12.515625 C 5.59375 -12.515625 5.097656 -12.425781 4.609375 -12.25 C 4.117188 -12.082031 3.722656 -11.804688 3.421875 -11.421875 C 3.296875 -11.265625 3.203125 -11.085938 3.140625 -10.890625 C 3.085938 -10.691406 3.0625 -10.492188 3.0625 -10.296875 C 3.0625 -9.742188 3.222656 -9.328125 3.546875 -9.046875 C 3.867188 -8.773438 4.28125 -8.59375 4.78125 -8.5 C 5.28125 -8.40625 5.800781 -8.328125 6.34375 -8.265625 C 6.832031 -8.210938 7.335938 -8.128906 7.859375 -8.015625 C 8.378906 -7.898438 8.875 -7.734375 9.34375 -7.515625 C 9.820312 -7.296875 10.234375 -7 10.578125 -6.625 C 10.929688 -6.257812 11.175781 -5.785156 11.3125 -5.203125 C 11.382812 -4.859375 11.421875 -4.546875 11.421875 -4.265625 C 11.421875 -3.554688 11.265625 -2.929688 10.953125 -2.390625 C 10.648438 -1.847656 10.238281 -1.390625 9.71875 -1.015625 C 9.207031 -0.640625 8.628906 -0.351562 7.984375 -0.15625 C 7.347656 0.03125 6.710938 0.125 6.078125 0.125 C 5.523438 0.125 4.957031 0.0390625 4.375 -0.125 C 3.789062 -0.289062 3.25 -0.535156 2.75 -0.859375 C 2.25 -1.179688 1.828125 -1.582031 1.484375 -2.0625 C 1.148438 -2.550781 0.953125 -3.117188 0.890625 -3.765625 L 0.859375 -4.15625 L 2.96875 -4.203125 L 2.984375 -3.890625 L 2.984375 -3.96875 C 3.035156 -3.53125 3.222656 -3.15625 3.546875 -2.84375 C 3.867188 -2.539062 4.265625 -2.3125 4.734375 -2.15625 C 5.203125 -2.007812 5.65625 -1.9375 6.09375 -1.9375 C 6.613281 -1.9375 7.117188 -2.023438 7.609375 -2.203125 C 8.109375 -2.390625 8.519531 -2.660156 8.84375 -3.015625 C 9.164062 -3.367188 9.328125 -3.789062 9.328125 -4.28125 C 9.328125 -4.425781 9.304688 -4.59375 9.265625 -4.78125 C 9.179688 -5.144531 8.976562 -5.421875 8.65625 -5.609375 C 8.332031 -5.796875 7.941406 -5.925781 7.484375 -6 C 7.035156 -6.082031 6.570312 -6.144531 6.09375 -6.1875 C 5.53125 -6.25 4.957031 -6.335938 4.375 -6.453125 C 3.800781 -6.566406 3.265625 -6.753906 2.765625 -7.015625 C 2.273438 -7.273438 1.867188 -7.632812 1.546875 -8.09375 C 1.222656 -8.550781 1.035156 -9.160156 0.984375 -9.921875 L 0.984375 -9.890625 C 0.984375 -9.960938 0.976562 -10.023438 0.96875 -10.078125 C 0.96875 -10.140625 0.96875 -10.195312 0.96875 -10.25 C 0.96875 -11.132812 1.234375 -11.929688 1.765625 -12.640625 C 2.242188 -13.265625 2.878906 -13.738281 3.671875 -14.0625 C 4.472656 -14.382812 5.289062 -14.546875 6.125 -14.546875 C 6.875 -14.546875 7.597656 -14.410156 8.296875 -14.140625 C 9.003906 -13.878906 9.601562 -13.46875 10.09375 -12.90625 C 10.59375 -12.351562 10.90625 -11.640625 11.03125 -10.765625 Z M 8.96875 -10.6875 "/></g></g></g><g fill="#000000" fill-opacity="1"><g transform="translate(123.038091, 20.671143)"><g><path d="M 12.46875 -6.046875 C 12.476562 -5.992188 12.484375 -5.9375 12.484375 -5.875 C 12.484375 -5.820312 12.484375 -5.765625 12.484375 -5.703125 C 12.484375 -5.484375 12.460938 -5.273438 12.421875 -5.078125 L 3 -5.078125 C 3 -4.347656 3.191406 -3.722656 3.578125 -3.203125 C 3.972656 -2.679688 4.460938 -2.28125 5.046875 -2 C 5.628906 -1.71875 6.195312 -1.578125 6.75 -1.578125 C 7.4375 -1.578125 8.078125 -1.726562 8.671875 -2.03125 C 9.265625 -2.332031 9.726562 -2.800781 10.0625 -3.4375 L 12.140625 -3.4375 C 11.867188 -2.625 11.453125 -1.945312 10.890625 -1.40625 C 10.328125 -0.863281 9.679688 -0.457031 8.953125 -0.1875 C 8.234375 0.0703125 7.492188 0.203125 6.734375 0.203125 C 6.015625 0.203125 5.3125 0.0820312 4.625 -0.15625 C 3.9375 -0.394531 3.316406 -0.753906 2.765625 -1.234375 C 2.222656 -1.710938 1.789062 -2.3125 1.46875 -3.03125 C 1.144531 -3.75 0.984375 -4.59375 0.984375 -5.5625 C 0.984375 -6.519531 1.144531 -7.351562 1.46875 -8.0625 C 1.789062 -8.78125 2.222656 -9.378906 2.765625 -9.859375 C 3.316406 -10.335938 3.9375 -10.695312 4.625 -10.9375 C 5.3125 -11.175781 6.023438 -11.296875 6.765625 -11.296875 C 7.691406 -11.296875 8.578125 -11.097656 9.421875 -10.703125 C 10.265625 -10.316406 10.96875 -9.734375 11.53125 -8.953125 C 12.09375 -8.179688 12.40625 -7.210938 12.46875 -6.046875 Z M 10.34375 -6.75 C 10.226562 -7.425781 9.988281 -7.960938 9.625 -8.359375 C 9.257812 -8.765625 8.828125 -9.0625 8.328125 -9.25 C 7.828125 -9.4375 7.304688 -9.53125 6.765625 -9.53125 C 6.234375 -9.53125 5.707031 -9.4375 5.1875 -9.25 C 4.675781 -9.0625 4.234375 -8.757812 3.859375 -8.34375 C 3.484375 -7.9375 3.226562 -7.40625 3.09375 -6.75 Z M 10.34375 -6.75 "/></g></g></g><g fill="#000000" fill-opacity="1"><g transform="translate(138.658758, 20.671143)"><g><path d="M 12.453125 -4.234375 C 12.273438 -3.242188 11.894531 -2.421875 11.3125 -1.765625 C 10.738281 -1.117188 10.050781 -0.632812 9.25 -0.3125 C 8.457031 0.0078125 7.640625 0.171875 6.796875 0.171875 C 6.078125 0.171875 5.375 0.0507812 4.6875 -0.1875 C 4 -0.4375 3.378906 -0.800781 2.828125 -1.28125 C 2.285156 -1.757812 1.851562 -2.351562 1.53125 -3.0625 C 1.207031 -3.78125 1.046875 -4.617188 1.046875 -5.578125 C 1.046875 -6.535156 1.207031 -7.375 1.53125 -8.09375 C 1.851562 -8.8125 2.289062 -9.40625 2.84375 -9.875 C 3.40625 -10.351562 4.023438 -10.710938 4.703125 -10.953125 C 5.390625 -11.191406 6.097656 -11.3125 6.828125 -11.3125 C 7.679688 -11.3125 8.5 -11.148438 9.28125 -10.828125 C 10.0625 -10.503906 10.738281 -10.015625 11.3125 -9.359375 C 11.894531 -8.703125 12.273438 -7.878906 12.453125 -6.890625 L 10.375 -6.890625 C 10.125 -7.785156 9.664062 -8.445312 9 -8.875 C 8.332031 -9.3125 7.617188 -9.53125 6.859375 -9.53125 C 6.234375 -9.53125 5.628906 -9.382812 5.046875 -9.09375 C 4.460938 -8.800781 3.984375 -8.363281 3.609375 -7.78125 C 3.242188 -7.207031 3.0625 -6.472656 3.0625 -5.578125 C 3.0625 -4.679688 3.242188 -3.9375 3.609375 -3.34375 C 3.984375 -2.757812 4.460938 -2.320312 5.046875 -2.03125 C 5.628906 -1.75 6.238281 -1.609375 6.875 -1.609375 C 7.644531 -1.609375 8.359375 -1.828125 9.015625 -2.265625 C 9.671875 -2.703125 10.125 -3.359375 10.375 -4.234375 Z M 12.453125 -4.234375 "/></g></g></g><g fill="#000000" fill-opacity="1"><g transform="translate(153.847237, 20.671143)"><g><path d="M 9.75 -1.46875 C 9.34375 -0.863281 8.835938 -0.4375 8.234375 -0.1875 C 7.628906 0.0507812 6.960938 0.171875 6.234375 0.171875 C 5.109375 0.171875 4.1875 -0.046875 3.46875 -0.484375 C 2.757812 -0.929688 2.238281 -1.554688 1.90625 -2.359375 C 1.570312 -3.160156 1.40625 -4.085938 1.40625 -5.140625 L 1.40625 -11.234375 L 3.421875 -11.234375 L 3.421875 -5.140625 C 3.421875 -4.453125 3.5 -3.84375 3.65625 -3.3125 C 3.8125 -2.78125 4.101562 -2.363281 4.53125 -2.0625 C 4.957031 -1.769531 5.570312 -1.625 6.375 -1.625 C 7.4375 -1.625 8.25 -1.957031 8.8125 -2.625 C 9.375 -3.289062 9.65625 -4.109375 9.65625 -5.078125 L 9.65625 -11.234375 L 11.671875 -11.234375 L 11.671875 0 L 9.75 0 Z M 9.75 -1.46875 "/></g></g></g><g fill="#000000" fill-opacity="1"><g transform="translate(169.138616, 20.671143)"><g><path d="M 3.546875 -9.75 C 3.941406 -10.3125 4.410156 -10.71875 4.953125 -10.96875 C 5.492188 -11.226562 6.070312 -11.359375 6.6875 -11.359375 C 6.90625 -11.359375 7.125 -11.34375 7.34375 -11.3125 C 7.5625 -11.289062 7.78125 -11.25 8 -11.1875 L 8 -9.421875 C 7.675781 -9.515625 7.332031 -9.5625 6.96875 -9.5625 C 6.351562 -9.5625 5.785156 -9.40625 5.265625 -9.09375 C 4.742188 -8.789062 4.328125 -8.375 4.015625 -7.84375 C 3.703125 -7.320312 3.546875 -6.71875 3.546875 -6.03125 L 3.546875 0 L 1.546875 0 L 1.546875 -11.109375 L 3.546875 -11.109375 Z M 3.546875 -9.75 "/></g></g></g><g fill="#000000" fill-opacity="1"><g transform="translate(179.490696, 20.671143)"><g><path d="M 12.46875 -6.046875 C 12.476562 -5.992188 12.484375 -5.9375 12.484375 -5.875 C 12.484375 -5.820312 12.484375 -5.765625 12.484375 -5.703125 C 12.484375 -5.484375 12.460938 -5.273438 12.421875 -5.078125 L 3 -5.078125 C 3 -4.347656 3.191406 -3.722656 3.578125 -3.203125 C 3.972656 -2.679688 4.460938 -2.28125 5.046875 -2 C 5.628906 -1.71875 6.195312 -1.578125 6.75 -1.578125 C 7.4375 -1.578125 8.078125 -1.726562 8.671875 -2.03125 C 9.265625 -2.332031 9.726562 -2.800781 10.0625 -3.4375 L 12.140625 -3.4375 C 11.867188 -2.625 11.453125 -1.945312 10.890625 -1.40625 C 10.328125 -0.863281 9.679688 -0.457031 8.953125 -0.1875 C 8.234375 0.0703125 7.492188 0.203125 6.734375 0.203125 C 6.015625 0.203125 5.3125 0.0820312 4.625 -0.15625 C 3.9375 -0.394531 3.316406 -0.753906 2.765625 -1.234375 C 2.222656 -1.710938 1.789062 -2.3125 1.46875 -3.03125 C 1.144531 -3.75 0.984375 -4.59375 0.984375 -5.5625 C 0.984375 -6.519531 1.144531 -7.351562 1.46875 -8.0625 C 1.789062 -8.78125 2.222656 -9.378906 2.765625 -9.859375 C 3.316406 -10.335938 3.9375 -10.695312 4.625 -10.9375 C 5.3125 -11.175781 6.023438 -11.296875 6.765625 -11.296875 C 7.691406 -11.296875 8.578125 -11.097656 9.421875 -10.703125 C 10.265625 -10.316406 10.96875 -9.734375 11.53125 -8.953125 C 12.09375 -8.179688 12.40625 -7.210938 12.46875 -6.046875 Z M 10.34375 -6.75 C 10.226562 -7.425781 9.988281 -7.960938 9.625 -8.359375 C 9.257812 -8.765625 8.828125 -9.0625 8.328125 -9.25 C 7.828125 -9.4375 7.304688 -9.53125 6.765625 -9.53125 C 6.234375 -9.53125 5.707031 -9.4375 5.1875 -9.25 C 4.675781 -9.0625 4.234375 -8.757812 3.859375 -8.34375 C 3.484375 -7.9375 3.226562 -7.40625 3.09375 -6.75 Z M 10.34375 -6.75 "/></g></g></g><g fill="#000000" fill-opacity="1"><g transform="translate(195.111364, 20.671143)"><g/></g></g><g fill="#000000" fill-opacity="1"><g transform="translate(202.273485, 20.671143)"><g><path d="M 3.5625 -3.640625 L 2.15625 0 L -0.078125 0 L 5.703125 -14.59375 L 7.21875 -14.59375 L 13 0 L 10.78125 0 L 9.40625 -3.640625 Z M 8.640625 -5.59375 L 6.484375 -11.28125 L 4.328125 -5.59375 Z M 8.640625 -5.59375 "/></g></g></g><g fill="#000000" fill-opacity="1"><g transform="translate(217.359054, 20.671143)"><g><path d="M 6.515625 -12.609375 L 6.515625 -1.9375 L 9.203125 -1.9375 L 9.203125 0 L 1.765625 0 L 1.765625 -1.9375 L 4.4375 -1.9375 L 4.4375 -12.609375 L 1.765625 -12.609375 L 1.765625 -14.53125 L 9.203125 -14.53125 L 9.203125 -12.609375 Z M 6.515625 -12.609375 "/></g></g></g><g fill="#000000" fill-opacity="1"><g transform="translate(230.345418, 20.671143)"><g/></g></g><g fill="#000000" fill-opacity="1"><g transform="translate(237.507539, 20.671143)"><g><path d="M 8.96875 -10.6875 C 8.875 -11.101562 8.675781 -11.445312 8.375 -11.71875 C 8.070312 -11.988281 7.71875 -12.1875 7.3125 -12.3125 C 6.90625 -12.445312 6.5 -12.515625 6.09375 -12.515625 C 5.59375 -12.515625 5.097656 -12.425781 4.609375 -12.25 C 4.117188 -12.082031 3.722656 -11.804688 3.421875 -11.421875 C 3.296875 -11.265625 3.203125 -11.085938 3.140625 -10.890625 C 3.085938 -10.691406 3.0625 -10.492188 3.0625 -10.296875 C 3.0625 -9.742188 3.222656 -9.328125 3.546875 -9.046875 C 3.867188 -8.773438 4.28125 -8.59375 4.78125 -8.5 C 5.28125 -8.40625 5.800781 -8.328125 6.34375 -8.265625 C 6.832031 -8.210938 7.335938 -8.128906 7.859375 -8.015625 C 8.378906 -7.898438 8.875 -7.734375 9.34375 -7.515625 C 9.820312 -7.296875 10.234375 -7 10.578125 -6.625 C 10.929688 -6.257812 11.175781 -5.785156 11.3125 -5.203125 C 11.382812 -4.859375 11.421875 -4.546875 11.421875 -4.265625 C 11.421875 -3.554688 11.265625 -2.929688 10.953125 -2.390625 C 10.648438 -1.847656 10.238281 -1.390625 9.71875 -1.015625 C 9.207031 -0.640625 8.628906 -0.351562 7.984375 -0.15625 C 7.347656 0.03125 6.710938 0.125 6.078125 0.125 C 5.523438 0.125 4.957031 0.0390625 4.375 -0.125 C 3.789062 -0.289062 3.25 -0.535156 2.75 -0.859375 C 2.25 -1.179688 1.828125 -1.582031 1.484375 -2.0625 C 1.148438 -2.550781 0.953125 -3.117188 0.890625 -3.765625 L 0.859375 -4.15625 L 2.96875 -4.203125 L 2.984375 -3.890625 L 2.984375 -3.96875 C 3.035156 -3.53125 3.222656 -3.15625 3.546875 -2.84375 C 3.867188 -2.539062 4.265625 -2.3125 4.734375 -2.15625 C 5.203125 -2.007812 5.65625 -1.9375 6.09375 -1.9375 C 6.613281 -1.9375 7.117188 -2.023438 7.609375 -2.203125 C 8.109375 -2.390625 8.519531 -2.660156 8.84375 -3.015625 C 9.164062 -3.367188 9.328125 -3.789062 9.328125 -4.28125 C 9.328125 -4.425781 9.304688 -4.59375 9.265625 -4.78125 C 9.179688 -5.144531 8.976562 -5.421875 8.65625 -5.609375 C 8.332031 -5.796875 7.941406 -5.925781 7.484375 -6 C 7.035156 -6.082031 6.570312 -6.144531 6.09375 -6.1875 C 5.53125 -6.25 4.957031 -6.335938 4.375 -6.453125 C 3.800781 -6.566406 3.265625 -6.753906 2.765625 -7.015625 C 2.273438 -7.273438 1.867188 -7.632812 1.546875 -8.09375 C 1.222656 -8.550781 1.035156 -9.160156 0.984375 -9.921875 L 0.984375 -9.890625 C 0.984375 -9.960938 0.976562 -10.023438 0.96875 -10.078125 C 0.96875 -10.140625 0.96875 -10.195312 0.96875 -10.25 C 0.96875 -11.132812 1.234375 -11.929688 1.765625 -12.640625 C 2.242188 -13.265625 2.878906 -13.738281 3.671875 -14.0625 C 4.472656 -14.382812 5.289062 -14.546875 6.125 -14.546875 C 6.875 -14.546875 7.597656 -14.410156 8.296875 -14.140625 C 9.003906 -13.878906 9.601562 -13.46875 10.09375 -12.90625 C 10.59375 -12.351562 10.90625 -11.640625 11.03125 -10.765625 Z M 8.96875 -10.6875 "/></g></g></g><g fill="#000000" fill-opacity="1"><g transform="translate(251.481776, 20.671143)"><g><path d="M 9.03125 -11.296875 L 11.171875 -11.296875 L 5.328125 3.4375 L 3.1875 3.4375 L 4.75 -0.578125 L 0.40625 -11.296875 L 2.546875 -11.296875 L 4.5625 -6.359375 L 5.828125 -2.71875 L 7.125 -6.34375 Z M 9.03125 -11.296875 "/></g></g></g><g fill="#000000" fill-opacity="1"><g transform="translate(265.085564, 20.671143)"><g><path d="M 2.9375 -7.921875 C 2.9375 -7.578125 3.019531 -7.304688 3.1875 -7.109375 C 3.363281 -6.921875 3.585938 -6.785156 3.859375 -6.703125 C 4.140625 -6.617188 4.425781 -6.566406 4.71875 -6.546875 C 5.019531 -6.523438 5.289062 -6.507812 5.53125 -6.5 C 6.050781 -6.457031 6.578125 -6.378906 7.109375 -6.265625 C 7.640625 -6.148438 8.125 -5.972656 8.5625 -5.734375 C 9 -5.492188 9.347656 -5.160156 9.609375 -4.734375 C 9.878906 -4.316406 10.015625 -3.796875 10.015625 -3.171875 C 10.015625 -2.523438 9.875 -1.984375 9.59375 -1.546875 C 9.3125 -1.117188 8.941406 -0.773438 8.484375 -0.515625 C 8.023438 -0.265625 7.519531 -0.0859375 6.96875 0.015625 C 6.425781 0.128906 5.894531 0.1875 5.375 0.1875 C 4.601562 0.1875 3.878906 0.0703125 3.203125 -0.15625 C 2.523438 -0.394531 1.960938 -0.773438 1.515625 -1.296875 C 1.078125 -1.828125 0.832031 -2.535156 0.78125 -3.421875 L 2.796875 -3.421875 C 2.835938 -2.796875 3.113281 -2.328125 3.625 -2.015625 C 4.132812 -1.710938 4.726562 -1.5625 5.40625 -1.5625 C 5.75 -1.5625 6.117188 -1.601562 6.515625 -1.6875 C 6.921875 -1.78125 7.269531 -1.945312 7.5625 -2.1875 C 7.851562 -2.425781 8 -2.765625 8 -3.203125 C 8 -3.523438 7.90625 -3.773438 7.71875 -3.953125 C 7.539062 -4.140625 7.304688 -4.285156 7.015625 -4.390625 C 6.722656 -4.492188 6.425781 -4.566406 6.125 -4.609375 C 5.820312 -4.648438 5.550781 -4.675781 5.3125 -4.6875 C 4.8125 -4.71875 4.304688 -4.785156 3.796875 -4.890625 C 3.285156 -4.992188 2.8125 -5.160156 2.375 -5.390625 C 1.945312 -5.617188 1.601562 -5.9375 1.34375 -6.34375 C 1.082031 -6.75 0.953125 -7.257812 0.953125 -7.875 C 0.953125 -8.738281 1.171875 -9.425781 1.609375 -9.9375 C 2.046875 -10.445312 2.609375 -10.8125 3.296875 -11.03125 C 3.984375 -11.25 4.679688 -11.359375 5.390625 -11.359375 C 6.128906 -11.359375 6.8125 -11.25 7.4375 -11.03125 C 8.070312 -10.8125 8.59375 -10.460938 9 -9.984375 C 9.414062 -9.503906 9.644531 -8.875 9.6875 -8.09375 L 7.703125 -8.09375 C 7.640625 -8.582031 7.378906 -8.945312 6.921875 -9.1875 C 6.460938 -9.425781 5.929688 -9.546875 5.328125 -9.546875 C 4.710938 -9.546875 4.160156 -9.414062 3.671875 -9.15625 C 3.179688 -8.90625 2.9375 -8.492188 2.9375 -7.921875 Z M 2.9375 -7.921875 "/></g></g></g><g fill="#000000" fill-opacity="1"><g transform="translate(277.84555, 20.671143)"><g><path d="M 4.171875 -11.125 L 6.625 -11.125 L 6.625 -9.53125 L 4.171875 -9.53125 L 4.171875 -3.25 C 4.171875 -2.59375 4.320312 -2.15625 4.625 -1.9375 C 4.925781 -1.726562 5.332031 -1.625 5.84375 -1.625 C 5.96875 -1.625 6.101562 -1.625 6.25 -1.625 C 6.394531 -1.632812 6.539062 -1.648438 6.6875 -1.671875 L 6.6875 0.015625 C 6.519531 0.0351562 6.359375 0.046875 6.203125 0.046875 C 6.054688 0.0546875 5.910156 0.0625 5.765625 0.0625 C 5.035156 0.0625 4.398438 -0.0351562 3.859375 -0.234375 C 3.316406 -0.429688 2.894531 -0.769531 2.59375 -1.25 C 2.300781 -1.726562 2.15625 -2.398438 2.15625 -3.265625 L 2.15625 -9.53125 L 0.5 -9.53125 L 0.5 -11.125 L 2.15625 -11.125 L 2.15625 -13.21875 L 4.171875 -13.609375 Z M 4.171875 -11.125 "/></g></g></g><g fill="#000000" fill-opacity="1"><g transform="translate(286.962804, 20.671143)"><g><path d="M 12.46875 -6.046875 C 12.476562 -5.992188 12.484375 -5.9375 12.484375 -5.875 C 12.484375 -5.820312 12.484375 -5.765625 12.484375 -5.703125 C 12.484375 -5.484375 12.460938 -5.273438 12.421875 -5.078125 L 3 -5.078125 C 3 -4.347656 3.191406 -3.722656 3.578125 -3.203125 C 3.972656 -2.679688 4.460938 -2.28125 5.046875 -2 C 5.628906 -1.71875 6.195312 -1.578125 6.75 -1.578125 C 7.4375 -1.578125 8.078125 -1.726562 8.671875 -2.03125 C 9.265625 -2.332031 9.726562 -2.800781 10.0625 -3.4375 L 12.140625 -3.4375 C 11.867188 -2.625 11.453125 -1.945312 10.890625 -1.40625 C 10.328125 -0.863281 9.679688 -0.457031 8.953125 -0.1875 C 8.234375 0.0703125 7.492188 0.203125 6.734375 0.203125 C 6.015625 0.203125 5.3125 0.0820312 4.625 -0.15625 C 3.9375 -0.394531 3.316406 -0.753906 2.765625 -1.234375 C 2.222656 -1.710938 1.789062 -2.3125 1.46875 -3.03125 C 1.144531 -3.75 0.984375 -4.59375 0.984375 -5.5625 C 0.984375 -6.519531 1.144531 -7.351562 1.46875 -8.0625 C 1.789062 -8.78125 2.222656 -9.378906 2.765625 -9.859375 C 3.316406 -10.335938 3.9375 -10.695312 4.625 -10.9375 C 5.3125 -11.175781 6.023438 -11.296875 6.765625 -11.296875 C 7.691406 -11.296875 8.578125 -11.097656 9.421875 -10.703125 C 10.265625 -10.316406 10.96875 -9.734375 11.53125 -8.953125 C 12.09375 -8.179688 12.40625 -7.210938 12.46875 -6.046875 Z M 10.34375 -6.75 C 10.226562 -7.425781 9.988281 -7.960938 9.625 -8.359375 C 9.257812 -8.765625 8.828125 -9.0625 8.328125 -9.25 C 7.828125 -9.4375 7.304688 -9.53125 6.765625 -9.53125 C 6.234375 -9.53125 5.707031 -9.4375 5.1875 -9.25 C 4.675781 -9.0625 4.234375 -8.757812 3.859375 -8.34375 C 3.484375 -7.9375 3.226562 -7.40625 3.09375 -6.75 Z M 10.34375 -6.75 "/></g></g></g><g fill="#000000" fill-opacity="1"><g transform="translate(302.583471, 20.671143)"><g><path d="M 3.828125 -9.75 C 4.210938 -10.3125 4.664062 -10.710938 5.1875 -10.953125 C 5.71875 -11.191406 6.304688 -11.3125 6.953125 -11.3125 C 7.734375 -11.3125 8.457031 -11.1875 9.125 -10.9375 C 9.789062 -10.6875 10.328125 -10.171875 10.734375 -9.390625 C 11.441406 -10.648438 12.628906 -11.289062 14.296875 -11.3125 C 15.328125 -11.3125 16.164062 -11.09375 16.8125 -10.65625 C 17.457031 -10.21875 17.929688 -9.625 18.234375 -8.875 C 18.546875 -8.132812 18.703125 -7.289062 18.703125 -6.34375 L 18.703125 0 L 16.6875 0 L 16.6875 -6.3125 C 16.6875 -6.832031 16.628906 -7.332031 16.515625 -7.8125 C 16.398438 -8.300781 16.171875 -8.695312 15.828125 -9 C 15.492188 -9.300781 15.003906 -9.453125 14.359375 -9.453125 C 13.367188 -9.453125 12.628906 -9.148438 12.140625 -8.546875 C 11.648438 -7.941406 11.40625 -7.1875 11.40625 -6.28125 L 11.40625 0 L 9.390625 0 L 9.390625 -6.25 C 9.390625 -6.769531 9.3125 -7.273438 9.15625 -7.765625 C 9.007812 -8.253906 8.753906 -8.65625 8.390625 -8.96875 C 8.035156 -9.289062 7.550781 -9.453125 6.9375 -9.453125 C 6.0625 -9.453125 5.320312 -9.160156 4.71875 -8.578125 C 4.125 -7.992188 3.828125 -7.148438 3.828125 -6.046875 L 3.828125 0 L 1.8125 0 L 1.8125 -11.3125 L 3.828125 -11.3125 Z M 3.828125 -9.75 "/></g></g></g><g fill="#000000" fill-opacity="1"><g transform="translate(324.892777, 20.671143)"><g><path d="M 2.9375 -7.921875 C 2.9375 -7.578125 3.019531 -7.304688 3.1875 -7.109375 C 3.363281 -6.921875 3.585938 -6.785156 3.859375 -6.703125 C 4.140625 -6.617188 4.425781 -6.566406 4.71875 -6.546875 C 5.019531 -6.523438 5.289062 -6.507812 5.53125 -6.5 C 6.050781 -6.457031 6.578125 -6.378906 7.109375 -6.265625 C 7.640625 -6.148438 8.125 -5.972656 8.5625 -5.734375 C 9 -5.492188 9.347656 -5.160156 9.609375 -4.734375 C 9.878906 -4.316406 10.015625 -3.796875 10.015625 -3.171875 C 10.015625 -2.523438 9.875 -1.984375 9.59375 -1.546875 C 9.3125 -1.117188 8.941406 -0.773438 8.484375 -0.515625 C 8.023438 -0.265625 7.519531 -0.0859375 6.96875 0.015625 C 6.425781 0.128906 5.894531 0.1875 5.375 0.1875 C 4.601562 0.1875 3.878906 0.0703125 3.203125 -0.15625 C 2.523438 -0.394531 1.960938 -0.773438 1.515625 -1.296875 C 1.078125 -1.828125 0.832031 -2.535156 0.78125 -3.421875 L 2.796875 -3.421875 C 2.835938 -2.796875 3.113281 -2.328125 3.625 -2.015625 C 4.132812 -1.710938 4.726562 -1.5625 5.40625 -1.5625 C 5.75 -1.5625 6.117188 -1.601562 6.515625 -1.6875 C 6.921875 -1.78125 7.269531 -1.945312 7.5625 -2.1875 C 7.851562 -2.425781 8 -2.765625 8 -3.203125 C 8 -3.523438 7.90625 -3.773438 7.71875 -3.953125 C 7.539062 -4.140625 7.304688 -4.285156 7.015625 -4.390625 C 6.722656 -4.492188 6.425781 -4.566406 6.125 -4.609375 C 5.820312 -4.648438 5.550781 -4.675781 5.3125 -4.6875 C 4.8125 -4.71875 4.304688 -4.785156 3.796875 -4.890625 C 3.285156 -4.992188 2.8125 -5.160156 2.375 -5.390625 C 1.945312 -5.617188 1.601562 -5.9375 1.34375 -6.34375 C 1.082031 -6.75 0.953125 -7.257812 0.953125 -7.875 C 0.953125 -8.738281 1.171875 -9.425781 1.609375 -9.9375 C 2.046875 -10.445312 2.609375 -10.8125 3.296875 -11.03125 C 3.984375 -11.25 4.679688 -11.359375 5.390625 -11.359375 C 6.128906 -11.359375 6.8125 -11.25 7.4375 -11.03125 C 8.070312 -10.8125 8.59375 -10.460938 9 -9.984375 C 9.414062 -9.503906 9.644531 -8.875 9.6875 -8.09375 L 7.703125 -8.09375 C 7.640625 -8.582031 7.378906 -8.945312 6.921875 -9.1875 C 6.460938 -9.425781 5.929688 -9.546875 5.328125 -9.546875 C 4.710938 -9.546875 4.160156 -9.414062 3.671875 -9.15625 C 3.179688 -8.90625 2.9375 -8.492188 2.9375 -7.921875 Z M 2.9375 -7.921875 "/></g></g></g></g></g></svg>