<svg xmlns="http://www.w3.org/2000/svg" xmlns:xlink="http://www.w3.org/1999/xlink" width="592.66" zoomAndPan="magnify" viewBox="-1 227.53 592.66 144.94" height="144.94" preserveAspectRatio="xMidYMid meet" version="1.0"><defs><g/><clipPath id="4de24e58f1"><path d="M 141.140625 10.527344 L 152.667969 10.527344 L 152.667969 143.464844 L 141.140625 143.464844 Z M 141.140625 10.527344 " clip-rule="nonzero"/></clipPath><clipPath id="5657ccefe3"><rect x="0" width="38" y="0" height="56"/></clipPath><clipPath id="08e5fee900"><path d="M 0 0.199219 L 103 0.199219 L 103 163.878906 L 0 163.878906 Z M 0 0.199219 " clip-rule="nonzero"/></clipPath><clipPath id="b5ea94d46a"><rect x="0" width="103" y="0" height="164"/></clipPath><clipPath id="77896d608d"><path d="M 173 40 L 591.601562 40 L 591.601562 113 L 173 113 Z M 173 40 " clip-rule="nonzero"/></clipPath><clipPath id="adba99a77c"><rect x="0" width="419" y="0" height="73"/></clipPath><clipPath id="f198edf812"><rect x="0" width="592" y="0" height="164"/></clipPath></defs><g transform="matrix(1, 0, 0, 1, 0, 223)"><g clip-path="url(#f198edf812)"><g clip-path="url(#4de24e58f1)"><path stroke-linecap="butt" transform="matrix(0.960633, 0, 0, 0.960633, 141.142187, 10.457139)" fill="none" stroke-linejoin="miter" d="M -0.00162609 0.0730819 L 12.376282 0.0730819 L 12.376282 138.458423 L -0.00162609 138.458423 Z M -0.00162609 0.0730819 " stroke="#000000" stroke-width="3.122942" stroke-opacity="1" stroke-miterlimit="4"/></g><g transform="matrix(1, 0, 0, 1, 32, 54)"><g clip-path="url(#5657ccefe3)"><g fill="#000000" fill-opacity="1"><g transform="translate(0.201168, 44.300361)"><g><path d="M 1.609375 -16.171875 C 1.609375 -18.515625 2.039062 -20.703125 2.90625 -22.734375 C 3.769531 -24.765625 4.972656 -26.550781 6.515625 -28.09375 C 8.054688 -29.632812 9.832031 -30.832031 11.84375 -31.6875 C 13.863281 -32.550781 16.046875 -32.984375 18.390625 -32.984375 C 20.734375 -32.984375 22.921875 -32.550781 24.953125 -31.6875 C 26.984375 -30.832031 28.769531 -29.632812 30.3125 -28.09375 C 31.851562 -26.550781 33.050781 -24.765625 33.90625 -22.734375 C 34.769531 -20.703125 35.203125 -18.515625 35.203125 -16.171875 C 35.203125 -13.828125 34.769531 -11.644531 33.90625 -9.625 C 33.050781 -7.613281 31.851562 -5.835938 30.3125 -4.296875 C 28.769531 -2.753906 26.984375 -1.550781 24.953125 -0.6875 C 22.921875 0.164062 20.734375 0.59375 18.390625 0.59375 C 16.046875 0.59375 13.863281 0.164062 11.84375 -0.6875 C 9.832031 -1.550781 8.054688 -2.753906 6.515625 -4.296875 C 4.972656 -5.835938 3.769531 -7.613281 2.90625 -9.625 C 2.039062 -11.644531 1.609375 -13.828125 1.609375 -16.171875 Z M 6.421875 -16.171875 C 6.421875 -13.953125 6.957031 -11.941406 8.03125 -10.140625 C 9.113281 -8.335938 10.554688 -6.894531 12.359375 -5.8125 C 14.160156 -4.738281 16.171875 -4.203125 18.390625 -4.203125 C 20.609375 -4.203125 22.625 -4.738281 24.4375 -5.8125 C 26.257812 -6.894531 27.707031 -8.335938 28.78125 -10.140625 C 29.863281 -11.941406 30.40625 -13.953125 30.40625 -16.171875 C 30.40625 -18.390625 29.863281 -20.40625 28.78125 -22.21875 C 27.707031 -24.039062 26.257812 -25.488281 24.4375 -26.5625 C 22.625 -27.644531 20.609375 -28.1875 18.390625 -28.1875 C 16.171875 -28.1875 14.160156 -27.644531 12.359375 -26.5625 C 10.554688 -25.488281 9.113281 -24.039062 8.03125 -22.21875 C 6.957031 -20.40625 6.421875 -18.390625 6.421875 -16.171875 Z M 6.421875 -16.171875 "/></g></g></g></g></g><g clip-path="url(#08e5fee900)"><g transform="matrix(1, 0, 0, 1, 0, -0.000000000000028422)"><g clip-path="url(#b5ea94d46a)"><g fill="#000000" fill-opacity="1"><g transform="translate(0.0000003, 128.891538)"><g><path d="M 91.984375 -66.875 C 90.898438 -69.507812 89.582031 -71.921875 88.03125 -74.109375 C 86.488281 -76.296875 84.804688 -78.34375 82.984375 -80.25 C 79.066406 -84.34375 74.445312 -87.550781 69.125 -89.875 C 63.800781 -92.195312 58.09375 -93.359375 52 -93.359375 C 46 -93.359375 40.335938 -92.195312 35.015625 -89.875 C 29.691406 -87.550781 25.023438 -84.34375 21.015625 -80.25 C 17.109375 -76.25 13.992188 -71.492188 11.671875 -65.984375 C 9.347656 -60.484375 8.1875 -54.367188 8.1875 -47.640625 C 8.1875 -40.898438 9.347656 -34.867188 11.671875 -29.546875 C 13.992188 -24.222656 17.109375 -19.5625 21.015625 -15.5625 C 25.023438 -11.46875 29.691406 -8.234375 35.015625 -5.859375 C 40.335938 -3.492188 46 -2.3125 52 -2.3125 C 58.09375 -2.3125 63.800781 -3.492188 69.125 -5.859375 C 74.445312 -8.234375 79.066406 -11.46875 82.984375 -15.5625 C 84.804688 -17.375 86.488281 -19.375 88.03125 -21.5625 C 89.582031 -23.75 90.898438 -26.160156 91.984375 -28.796875 L 95.265625 -28.796875 C 92.804688 -22.972656 89.394531 -17.832031 85.03125 -13.375 C 80.84375 -9.007812 75.925781 -5.570312 70.28125 -3.0625 C 64.644531 -0.5625 58.550781 0.6875 52 0.6875 C 45.539062 0.6875 39.488281 -0.5625 33.84375 -3.0625 C 28.207031 -5.570312 23.25 -9.007812 18.96875 -13.375 C 14.78125 -17.738281 11.4375 -22.671875 8.9375 -28.171875 C 6.4375 -33.679688 5.1875 -40.171875 5.1875 -47.640625 C 5.1875 -54.828125 6.4375 -61.304688 8.9375 -67.078125 C 11.4375 -72.859375 14.78125 -77.929688 18.96875 -82.296875 C 23.25 -86.660156 28.207031 -90.09375 33.84375 -92.59375 C 39.488281 -95.101562 45.539062 -96.359375 52 -96.359375 C 58.550781 -96.359375 64.644531 -95.101562 70.28125 -92.59375 C 75.925781 -90.09375 80.84375 -86.660156 85.03125 -82.296875 C 87.125 -80.117188 89.054688 -77.734375 90.828125 -75.140625 C 92.597656 -72.546875 94.078125 -69.789062 95.265625 -66.875 Z M 91.984375 -66.875 "/></g></g></g></g></g></g><g clip-path="url(#77896d608d)"><g transform="matrix(1, 0, 0, 1, 173, 40)"><g clip-path="url(#adba99a77c)"><g fill="#000000" fill-opacity="1"><g transform="translate(0.752273, 57.468323)"><g><path d="M 2.34375 -20.9375 C 2.34375 -23.914062 2.882812 -26.695312 3.96875 -29.28125 C 5.050781 -31.863281 6.5 -34.117188 8.3125 -36.046875 C 10.15625 -37.929688 12.378906 -39.476562 14.984375 -40.6875 C 17.597656 -41.894531 20.328125 -42.5 23.171875 -42.5 C 26.378906 -42.5 29.316406 -41.84375 31.984375 -40.53125 C 34.648438 -39.226562 36.914062 -37.398438 38.78125 -35.046875 C 40.65625 -32.703125 41.992188 -29.945312 42.796875 -26.78125 L 36.78125 -26.78125 C 35.65625 -29.945312 33.878906 -32.351562 31.453125 -34 C 29.023438 -35.644531 26.265625 -36.46875 23.171875 -36.46875 C 21.160156 -36.46875 19.210938 -36.035156 17.328125 -35.171875 C 15.441406 -34.316406 13.835938 -33.1875 12.515625 -31.78125 C 11.191406 -30.414062 10.148438 -28.8125 9.390625 -26.96875 C 8.628906 -25.125 8.25 -23.113281 8.25 -20.9375 C 8.25 -18.851562 8.617188 -16.890625 9.359375 -15.046875 C 10.097656 -13.203125 11.128906 -11.578125 12.453125 -10.171875 C 13.773438 -8.804688 15.390625 -7.722656 17.296875 -6.921875 C 19.203125 -6.117188 21.160156 -5.71875 23.171875 -5.71875 C 26.378906 -5.71875 29.238281 -6.597656 31.75 -8.359375 C 34.257812 -10.128906 36.054688 -12.597656 37.140625 -15.765625 L 43.09375 -15.765625 C 42.289062 -12.597656 40.945312 -9.800781 39.0625 -7.375 C 37.175781 -4.945312 34.878906 -3.0625 32.171875 -1.71875 C 29.460938 -0.375 26.460938 0.296875 23.171875 0.296875 C 20.328125 0.296875 17.628906 -0.253906 15.078125 -1.359375 C 12.523438 -2.460938 10.328125 -3.972656 8.484375 -5.890625 C 6.679688 -7.816406 5.207031 -10.070312 4.0625 -12.65625 C 2.914062 -15.25 2.34375 -18.007812 2.34375 -20.9375 Z M 2.34375 -20.9375 "/></g></g></g><g fill="#000000" fill-opacity="1"><g transform="translate(44.207215, 57.468323)"><g><path d="M 19.078125 -36.890625 L 19.078125 -5.65625 L 26.90625 -5.65625 L 26.90625 0 L 5.171875 0 L 5.171875 -5.65625 L 13 -5.65625 L 13 -36.890625 L 5.171875 -36.890625 L 5.171875 -42.5 L 26.90625 -42.5 L 26.90625 -36.890625 Z M 19.078125 -36.890625 "/></g></g></g><g fill="#000000" fill-opacity="1"><g transform="translate(76.226771, 57.468323)"><g><path d="M 29.078125 -25.40625 L 29.078125 -42.5 L 35.203125 -42.5 L 35.203125 0 L 29.078125 0 L 29.078125 -19.375 L 11.25 -19.375 L 11.25 0 L 5.171875 0 L 5.171875 -42.5 L 11.25 -42.5 L 11.25 -25.40625 Z M 29.078125 -25.40625 "/></g></g></g><g fill="#000000" fill-opacity="1"><g transform="translate(117.274452, 57.468323)"><g><path d="M 10.40625 -10.65625 L 6.3125 0 L -0.234375 0 L 16.671875 -42.671875 L 21.125 -42.671875 L 38.03125 0 L 31.53125 0 L 27.5 -10.65625 Z M 25.28125 -16.375 L 18.953125 -32.984375 L 12.640625 -16.375 Z M 25.28125 -16.375 "/></g></g></g><g fill="#000000" fill-opacity="1"><g transform="translate(156.035032, 57.468323)"><g><path d="M 5.171875 -42.125 L 9.875 -42.125 L 30.390625 -12.453125 L 30.390625 -42.125 L 36.40625 -42.125 L 36.40625 0 L 31.59375 0 L 11.25 -29.4375 L 11.25 0 L 5.171875 0 Z M 5.171875 -42.125 "/></g></g></g><g fill="#000000" fill-opacity="1"><g transform="translate(197.624345, 57.468323)"><g/></g></g><g fill="#000000" fill-opacity="1"><g transform="translate(212.610942, 57.468323)"><g><path d="M 2.109375 -21.0625 C 2.109375 -24.113281 2.671875 -26.960938 3.796875 -29.609375 C 4.921875 -32.253906 6.484375 -34.582031 8.484375 -36.59375 C 10.492188 -38.601562 12.8125 -40.164062 15.4375 -41.28125 C 18.0625 -42.40625 20.898438 -42.96875 23.953125 -42.96875 C 27.003906 -42.96875 29.851562 -42.40625 32.5 -41.28125 C 35.144531 -40.164062 37.472656 -38.601562 39.484375 -36.59375 C 41.492188 -34.582031 43.054688 -32.253906 44.171875 -29.609375 C 45.296875 -26.960938 45.859375 -24.113281 45.859375 -21.0625 C 45.859375 -18.007812 45.296875 -15.171875 44.171875 -12.546875 C 43.054688 -9.921875 41.492188 -7.601562 39.484375 -5.59375 C 37.472656 -3.59375 35.144531 -2.03125 32.5 -0.90625 C 29.851562 0.21875 27.003906 0.78125 23.953125 0.78125 C 20.898438 0.78125 18.0625 0.21875 15.4375 -0.90625 C 12.8125 -2.03125 10.492188 -3.59375 8.484375 -5.59375 C 6.484375 -7.601562 4.921875 -9.921875 3.796875 -12.546875 C 2.671875 -15.171875 2.109375 -18.007812 2.109375 -21.0625 Z M 8.359375 -21.0625 C 8.359375 -18.175781 9.0625 -15.554688 10.46875 -13.203125 C 11.875 -10.859375 13.75 -8.984375 16.09375 -7.578125 C 18.445312 -6.179688 21.066406 -5.484375 23.953125 -5.484375 C 26.835938 -5.484375 29.460938 -6.179688 31.828125 -7.578125 C 34.203125 -8.984375 36.09375 -10.859375 37.5 -13.203125 C 38.90625 -15.554688 39.609375 -18.175781 39.609375 -21.0625 C 39.609375 -23.957031 38.90625 -26.585938 37.5 -28.953125 C 36.09375 -31.316406 34.203125 -33.203125 31.828125 -34.609375 C 29.460938 -36.015625 26.835938 -36.71875 23.953125 -36.71875 C 21.066406 -36.71875 18.445312 -36.015625 16.09375 -34.609375 C 13.75 -33.203125 11.875 -31.316406 10.46875 -28.953125 C 9.0625 -26.585938 8.359375 -23.957031 8.359375 -21.0625 Z M 8.359375 -21.0625 "/></g></g></g><g fill="#000000" fill-opacity="1"><g transform="translate(261.001407, 57.468323)"><g><path d="M 9.453125 -5.421875 L 33.21875 -5.421875 L 33.21875 0 L 2.40625 0 L 2.40625 -5 L 25.765625 -37.140625 L 2.40625 -37.140625 L 2.40625 -42.546875 L 32.921875 -42.546875 L 32.921875 -37.796875 Z M 9.453125 -5.421875 "/></g></g></g><g fill="#000000" fill-opacity="1"><g transform="translate(296.632188, 57.468323)"><g><path d="M 29.078125 -25.40625 L 29.078125 -42.5 L 35.203125 -42.5 L 35.203125 0 L 29.078125 0 L 29.078125 -19.375 L 11.25 -19.375 L 11.25 0 L 5.171875 0 L 5.171875 -42.5 L 11.25 -42.5 L 11.25 -25.40625 Z M 29.078125 -25.40625 "/></g></g></g><g fill="#000000" fill-opacity="1"><g transform="translate(337.679875, 57.468323)"><g><path d="M 10.40625 -10.65625 L 6.3125 0 L -0.234375 0 L 16.671875 -42.671875 L 21.125 -42.671875 L 38.03125 0 L 31.53125 0 L 27.5 -10.65625 Z M 25.28125 -16.375 L 18.953125 -32.984375 L 12.640625 -16.375 Z M 25.28125 -16.375 "/></g></g></g><g fill="#000000" fill-opacity="1"><g transform="translate(376.440455, 57.468323)"><g><path d="M 5.171875 -42.125 L 9.875 -42.125 L 30.390625 -12.453125 L 30.390625 -42.125 L 36.40625 -42.125 L 36.40625 0 L 31.59375 0 L 11.25 -29.4375 L 11.25 0 L 5.171875 0 Z M 5.171875 -42.125 "/></g></g></g></g></g></g></g></g></svg>