<svg xmlns="http://www.w3.org/2000/svg" width="592.66" height="144.94" viewBox="-1 227.53 592.66 144.94"><defs><clipPath id="b"><path d="M141.14 10.527h11.528v132.938h-11.527Zm0 0"/></clipPath><clipPath id="c"><path d="M0 0h38v56H0z"/></clipPath><clipPath id="d"><path d="M0 .2h103v163.679H0Zm0 0"/></clipPath><clipPath id="e"><path d="M0 0h103v164H0z"/></clipPath><clipPath id="f"><path d="M173 40h418.602v73H173Zm0 0"/></clipPath><clipPath id="g"><path d="M0 0h419v73H0z"/></clipPath><clipPath id="a"><path d="M0 0h592v164H0z"/></clipPath></defs><g clip-path="url(#a)" transform="translate(0 223)"><g clip-path="url(#b)"><path fill="none" stroke="#000" stroke-width="3" d="M141.14 10.527h11.891v132.938h-11.89Zm0 0"/></g><g clip-path="url(#c)" transform="translate(32 54)"><path d="M1.81 28.128q-.002-3.514 1.297-6.562a16.8 16.8 0 0 1 3.61-5.36 16.7 16.7 0 0 1 5.328-3.593q3.03-1.296 6.547-1.297 3.516.001 6.562 1.297a16.7 16.7 0 0 1 8.953 8.953q1.297 3.047 1.297 6.562 0 3.517-1.297 6.547a16.7 16.7 0 0 1-3.593 5.328 16.8 16.8 0 0 1-5.36 3.61c-2.031.851-4.218 1.281-6.562 1.281s-4.528-.43-6.547-1.281a16.8 16.8 0 0 1-5.328-3.61 16.8 16.8 0 0 1-3.61-5.328c-.867-2.02-1.296-4.203-1.296-6.547m4.813 0q-.001 3.33 1.61 6.032a12.4 12.4 0 0 0 4.328 4.328q2.702 1.61 6.03 1.61 3.33 0 6.048-1.61a12.26 12.26 0 0 0 4.343-4.328q1.624-2.703 1.625-6.032-.001-3.328-1.625-6.046a12.1 12.1 0 0 0-4.343-4.344q-2.719-1.624-6.047-1.625-3.329.001-6.031 1.625a12.26 12.26 0 0 0-4.329 4.344q-1.61 2.718-1.609 6.046m0 0"/></g><g clip-path="url(#d)"><g clip-path="url(#e)"><path d="M91.984 62.017q-1.628-3.951-3.953-7.235a54 54 0 0 0-5.047-6.14q-5.878-6.14-13.859-9.625c-5.324-2.32-11.031-3.485-17.125-3.485q-9.002.002-16.984 3.485-7.989 3.484-14 9.625-5.862 6.001-9.344 14.265-3.485 8.252-3.484 18.344-.001 10.113 3.484 18.094 3.482 7.985 9.344 13.984 6.012 6.14 14 9.703C40.336 125.4 46 126.58 52 126.58q9.14.002 17.125-3.547 7.98-3.563 13.86-9.703a45 45 0 0 0 5.046-6q2.325-3.28 3.953-7.234h3.282q-3.69 8.736-10.235 15.422-6.282 6.55-14.75 10.312-8.454 3.75-18.281 3.75-9.69 0-18.156-3.75-8.455-3.762-14.875-10.312A52.7 52.7 0 0 1 8.938 100.72q-3.75-8.263-3.75-19.47c0-7.187 1.25-13.663 3.75-19.437q3.75-8.669 10.03-15.218 6.422-6.546 14.876-10.297C39.488 33.79 45.539 32.532 52 32.532c6.55 0 12.645 1.258 18.281 3.766q8.468 3.75 14.75 10.297a55.6 55.6 0 0 1 5.797 7.156 44.3 44.3 0 0 1 4.438 8.266Zm0 0"/></g></g><g clip-path="url(#f)"><g clip-path="url(#g)" transform="translate(173 40)"><path d="M3.096 36.53q-.001-4.464 1.625-8.343 1.624-3.872 4.344-6.766 2.765-2.824 6.672-4.64a19.3 19.3 0 0 1 8.187-1.813q4.81 0 8.813 1.97a19.6 19.6 0 0 1 6.797 5.483c1.875 2.344 3.21 5.102 4.015 8.266h-6.015q-1.689-4.746-5.329-7.219C29.775 21.824 27.018 21 23.925 21q-3.02 0-5.845 1.296-2.83 1.283-4.812 3.391-1.987 2.049-3.125 4.813Q9 33.266 9.003 36.53c0 2.087.366 4.048 1.109 5.891a15.4 15.4 0 0 0 3.093 4.875c1.32 1.368 2.938 2.45 4.844 3.25a15 15 0 0 0 5.875 1.204q4.811 0 8.578-2.641 3.762-2.654 5.39-7.406h5.954q-1.207 4.752-4.031 8.39-2.83 3.643-6.89 5.657-4.068 2.015-9 2.015-4.268.002-8.095-1.656-3.83-1.653-6.593-4.531-2.707-2.888-4.422-6.766c-1.149-2.594-1.719-5.351-1.719-8.281m60.189-15.953v31.234h7.828v5.656H49.38v-5.656h7.828V20.578H49.38v-5.61h21.734v5.61Zm42.02 11.484V14.968h6.125v42.5h-6.125V38.093H87.477v19.375h-6.078v-42.5h6.078v17.094Zm22.375 14.75-4.093 10.656h-6.547l16.906-42.672h4.453l16.907 42.672h-6.5l-4.032-10.656Zm14.876-5.719-6.328-16.61-6.313 16.61Zm18.651-25.75h4.703l20.516 29.672V15.343h6.015v42.125h-4.812l-20.344-29.437v29.437h-6.078Zm53.513 21.063q0-4.576 1.688-8.547a22.1 22.1 0 0 1 4.687-6.984 21.8 21.8 0 0 1 6.953-4.688q3.935-1.687 8.516-1.687 4.575 0 8.547 1.687a21.8 21.8 0 0 1 6.984 4.688 21.8 21.8 0 0 1 4.688 6.984q1.687 3.971 1.687 8.547c0 3.055-.562 5.89-1.687 8.515a21.8 21.8 0 0 1-4.688 6.954q-3.017 3-6.984 4.687-3.971 1.688-8.547 1.688c-3.055 0-5.89-.563-8.516-1.688a22.1 22.1 0 0 1-6.953-4.687 22.1 22.1 0 0 1-4.687-6.954c-1.125-2.625-1.688-5.46-1.688-8.515m6.25 0q0 4.331 2.11 7.86a16.16 16.16 0 0 0 5.625 5.624c2.351 1.399 4.972 2.094 7.86 2.094 2.882 0 5.507-.695 7.874-2.094a16 16 0 0 0 5.672-5.625q2.11-3.527 2.11-7.86 0-4.34-2.11-7.89a15.96 15.96 0 0 0-5.672-5.656q-3.55-2.11-7.875-2.11-4.331 0-7.86 2.11a16.1 16.1 0 0 0-5.624 5.656q-2.11 3.55-2.11 7.89m49.485 15.641h23.765v5.422h-30.812v-5l23.359-32.14h-23.36V14.92h30.516v4.75Zm55.255-19.984V14.968h6.125v42.5h-6.125V38.093h-17.828v19.375h-6.078v-42.5h6.078v17.094Zm22.376 14.75-4.094 10.656h-6.547l16.907-42.672h4.453l16.906 42.672h-6.5l-4.031-10.656Zm14.875-5.719-6.328-16.61-6.312 16.61Zm18.651-25.75h4.703l20.516 29.672V15.343h6.016v42.125h-4.813L387.69 28.031v29.437h-6.078Zm0 0"/></g></g></g></svg>